<mxfile host="Electron" agent="Mozilla/5.0 (Windows NT 10.0; Win64; x64) AppleWebKit/537.36 (KHTML, like Gecko) draw.io/27.0.9 Chrome/134.0.6998.205 Electron/35.4.0 Safari/537.36" version="27.0.9">
  <diagram name="Page-1" id="F9o7AEm8V2uH9Cb5rCbv">
    <mxGraphModel dx="1042" dy="626" grid="1" gridSize="10" guides="1" tooltips="1" connect="1" arrows="0" fold="1" page="1" pageScale="1" pageWidth="850" pageHeight="1100" math="0" shadow="0">
      <root>
        <mxCell id="0" />
        <mxCell id="1" parent="0" />
        <mxCell id="C_PrHtnuCAZ5bNsTurKs-1" value="" style="rounded=0;whiteSpace=wrap;html=1;" vertex="1" parent="1">
          <mxGeometry x="50" y="147" width="150" height="513" as="geometry" />
        </mxCell>
        <mxCell id="C_PrHtnuCAZ5bNsTurKs-3" value="&lt;font style=&quot;font-size: 20px;&quot;&gt;Sources&lt;/font&gt;" style="text;strokeColor=none;align=center;fillColor=default;html=1;verticalAlign=middle;whiteSpace=wrap;rounded=0;" vertex="1" parent="1">
          <mxGeometry x="95" y="130" width="60" height="30" as="geometry" />
        </mxCell>
        <mxCell id="C_PrHtnuCAZ5bNsTurKs-4" value="" style="rounded=0;whiteSpace=wrap;html=1;" vertex="1" parent="1">
          <mxGeometry x="230" y="147" width="510" height="513" as="geometry" />
        </mxCell>
        <mxCell id="C_PrHtnuCAZ5bNsTurKs-5" value="&lt;span style=&quot;font-size: 20px;&quot;&gt;Data Warehouse&lt;/span&gt;" style="text;strokeColor=none;align=center;fillColor=default;html=1;verticalAlign=middle;whiteSpace=wrap;rounded=0;" vertex="1" parent="1">
          <mxGeometry x="395" y="130" width="160" height="30" as="geometry" />
        </mxCell>
        <mxCell id="C_PrHtnuCAZ5bNsTurKs-6" value="" style="rounded=0;whiteSpace=wrap;html=1;" vertex="1" parent="1">
          <mxGeometry x="760" y="147" width="150" height="513" as="geometry" />
        </mxCell>
        <mxCell id="C_PrHtnuCAZ5bNsTurKs-7" value="&lt;span style=&quot;font-size: 20px;&quot;&gt;Consume&lt;/span&gt;" style="text;strokeColor=none;align=center;fillColor=default;html=1;verticalAlign=middle;whiteSpace=wrap;rounded=0;" vertex="1" parent="1">
          <mxGeometry x="805" y="130" width="60" height="30" as="geometry" />
        </mxCell>
        <mxCell id="C_PrHtnuCAZ5bNsTurKs-12" value="" style="image;aspect=fixed;html=1;points=[];align=center;fontSize=12;image=img/lib/azure2/general/Folder_Blank.svg;" vertex="1" parent="1">
          <mxGeometry x="95" y="190" width="49.29" height="40" as="geometry" />
        </mxCell>
        <mxCell id="C_PrHtnuCAZ5bNsTurKs-11" value="&lt;span style=&quot;color: rgba(0, 0, 0, 0); font-family: monospace; font-size: 0px; text-align: start; background-color: rgb(27, 29, 30);&quot;&gt;%3CmxGraphModel%3E%3Croot%3E%3CmxCell%20id%3D%220%22%2F%3E%3CmxCell%20id%3D%221%22%20parent%3D%220%22%2F%3E%3CmxCell%20id%3D%222%22%20value%3D%22%22%20style%3D%22image%3Baspect%3Dfixed%3Bhtml%3D1%3Bpoints%3D%5B%5D%3Balign%3Dcenter%3BfontSize%3D12%3Bimage%3Dimg%2Flib%2Fazure2%2Fgeneral%2FFolder_Blank.svg%3B%22%20vertex%3D%221%22%20parent%3D%221%22%3E%3CmxGeometry%20x%3D%2295%22%20y%3D%22190%22%20width%3D%2249.29%22%20height%3D%2240%22%20as%3D%22geometry%22%2F%3E%3C%2FmxCell%3E%3C%2Froot%3E%3C%2FmxGraphModel%3E&lt;/span&gt;" style="image;aspect=fixed;html=1;points=[];align=center;fontSize=12;image=img/lib/azure2/general/File.svg;" vertex="1" parent="1">
          <mxGeometry x="130.64999999999998" y="210" width="24.35" height="30" as="geometry" />
        </mxCell>
        <mxCell id="C_PrHtnuCAZ5bNsTurKs-13" value="" style="image;aspect=fixed;html=1;points=[];align=center;fontSize=12;image=img/lib/azure2/general/Folder_Blank.svg;" vertex="1" parent="1">
          <mxGeometry x="95" y="290" width="49.29" height="40" as="geometry" />
        </mxCell>
        <mxCell id="C_PrHtnuCAZ5bNsTurKs-14" value="&lt;span style=&quot;color: rgba(0, 0, 0, 0); font-family: monospace; font-size: 0px; text-align: start; background-color: rgb(27, 29, 30);&quot;&gt;%3CmxGraphModel%3E%3Croot%3E%3CmxCell%20id%3D%220%22%2F%3E%3CmxCell%20id%3D%221%22%20parent%3D%220%22%2F%3E%3CmxCell%20id%3D%222%22%20value%3D%22%22%20style%3D%22image%3Baspect%3Dfixed%3Bhtml%3D1%3Bpoints%3D%5B%5D%3Balign%3Dcenter%3BfontSize%3D12%3Bimage%3Dimg%2Flib%2Fazure2%2Fgeneral%2FFolder_Blank.svg%3B%22%20vertex%3D%221%22%20parent%3D%221%22%3E%3CmxGeometry%20x%3D%2295%22%20y%3D%22190%22%20width%3D%2249.29%22%20height%3D%2240%22%20as%3D%22geometry%22%2F%3E%3C%2FmxCell%3E%3C%2Froot%3E%3C%2FmxGraphModel%3E&lt;/span&gt;" style="image;aspect=fixed;html=1;points=[];align=center;fontSize=12;image=img/lib/azure2/general/File.svg;" vertex="1" parent="1">
          <mxGeometry x="130.65" y="320" width="24.35" height="30" as="geometry" />
        </mxCell>
        <mxCell id="C_PrHtnuCAZ5bNsTurKs-15" value="&lt;b&gt;ERP&lt;/b&gt;" style="text;strokeColor=none;align=center;fillColor=none;html=1;verticalAlign=middle;whiteSpace=wrap;rounded=0;" vertex="1" parent="1">
          <mxGeometry x="84.28999999999998" y="340" width="60" height="30" as="geometry" />
        </mxCell>
        <mxCell id="C_PrHtnuCAZ5bNsTurKs-16" value="&lt;b&gt;CRM&lt;/b&gt;" style="text;strokeColor=none;align=center;fillColor=none;html=1;verticalAlign=middle;whiteSpace=wrap;rounded=0;" vertex="1" parent="1">
          <mxGeometry x="85" y="230" width="60" height="30" as="geometry" />
        </mxCell>
        <mxCell id="C_PrHtnuCAZ5bNsTurKs-18" value="" style="endArrow=none;html=1;rounded=0;" edge="1" parent="1">
          <mxGeometry width="50" height="50" relative="1" as="geometry">
            <mxPoint x="65" y="390" as="sourcePoint" />
            <mxPoint x="185" y="390" as="targetPoint" />
            <Array as="points" />
          </mxGeometry>
        </mxCell>
        <mxCell id="C_PrHtnuCAZ5bNsTurKs-19" value="&lt;b&gt;Object Type: &lt;/b&gt;CSV Files" style="text;strokeColor=none;align=center;fillColor=none;html=1;verticalAlign=middle;whiteSpace=wrap;rounded=0;" vertex="1" parent="1">
          <mxGeometry x="60" y="400" width="130" height="30" as="geometry" />
        </mxCell>
        <mxCell id="C_PrHtnuCAZ5bNsTurKs-20" value="&lt;b&gt;Interface:&amp;nbsp;&lt;/b&gt;Files as in Folder" style="text;strokeColor=none;align=center;fillColor=none;html=1;verticalAlign=middle;whiteSpace=wrap;rounded=0;" vertex="1" parent="1">
          <mxGeometry x="60" y="440" width="130" height="30" as="geometry" />
        </mxCell>
        <mxCell id="C_PrHtnuCAZ5bNsTurKs-22" value="" style="rounded=0;whiteSpace=wrap;html=1;fillColor=none;strokeColor=#b46504;" vertex="1" parent="1">
          <mxGeometry x="250" y="210" width="140" height="440" as="geometry" />
        </mxCell>
        <mxCell id="C_PrHtnuCAZ5bNsTurKs-23" value="&lt;font style=&quot;font-size: 16px; color: rgb(0, 0, 0);&quot;&gt;&lt;b&gt;Bronze Layer&lt;/b&gt;&lt;/font&gt;" style="text;strokeColor=#b46504;align=center;fillColor=#fad7ac;html=1;verticalAlign=middle;whiteSpace=wrap;rounded=0;" vertex="1" parent="1">
          <mxGeometry x="250" y="170" width="140" height="30" as="geometry" />
        </mxCell>
        <mxCell id="C_PrHtnuCAZ5bNsTurKs-24" value="" style="rounded=0;whiteSpace=wrap;html=1;fillColor=none;strokeColor=#666666;gradientColor=#b3b3b3;" vertex="1" parent="1">
          <mxGeometry x="400" y="210" width="170" height="440" as="geometry" />
        </mxCell>
        <mxCell id="C_PrHtnuCAZ5bNsTurKs-25" value="&lt;span style=&quot;font-size: 16px;&quot;&gt;&lt;b&gt;&lt;font style=&quot;color: rgb(0, 0, 0);&quot;&gt;Silver Layer&lt;/font&gt;&lt;/b&gt;&lt;/span&gt;" style="text;strokeColor=#666666;align=center;fillColor=#f5f5f5;html=1;verticalAlign=middle;whiteSpace=wrap;rounded=0;gradientColor=#b3b3b3;" vertex="1" parent="1">
          <mxGeometry x="400" y="170" width="170" height="30" as="geometry" />
        </mxCell>
        <mxCell id="C_PrHtnuCAZ5bNsTurKs-26" value="" style="rounded=0;whiteSpace=wrap;html=1;fillColor=none;strokeColor=#d6b656;gradientColor=#ffd966;" vertex="1" parent="1">
          <mxGeometry x="583" y="210" width="140" height="440" as="geometry" />
        </mxCell>
        <mxCell id="C_PrHtnuCAZ5bNsTurKs-27" value="&lt;font style=&quot;font-size: 16px; color: rgb(0, 0, 0);&quot;&gt;&lt;b&gt;Gold Layer&lt;/b&gt;&lt;/font&gt;" style="text;strokeColor=#d6b656;align=center;fillColor=#fff2cc;html=1;verticalAlign=middle;whiteSpace=wrap;rounded=0;gradientColor=#ffd966;" vertex="1" parent="1">
          <mxGeometry x="582" y="170" width="140" height="30" as="geometry" />
        </mxCell>
        <mxCell id="C_PrHtnuCAZ5bNsTurKs-33" value="" style="strokeWidth=2;html=1;shape=mxgraph.flowchart.database;whiteSpace=wrap;fillColor=#fad7ac;strokeColor=#b46504;" vertex="1" parent="1">
          <mxGeometry x="290" y="230" width="50" height="50" as="geometry" />
        </mxCell>
        <mxCell id="C_PrHtnuCAZ5bNsTurKs-34" value="" style="strokeWidth=2;html=1;shape=mxgraph.flowchart.database;whiteSpace=wrap;fillColor=#f5f5f5;gradientColor=#b3b3b3;strokeColor=#666666;" vertex="1" parent="1">
          <mxGeometry x="449" y="230" width="50" height="50" as="geometry" />
        </mxCell>
        <mxCell id="C_PrHtnuCAZ5bNsTurKs-35" value="" style="strokeWidth=2;html=1;shape=mxgraph.flowchart.database;whiteSpace=wrap;fillColor=#fff2cc;gradientColor=#ffd966;strokeColor=#d6b656;" vertex="1" parent="1">
          <mxGeometry x="610" y="230" width="50" height="50" as="geometry" />
        </mxCell>
        <mxCell id="C_PrHtnuCAZ5bNsTurKs-36" value="&lt;font style=&quot;font-size: 15px;&quot;&gt;Raw Data&lt;/font&gt;" style="text;strokeColor=none;align=center;fillColor=none;html=1;verticalAlign=middle;whiteSpace=wrap;rounded=0;" vertex="1" parent="1">
          <mxGeometry x="250" y="285" width="130" height="30" as="geometry" />
        </mxCell>
        <mxCell id="C_PrHtnuCAZ5bNsTurKs-37" value="&lt;font style=&quot;font-size: 15px;&quot;&gt;Cleaned, Standardized Data&lt;/font&gt;" style="text;strokeColor=none;align=center;fillColor=none;html=1;verticalAlign=middle;whiteSpace=wrap;rounded=0;" vertex="1" parent="1">
          <mxGeometry x="409" y="290" width="130" height="30" as="geometry" />
        </mxCell>
        <mxCell id="C_PrHtnuCAZ5bNsTurKs-39" value="&lt;span style=&quot;font-size: 15px;&quot;&gt;Business-Ready Data&lt;/span&gt;" style="text;strokeColor=none;align=center;fillColor=none;html=1;verticalAlign=middle;whiteSpace=wrap;rounded=0;" vertex="1" parent="1">
          <mxGeometry x="580" y="290" width="130" height="30" as="geometry" />
        </mxCell>
        <mxCell id="C_PrHtnuCAZ5bNsTurKs-42" value="" style="shape=singleArrow;whiteSpace=wrap;html=1;fillColor=#b1ddf0;strokeColor=#10739e;" vertex="1" parent="1">
          <mxGeometry x="200" y="335" width="30" height="30" as="geometry" />
        </mxCell>
        <mxCell id="C_PrHtnuCAZ5bNsTurKs-44" value="" style="endArrow=none;html=1;rounded=0;" edge="1" parent="1">
          <mxGeometry width="50" height="50" relative="1" as="geometry">
            <mxPoint x="255" y="366" as="sourcePoint" />
            <mxPoint x="375" y="366" as="targetPoint" />
            <Array as="points" />
          </mxGeometry>
        </mxCell>
        <mxCell id="C_PrHtnuCAZ5bNsTurKs-45" value="" style="endArrow=none;html=1;rounded=0;" edge="1" parent="1">
          <mxGeometry width="50" height="50" relative="1" as="geometry">
            <mxPoint x="419" y="367" as="sourcePoint" />
            <mxPoint x="539" y="367" as="targetPoint" />
            <Array as="points" />
          </mxGeometry>
        </mxCell>
        <mxCell id="C_PrHtnuCAZ5bNsTurKs-46" value="" style="endArrow=none;html=1;rounded=0;" edge="1" parent="1">
          <mxGeometry width="50" height="50" relative="1" as="geometry">
            <mxPoint x="592" y="367" as="sourcePoint" />
            <mxPoint x="712" y="367" as="targetPoint" />
            <Array as="points" />
          </mxGeometry>
        </mxCell>
        <mxCell id="C_PrHtnuCAZ5bNsTurKs-47" value="&lt;b&gt;Object Type: &lt;/b&gt;Tables&lt;div&gt;&lt;b&gt;Load:&amp;nbsp;&lt;/b&gt;&lt;/div&gt;&lt;div&gt;&lt;ul&gt;&lt;li&gt;Batch Processing&lt;/li&gt;&lt;li&gt;Full Load&lt;/li&gt;&lt;li&gt;Truncate &amp;amp; Insert&lt;/li&gt;&lt;/ul&gt;&lt;div&gt;No &lt;b&gt;Transformations&lt;/b&gt;&lt;/div&gt;&lt;/div&gt;&lt;div&gt;&lt;b&gt;Data Model: &lt;/b&gt;None(as-is)&lt;/div&gt;" style="text;strokeColor=none;align=left;fillColor=none;html=1;verticalAlign=middle;whiteSpace=wrap;rounded=0;" vertex="1" parent="1">
          <mxGeometry x="257" y="402" width="123" height="110" as="geometry" />
        </mxCell>
        <mxCell id="C_PrHtnuCAZ5bNsTurKs-49" value="" style="shape=singleArrow;whiteSpace=wrap;html=1;fillColor=#b1ddf0;strokeColor=#10739e;" vertex="1" parent="1">
          <mxGeometry x="385" y="334" width="30" height="30" as="geometry" />
        </mxCell>
        <mxCell id="C_PrHtnuCAZ5bNsTurKs-51" value="" style="shape=singleArrow;whiteSpace=wrap;html=1;fillColor=#b1ddf0;strokeColor=#10739e;" vertex="1" parent="1">
          <mxGeometry x="558" y="335" width="30" height="30" as="geometry" />
        </mxCell>
        <mxCell id="C_PrHtnuCAZ5bNsTurKs-53" value="" style="shape=singleArrow;whiteSpace=wrap;html=1;fillColor=#b1ddf0;strokeColor=#10739e;" vertex="1" parent="1">
          <mxGeometry x="736" y="334" width="30" height="30" as="geometry" />
        </mxCell>
        <mxCell id="C_PrHtnuCAZ5bNsTurKs-54" value="&lt;b&gt;Object Type: &lt;/b&gt;Tables&lt;div&gt;&lt;b&gt;Load:&amp;nbsp;&lt;/b&gt;&lt;/div&gt;&lt;div&gt;&lt;ul&gt;&lt;li&gt;Batch Processing&lt;/li&gt;&lt;li&gt;Full Load&lt;/li&gt;&lt;li&gt;Truncate &amp;amp; Insert&lt;/li&gt;&lt;/ul&gt;&lt;div&gt;&lt;b&gt;Transformations:&lt;/b&gt;&lt;/div&gt;&lt;/div&gt;&lt;div&gt;&lt;ul&gt;&lt;li&gt;Data Cleaning&lt;/li&gt;&lt;li&gt;Data Standardization&lt;/li&gt;&lt;li&gt;Data Normalization&lt;/li&gt;&lt;li&gt;Derived Columns&lt;/li&gt;&lt;li&gt;Data Enrichment&lt;/li&gt;&lt;/ul&gt;&lt;/div&gt;&lt;div&gt;&lt;b&gt;Data Model: &lt;/b&gt;None(as-is)&lt;/div&gt;" style="text;strokeColor=none;align=left;fillColor=none;html=1;verticalAlign=middle;whiteSpace=wrap;rounded=0;" vertex="1" parent="1">
          <mxGeometry x="423" y="443" width="137" height="110" as="geometry" />
        </mxCell>
        <mxCell id="C_PrHtnuCAZ5bNsTurKs-55" value="&lt;b&gt;Object Type: &lt;/b&gt;Views&lt;div&gt;&lt;br&gt;&lt;div&gt;&lt;b&gt;No Load&lt;/b&gt;&lt;/div&gt;&lt;div&gt;&lt;b&gt;&lt;br&gt;&lt;/b&gt;&lt;/div&gt;&lt;div&gt;&lt;div&gt;&lt;b&gt;Transformations:&lt;/b&gt;&lt;/div&gt;&lt;/div&gt;&lt;div&gt;&lt;ul&gt;&lt;li&gt;Data Integrations&lt;/li&gt;&lt;li&gt;Aggregations&lt;/li&gt;&lt;li&gt;Business Logic&lt;/li&gt;&lt;/ul&gt;&lt;/div&gt;&lt;div&gt;&lt;b&gt;Data Model:&amp;nbsp;&lt;/b&gt;&lt;/div&gt;&lt;/div&gt;&lt;div&gt;&lt;ul&gt;&lt;li&gt;Star Schema&lt;/li&gt;&lt;li&gt;Flat Table&lt;/li&gt;&lt;li&gt;Aggregated Table&lt;/li&gt;&lt;/ul&gt;&lt;/div&gt;" style="text;strokeColor=none;align=left;fillColor=none;html=1;verticalAlign=middle;whiteSpace=wrap;rounded=0;" vertex="1" parent="1">
          <mxGeometry x="591.5" y="444" width="123" height="110" as="geometry" />
        </mxCell>
        <mxCell id="C_PrHtnuCAZ5bNsTurKs-61" value="" style="shape=image;verticalLabelPosition=bottom;labelBackgroundColor=default;verticalAlign=top;aspect=fixed;imageAspect=0;image=data:image/png,iVBORw0KGgoAAAANSUhEUgAAAgAAAAIACAYAAAD0eNT6AAAAAXNSR0IArs4c6QAAIABJREFUeAHtnQmYlNWZ751nJsvkztxZ7s29N5nMooAY6GpF6GqJC01XgyIColHERNQxmpi4O6MIsoi4xCVR1ERFE42jzqgxUfawVdNEUQFpFlmUfRNoeqvvK7qr0PfOafhMUXT1+aq+5Zz3fH+eh6eq61Sd5Xfe8/7/337CCfgHAiAAAiAAAiAAAiAAAiAAAiAAAiAAAiAAAiAAAiAAAiAAAiAAAiAAAiAAAiAAAiAAAiAAAiAAAiAAAiAAAiAAAiAAAiAAAiAAAiAAAiAAAiAAAiAAAiAAAiAAAiAAAiAAAiAAAiAAAiAAAiAAAiAAAiAAAiAAAiAAAiAAAiAAAiAAAiAAAiAAAiAAAiAAAiAAAiAAAiAAAiAAAiAAAiAAAiAAAiAAAiAAAiAAAiAAAiAAAiAAAiAAAiAAAiAAAiAAAiAAAiAAAiAAAiAAAiAAAiAAAiAAAiAAAiAAAiAAAiAAAiAAAiAAAiAAAiAAAiAAAiAAAiAAAiAAAiAAAiAAAiAAAiAAAiAAAiAAAiAAAiAAAiAAAiAAAiAAAiAAAiAAAiAAAiAAAiAAAiAAAiAAAiAAAiAAAiAAAiAAAiAAAiAAAiAAAiAAAiAAAiAAAiAAAiAAAiAAAiAAAiAAAiAAAiAAAiAAAiAAAiAAAiAAAiAAAiAAAiAAAiAAAiAAAiAAAiAAAiAAAiAAAiAAAiAAAiAAAiAAAiAAAiAAAiAAAiAAAiAAAiAAAiAAAiAAAiAAAiAAAiAAAiAAAiAAAiAAAiAAAiAAAiAAAiAAAiAAAiAAAiAAAiAAAiAAAiAAAiAAAiAAAiAAAiAAAiAAAiAAAiAAAiAAAiAAAiAAAiAAAiAAAiAAAiAAAiAAAiAAAiAAAiAAAiAAAiAAAiAAAiAAAiAAAiAAAiAAAiAAAiAAAiAAAiAAAiAAAiAAAiAAAiAAAiAAAiAAAiAAAiAAAiAAAiAAAiAAAiAAAiAAAiAAAiAAAiAAAiAAAiAAAiAAAiAAAiAAAiAAAiAAAiAAAiAAAiAAAiAAAiAAAiAAAiAAAiAAAiAAAiAAAiDAnoBt29+wLOty27an2bY9z7btj23bbrRtO2PbNuE/GCAGEAOIAcRACTEgNERoidCUeZZlPX5Ua77BXjg5DyCVSn09nU7fYtv2ihImFaYAxggxgBhADCAGvMTAB+l0+mahRZy1lFXf0+n0P9m2/YRt22kIPxw9YgAxgBhADCiOAaFF09Lp9D+yElNOnSWiLwm3Zdt2SvFke3GM+C22OBADiAHEgJkxIIzAZCL6Kidt1b6vqVSqt23bayH8cPqIAcQAYgAxoHkMrEmlUr20F1YOHUyn06PtI//gms10zZhXzCtiADFgWgxY6XT6Ug4aq20f0+n0DbZtf6a52zMtcDEeJGPEAGIAMeA9Bj63LOt2bQVW547Ztv1jCD929SEGEAOIAcQA5xhIp9O36qy12vXt6G5/bPl7d6Bw8WCIGEAMIAbUxsBnOBzg0mYcPeFPHPVH0IIBYgAxgBhADJgQAxZODJSYACL6Cs72h/GB+UMMIAYQAwbGwGoi+rJEBqNb/N8n/E0wcNJNcK8YA7bCEAOIAcSAxxiwLOuu6Cp8FyM/eoc/3N3PY4DBQGHLCTGAGEAMaBsDdjqd/lYXUhjNItu2n0TQahu0cP4wZogBxABiwIcYEA8UiqbKFxi1eJgC7u0P8YcBRAwgBhADEYiBNB4glGMGxHWSEZh0uGcf3DPiBAKBGEAMcI+BdDp9Y44ERvstHumLBc19QaP/iGHEAGKgiBh4P9qqf3T0tm1/owho2IrGVjRiADGAGEAMcI8BcZvg/xd5E2BZ1vdgAOCcEQOIAcQAYiBKMZBOpy+LvAGwbXtalCYdY0WSQwwgBhADiAHLsh6DAbDtP2AxYDEgBhADiAHEQMRiYA4MgG1vjtikcz92hf7j+CtiADGAGPAeAx/DANj2QRgAOH/EAGIAMYAYiFgMNMAA2HZ7xCYdztm7cwZDMEQMIAa4x0A7DACCmHsQo/+IYcQAYgAxUEIMwACUAA17DLCrEDGAGEAMIAa4xwAMAAwAnDNiADGAGEAMRDAGYAAiOOncXSv6jy0vxABiADHgPQZgAGAA4PwRA4gBxABiIIIxAAMQwUmHc/bunMEQDBEDiAHuMQADAAMA548YQAwgBhADEYwBGIAITjp314r+Y8sLMYAYQAx4jwEYABgAOH/EAGIAMYAYiGAMwABEcNLhnL07ZzAEQ8QAYoB7DMAAwADA+SMGEAOIAcRABGMABiCCk87dtaL/2PJCDCAGEAPeYwAGAAYAzh8xgBhADCAGIhgDMAARnHQ4Z+/OGQzBEDGAGOAeAzAAMABw/ogBxABiADEQwRiAAYjgpHN3reg/trwQA4gBxID3GIABgAGA80cMIAYQA4iBCMYADEAEJx3O2btzBkMwRAwgBrjHAAwADACcP2IAMYAYQAxEMAZgACI46dxdK/qPLS/EAGIAMeA9BmAAYADg/BEDiAHEAGIggjEAAxDBSYdz9u6cwRAMEQOIAe4xAAMAAwDnjxhADCAGEAMRjAEYgAhOOnfXiv5jywsxgBhADHiPARgAGAA4f8QAmxhoSVn0x40HadqCPXTzf26j4U99TPEH1lPPiWvpn+5a0/FfvBefiTLxHfFd8RvxW+6isWrVKpowYQLV1NRQ7969O/6L9xMnTqT6+nrP48uv/8QTTyT8L8xAzIGf/MOOTxgAJH/PSSPsoEV73p0/J4bNrRb9bvl+uvLXm6n73WvoG3esLul/jwlr6Kpfb6bfr9hPok5ODJqammjs2LHUrVu3goLcvXt3GjduHDU3Nxc9Njf1wwgUNgKCjRf+qmIRBgAGoOhkoSpY0W60hH/ngVa6d8ZO+vaktSUJfldGQdQ5deZO2nWgVfv4F+I8atSogsKfL8ziu8WYgGLrz28Pfx9rDIrlrzKvwQDAAGifAFUuELQdvunY35SiSW/toG53+y/8+aZAtHHP2zvoQFNK23UgtvyLFdnx48e7Hk8p9Rfbn6h9vxj+KnMMDAAMgOtEoTJQ0Xb4QqyCudg9f/p9H/m+xZ8v/Pl/973vI3pr5X7t1oI4Jt/Vbv9Cwip2R69evVo6nlLrL9QuPj+yN8AtfxVrLLdNGAAYAGmSyA0YvI+GEIc9z40tFo397fbQhT/fCFz/H1uooVmfvQHihL9SRXXSpEnSte2l/lL7FZXfueEf9jrLbw8GAAZAmiTygwZ/wwT4GQOb97bQwEc3KBd/xwwkfraRtn7aosW6EGeYlyqYgwYNko7BS/2l9isqv3PD3891VEpdMAAwANIkUUpg4TcwCW5i4KOdzXTGg+u1EX/HBPS7/yNau6P4s+ndjLmY74jLzEoVTPFbWVte6i+1X1H5nRv+svkJuhwGAAZAmiSOCUKrldL73qe2LdOpfd14yqy4grLvnkuZuu9QtrYPZWtPP/JefLbiio7viO+K39iW/mdcHzNWxEZxsVEkrzU7mqn35HXaib9jAsruWUdrdzQFykAWb14EuqysTNp3L/VHRchLHacb/rL5D7ocBqDIpBX0hGhZv9VMh3bNovb6GymzpJKyyVhJ/zNLzqD2+pvo0K7ZZFvqt660ZB2ReNyyt4Uq7tdvy98Rf+e1z9SP6JM96g4HeNlF72YXtJf6SxXGqPzODX/VOQgGICIJt5RAS7fspraNj1Jm6VklCX5XRkHU2bbpZ5Ru2SPdSiml7/iNvocgxAl/Oh3zd8S+0GvNzzdSU4uaGweJO/yVKpiTJ0+Wri0v9Zfar6j8zg1/1XkKBgAG4Pgk0XqA2jY8RNm6uO/Cf5wpqItT28ZHyG5tOL4fmBsjmdz6X9u03e1fyATc8fp2JXMhbu8rLikrVjTdXoZWav3F9idq33fLHwZAsQVRPQG6tS92z2feqQle+PMOI2TeGUSHds1RkmR1mwOT+yNu6VtIZHX/fMaHau4TIG7vW6yAisv73MZRKfUX25+ofb8Y/m7nKYjvKZZf9c0HAZVlnalGal8/NXThz98j0LbmDrJTB10nL5asI7pnQ1xfz+G4fyEjIm4WpOKOgeK2vpdddplrEzB69GhqaXF/3kKx9UdNzIsdb7H8VeYw9QqsuAcq4evSdrppK2Xev0i5+DtmIPP+xZRuVrPLVZc5MbEf4va+hcSVy+fi2QQq5kaItLi9bFeHA0SZ2PIsRvydsbipv1ghjNr3vfB35iHsV8Xyq775sIFr197BjZRdNkQb8f/CBLw7mNIH1ytJttrNkQF7DHY3pKh7CPf2D9pIiGcHqHyAkLi9r7jDnDjDXFzCJ/6L9+KEMze3/pXFdn79URPxYsfrN3/Z/Phdrl6BFffAb6Cc6ksf/IgyS8/WTvy/MAFLzyEbJsAIEzRlxk72W/+Oubh/lpq9AJxyC/qq71U4uXOjWH7VN58LI0rv003bKPPuYG3F/wsT8E6C0k1bjBDBKMVX7libW61AHunrCHLYr70mryMxptwx4j0PwcM8HTtP6hVYcQ8iGRCpRq2O+TtiX+g18/53yU6pvSNbJOPEp0MPbzI+87+QuXhbwycHIkaPFTfwkPNQLL/qm49ikLSvm6D9ln++GWj/6B5scfkkyGHH/JW/3mzM7n/HEFzzIvZKhR1HaE8u6MUyUq/AintQLDDu3xe39M0XVy5/H9o9DyaAmQloSVnUY8Ia4wzAyRPXUmsKhwG458Oo91+x/KpvPlIBkDrI4rh/IUMibhaEOwb6vxUQ5BpYuvGgceLv7AVY9nEjDCkzQxpkrHOsW70CK+4Bx0krtc8dt/fNuwNfIbHV9XPxbIJSx4/fhW8epi3YY6wBeGLBbsQiDADrGFAsv+qbj4ooiIfuZOtKf5KfNoagLo4HCDFKuje9utVYAyCeaRCV/IFxhm+ew2CuXoEV9yAMyDq0IR64o42Ie9wL0bbpMSReJiZg2JMfG2sALvzFx4hDJnGoQw7WsQ+K5Vd98zpOiu99spoDeaSvKkMhHiVsW81IvgySL+d7/zvH+gu9xh/AnSp9z1UMYtqkMatXYMU9MGkyC43l0K6Zxmz9O6bj0O65MAAMkuUpk9YauwdA3BCo0JrD52buMjdtXhXLr/rmTZvQzsbTXn+jcQagffUtSL4MDMA/3WXeJYDOHoF/HrcGMcggBjvLifjsiEFTr8CKe2B8IFitlFlyhnEGIFPXn2wrhQSseQKGAcCWsPE5VvM12BV/xfKrvvmu4JhQlt73nnHi7xwGSO9fDgOgefLBIQAYABPyqKljUK/Aintg6sQ642rbMt1YA3Bo83MwAJobAJwECAPg5CK86hcLiuVXffOmB2X72vHGGgDxTAPT54/7+HAZoH5Jn3tMof/+xZR6BVbcA9ODKbPi+8YagMzKK2EANN8DcPN/bjP2KoDbFNwIaNWqVTRhwgSqqamh3r17d/wX7ydOnEj19fWe10N+/SeeeCLhf2EGYg785B+2HimWX/XNhw087PYy7w421gBk3z3Xc8ILez6i1t60BbuNNQBPLgzvVsBNTU00duxY6tatW0FB7t69O40bN46am4u/R4ab+mEEChsBwcYLf1V5Qb0CK+6BKvBhtZupO9NYA9BxQyDNt4DDmmdd2/mjwQ8Deu+TcB4GJMR51KhRBYU/X5jFd4sxAcXWn98e/j7WGBTLX+XaVSy/6ptXCT+MtrO1pxtrALJL+mIPgOYGCI8D9n68Vmz5Fyuy48ePd702Sqm/2P5E7fvF8A9DBwq1oV6BFfegEBhTPocB8J6ATYkFVeO46tebjTsM8IMXt7gWWC/cxTH5rnb7FxJWsTt69erV0j6WWn+hdvH5kb0Bbvl7iQ0/fqtYftU37wdEnevAIQAYANXx+bvl+40zADM+3C8VVz+4ixP+ShXVSZMmSfvopf5S+xWV37nh70eMeKlDvQIr7oEXeBx+i5MAYQBUx+my95fTP9z6jjEmoPfkddTcaknF1Q/u4gzzUgVz0KBB0j56qb/UfkXld274+xEjXupQLL/qm/cCj8NvcRkgDIDKOH3jjTeoV69e9I/D7jbGADwwa6dUWP1iLi4zK1UwxW9l/fBSf6n9isrv3PCXzU/Q5eoVWHEPggasuv72dSbfCGiiNMGp5h/V9i3LoocffphOOumkIwJ2yqn0zdveZ28Cut29lnYdaA0t7rwIdFlZmbSfXuqPipCXOk43/FXnB8Xyq7551RMQdPuHNpt8K+DnpQkuaL6o//g9LAcOHKBrr732uC3Xfxw+kb0BuG9meFv/Ira87KJ3swvaS/2lCmNUfueGv+r8oV6BFfdA9QQE3X563/vGXgaY3r8CBkCzywC3bNlCQ4cOPU78O5J+j1Pomz9ZwNYE9L3vIzrQFO4TKMUd/koVzMmTJ0vXh5f6S+1XVH7nhn/Q+V9Wv2L5Vd+8DBD7cjwOWJoE2c+xJiZg6dKl1K9fvy4F65/PuoytAZi56kDosSRu7ysuKStWNN1ehlZq/cX2J2rfd8tfde5Rr8CKe6B6AsJov73+JuP2ArSvvjX0ZBzGXHFt4ze/+Q2dfPLJroTqWxf/lJ0JuPO325XFm7i9b7ECKi7vcxtLpdRfbH+i9v1i+LudpyC+p1h+1TcfBFTd6jy0a5ZxBuDQ7nmuE5xu82FSf1pbW2nq1KnFCVT3nvTNa3/PxgQMfmwjNbWEc9lfZ7Ehbut72WWXuWY8evRoamlpcb0+iq0/amJe7HiL5d/ZnIf1mXoFVtyDsEArbcdqJnHf/GwyZsT/zNKzybbcJzil7DXZPR8Eg/3799NVV13lWpiOSaS9+rI4HyD+wHraui+8s/4LzZMQaXF72a4OB4gyseVZjPg77bmp/5j5w1MCj4t7L/ydeQj7VbH8qm8+bOCq2mvb9DMjxF+YmLZNj7veulHF2/R2169fT4lE4rgkWIxI/Ev5WfTNm+u03RNQds86WrujSatYE7f3FXeYE2eYi0v4xH/xXpxw5ubWv7K4zK+/mPmM4nf95i+bH7/L1Suw4h74DVTH+sRu2nsn3k4t8wzYA1AXp3TLHq2Sso5zHmSf5s+fT+Xl5Z7E3xGLf4n1p2/+eJ52JqDi/vW0dkfxj9UNkjvqPv6SUzDxxkSx/Kpv3vQAEo/6/NGPftSRrJ/891PY7wVo2/RziL/CwwovvPAC9ejRwxfxd0zAieJwwLW/08YEiGP+Ouz2Nz03YXzexNsPfuoVWHEP/ICoax27d++mkSNHfpGse51yEm19ozdbE5B5ZxDZrQ0wAAoMgDhGfPvtt38RS1+It1/HgrudTP940f3KTcCt/7VN6Ql/uuYS9Eu9WAcxB4rlV33zQUDVoc5NmzZRdXX1cQn72ot6sDUArz71Y0qlwr0Riw5zqboPwkheeumlx8WSnyZAHEt96623SDxlr9/9H4VuBMTJfiqu81c9t2jfTGF3O6/qFVhxD9yC4vQ98YzvM844o2DC/s0kfocCfnX3KR3jufLKK+nTTz/FXoCQ9gKIWDr77LMLxpIfJkDE6gcffPDFnDY0p+jeGTup+91rAzcC3e9eQ+L2vgebYSw55Tj01R/jolh+1TdvWiAtWrSIxEMoukrMp5x8ItW/2IvNnoAPX+hNPXuc+MWYqqqqSNzBzLS50208c+fOlcZSV3HmpkwcotqxY0enc7m7IdUhzr0mr/PdCIhH+oqn+u1pgPDrFnfojz/i7oajegVW3AM3kLh859VXX3V9gtYZp3djcT7A1td7U2Wfo0+UyzneLHYZv/nmm50KB5f50rWf4kl+06ZNo27dun1hutyIebHfEecUiHMLZByaWy16e+V+uubFLXTyxNL3CvScuJZ+8OKWjsMMok5ZuygPT4jAWg1rxfKrvnlTAu/pp5/+06NXc4Syq6Rc3b8bffp2mbZ7AkTfBvYvLELiUbOl3vjElHn3exyNjY100003BSr84oYpwmCU0vfWlEXvftxITyzYTeKEvQt/8TFVPrCeTpm0lv7prjUd/8V78dmFT23q+M6TC3fTso8bSfy2lDbxGzXiBO7Bc1evwIp7wD3IxDX+d911V8kJ+5zKbrT5Nf1MgLhaQRiUrgyMUyZOUCu0G5n7/IbZ/61bt9Lw4cNdMXfYF/sq9tzMnj0bQhzSORxhxg/aCl6w/WasWH7VN+830DDry73Gv9hEnPt9cThg1Qv6nBMgjvl3tts/t8/578WJZMuWLYOwlCgsy5cvp/79+wcq/gMGDKA1a9ZgjkqcozBzC9riJ+alzJl6BVbcg1Kg6fCbPXv20MUXX+xbwhYn2T0/Xv3VAf8x+ZRjTvjLF/qu/u7ZsyeJp9LpMD+c+vDGG29Qr169fIulzubo8ssvp71792JuIP6IAY1iQLH8qm+eU6J2+lroGv/OEm+xn10zsgft+F156OcFiJP9rh5R/HPPOxvfHXfc4erkModnVF/FyX4PP/xw0eeOdMa8q8/EfJTygJqozgvGHY2tbx3mWb0CK+6BDpNQTB9k1/h3lYjdlJ1zzjm0cX09tW18lLJ1lYEbgea5MXrstp707Z7Hn+nvpr+FvjN06FD65JNPsLVRYGvjwIEDdO211wa61S9O9ps+fTrmoMAcFLPu8V2YgiBiQLH8qm8+CKhB1enmGv9Cgujm8xEjRtCuXbu+SNjioTvi3vtBPEq4ad7p9LNbelKfmL/CnzvO008/nRYvXvzFeIKaF271btmyhYRBymXl9/s+ffqAPYQfa0/zGFCvwIp7wCV5F3ONfynJ/JprrqGGhgL32bea6dDuudS++hbK1PUvea9Apu471L76Vjq0ex7ZVguJB8ucfPLJgQqRl0vOuMRGMf1cunQp9evXL1DmgwcPpo0bNyL5a578i4kbfNfMPRCK5Vd98xwCu5Rr/IsxAbfddhuJywldsbBSlN7/AR3a/By1r5tAmZVXUvbd8yhTdyZla0/v+N/x/t3zqH3FlR3fObT5eUrvX062dfxd14QgxePxQAVJsPjJT35CYre3qzEamrjFCZJBG64xY8bQvn37Is05yjGGsfMyCuoVWHEPdA5Yr9f4y0yAuJGOOAlMNYOdO3cG/rAZweK8886jDRs2KB9v2LxFHE2dOjVwkyVuyoSHNQUrAOIcIMG5pqaGxD0VxH/xfuLEib7cHju/flkOiXq53/zDzg2K5Vd982EDd9ueX9f4F1qgYtf4iy++qI0YhiVS4jkJM2bM0GbcbuOh1O/t37+frrrqqkDFX1x+KQ5RldpH/E5uGkQ+GDt2bJe3ZxZrety4cSVdAeOm/kK5BJ8feU6JF/6q1oB6BVbcA1Xgu2rX72v88xeocK3iQS9d9UFV2WuvvRb4Neliz4fYIjZ9a3X9+vWUSCQCFX9x+AY3YJILuJf1JMR51KhRrudRfNfNMxacPhVbf34+wd9/elCZYFEsf2ceVLwqll/1zauA3lWbQV7jL4KzoqLimEevdtUXVWUrVqwI/BG0goXYMjb10cLz58+n8vJy16JRShIfMmQILrUM4XwRseVf7PyMHz/etcEvpf5i+xO17xfDX1WeFe2qV2DFPVAJP7/tMK7xF1uF+e3q+Pfu3bvpe9/7XtGJr9hEY+KjhcXVFWJ3ZLEsivn+9ddfX/iqkRBEUceYDaJPIieU8lRGMf+rV6+WrvVS6y8mVqL4Xbf8g4iZYupULL/qmy8GVpDfDfsa/yDH4lfd4rwAcZJiKQmwmKQjDomY8GhhsdtXXNFRzNiL/a5z+ETcRdCveUY9hQ8hiBP+ip0j5/uTJk2SzpGX+p128HrsIQCHhxv+qmNfvQIr7oHqCRDtK73Gn8HW2qxZsygWi5WcCJ0F2dWr82hhYTp0iIli+yD2mIinInY1Rq9lwii99dZbLPkUy1OX74sz/Eudt0GDBknnykv9pfYrKr9zw191nCmWX/XNq54Ara7x19gMrFu3ruNyp6CTB8dHC4vduGeffXbJQuGGqXja4gcffCAVFNXrybT2helyMz+dfUf8VsbDS/2dtYnP/rQ3wA1/2fwEXa5egRX3IGjAheoXW5p33XVXyYtbttB0uca/0PhL+VzcyOe6664LjJnD1MujhVNWK328dyUt3vAyvb7iQXqm7kZ6ZMFomjpnOE2aOZgmzRrc8V58JsrEd8R3xW/Eb4vlIq7mEJc2On0P4nXkyJG0Y8eOovtW7Fjw/eMPBXgRaBEXMqZe6g8i1kyq0w1/2fwEXa5YftU3HzTgzuoXl9386Ec/CixpixNQdLrGvzMGpX4mjj1PmzYt8JPcinm0cGuqhVZuW0AvLRtPU2YPpbtnVJf0X/z2pWV304fbFpKosytGDoegz4+4/fbbi7qkrKs+o+x4gZcx8bKL3s0uaC/1myTWQYzFDX/Z/Addrl6BFfcgaMD59Uf5Gv98Fl7+Fg/56du3b2AmykkIXT1a+EDzHpq95mm6b+6IkgS/K6Mg6pyz5hlqaN57nBFobGykm266KdCxCxMpjJaXOcJvixf8fGbiDn9OLBb7OnnyZOn8eam/2P5E7ftu+OfPd9h/K5Zf9c2HCRzX+HtPiLnztXnzZho2bFjJCdJtQrrggguOud69qaWBZtY/RVNmn++78OebAtHGrNW/pKbWgx3JfOvWrTR8+PBAxyx2C8+ePVsqHrlzgff+xrbDs76+vqS9XW4vQyu1frdrJ6rfc8vfmWdVr+oVWHEPwgKPa/yDSZBiazjoS99EEnMeLSx2zz80/9LAhT/fCDw0fxTNWPoi9e/fP1DxHzBgAK1Zswbir9EJseL2vsUKqbi8z21uK6X+YvsTte8Xw9/tPAXxPcXyq775IKDm14lr/IMR/1zOQT9auPvJJ9GoO+KhC3++EfjexDj16NmtaEFwk4Avv/xy2rv3+EMOuZzxPvhYzmcs7u9w2WWXuZ7z0aNHU0tL1+eQ5LZRbP1uYinK3ymWf+5chP1evQIr7kHQwHGNf3gJM6hHC/fu051+8vRZysXfMQMJpBhUAAAgAElEQVQ//uWZ1Pu0Hq4FwU0yFuc6FCMaQa8b1H/suhEiLW4vK3YtF5pPUSa2PEuZRzf1F2oXn//pYUCl8lcV74rlV33zQYLHNf7HJrEgWTt1i2Pk4rI1v5JSrKIH3fLrc7QRf8cE3PriOXRq5cmexylEY/r06a53Fzuc8Rp+bAvm4va+4g5z4gxzca6G+C/eixPO3Nz6VzZv+fX7tY5Mrcdv/rL58btcvQKH3AOqqvqL9MAzKq1Exe2pRHy6fdMPyLp8BFkjqsk69ztknXvmkfeXj6COsp/eQ/bLvyZ75XKyXd4lDtf4q0mOzuIQ/MXT/rwmnVPPOJn+/dUq7cTfMQH/9uoAKvdgAvr06UPiagqHG17Vxi34g3/YMRCy/Kppji7p9eV0dXxkKhF/00rEW61EnEr6f0EV2Xf/G9kL55Hd0txp4sQ1/vosYi+PFu7dpwfd8qJ+W/6O+Duvt700gERfizU7gwcPpo0bN3Yaw2EnIbSnz5rBXERrLtQockitpob0+XqqJj7VSsQbShL8rozChTVkPfME2Xv3fJFEcY2/founlEcLixP+dDrm74h9odcf/+JM6tbjJNcmYMyYMbRv374v4hZJX7+4xZxgTsKIgZCkONxm9ldV/ZWViD9oJeKW78KfbwqGDiDrl4/RJ2vXUHV1teskXOwWW0VFBe7FXuKlWcU+WnjU2Aptd/sXMgGX3tHPVeyJk5RSqRTEv8RYCiMpow2If1gxEK4yh9CanYhfaCXiOwIX/jwjsKW6kq4pO8VVEi5W/M855xxav349kraHpC3OC3DzaOFzLixjJ/6OKThrWOEHx4hbG4srUsJKLGgHIoYY0D8GQpDkcJqgqqqvWonKx8MW/vz2Xq0sp17d3O+OlZmBESNG0K5du5C4PYh/biLq6tHC4vp6Dsf9HcHPf731N+dQj1OOv0dAPB6nZcuWIYZ8iqHceMJ7/UUOc1R4jsJR54BbSVdVfstKxFfli7Gqvz8463Sq7FH4el2Z6Dvl11xzDTU0NCBx+5y4Cz1aeORNp7Pd+nfMwIU3nn7MXqghQ4YccxtjJMPCyRBswCZqMRCwNAdffXN13252Iv6JKrEv1O6mAX1p4MmlmwBxe1ux2zpqARnWePMfLXxKWXca+9uB7A3A2Deq6JSyI3sBrr/+ehhIn81jWPGJdmBGwoiB4BU6wBZaB/c9xaqO7y8kwqo/31HVj6qKNAEnnXRSx7HqMCY/6m04j9QVN8MZeSP/rf8v9gLccHrHfRDE+KI+xxg/hBQxUDgGApTnYKtOV/f/BysR36pa5GXtb67qR/17HH9c1tnNn/vao0cPeuWVV5C0Q95qmztvDt35Gv+tf8cATJ4xlFpT7u8FjwRZOEGCDdiYHAPBqnRAtR854U+fY/4yE/D+WX2o50lH7hedK/i578UtJefOnQvxD1n8xeJeuW0++13/jvg7r6u2L0IsKYglk8UCYzPPDAUk0cFWm0pUPCMTXd3Kn6uIHXNyVq744xp/tQvrpWXjjTMAL783EQYABgAxgBjoMgaCVeoAahe39NVN3N325+rePY8zAbjGX634p6xWmjJ7qHEG4N45wyhl4YY/2GpVu77AX2/+AUh0cFXSsL5f43Dcv5Ah+HhAP+qdc48AXOOvfnFs2rPCOPF3DgN8sndVl+4fyVl9/GEOMAcqYyA4tQ6g5qO39y3tQT55d+4rJNJBf/6zvmUdewFwjb8eC3/xhpeNNQCL178MA4BdwIgBxEDBGAhApoOpsjUR/192Ip4KWqCDrn//wAq6+6YbcY2/Jovy9RUPGGsA3ljxUMGFr3KrA23rYX4xD5iHYNQ6gFpTifh9QYtzaPVPfxKJWRMD8EzdDcYagGeX3ow40yTOILYQWx1jIACp9r9KuqTXlwN5pK+qwwIjB5Hd0ozkrEFyfnjBaGMNwCMLRiPGNIgxHRM/+gRDImLAf7UOoMZUTcVFoW2dh2QK7EXzkZw1SM5T5ww31gDcN/dCxJgGMQaxhdjqGgMByLX/VaYS8TeNMwCT7kBy1iA5T5o12FgDMHnWuYgxDWJM1+SPfsGY+K/WPtdIVVV/YSXiLaYZAGt4NdkpXKetOgnBACAJqo5BtI8YVBUDPsu1/9WlayrPME78jx5msOtXYgtN8RYaDgEg+apKvmgXsac6BvxXbJ9rtBIVt5tqAKxXXoABUGwAcBIgkrDqJIz2EYOqYsBnufa/OisRf85YA/DQFBgAxQYAlwEi+apKvmgXsac6BvxXbJ9rtBPxOlMNgH3zdTAAig3A6yseNPYkwN+uDP9GQKtWraIJEyZQTU0NiSdciv/i/cSJE6m+vh7xrjjeVQsO2tfL9Pgs1/5Xx/ne/1LjcvkIJETFCXHReoNvBbzhldDiq6mpicaOHUvdunU77oFXzpMvu3fvTuPGjaPmZtwDA0KolxBGdT78V2yfa7QS8YNSIQ3p2n3f+yFuCKRYAKPe/sd7Vxq7B2Dzp+FscQvxHzVqVEHhdwyA8yq+CxMAAYx67tFh/D7Ltf/VWYl4u+/Cq4thOO8sGADFBgiPA/YuRGLL3xF3t6/jx49H7CuOfR0ECH3wvv68MPRfsX2uEQZAbYB4CS4uv31p2d3G7QV4+f1JoQisOObf1W7/QoZAHA5YvXp1KH3kEofoJ3Jd2DHgs1z7Xx0OAWBRBL0oVm5bYJwBWLV9cSjiKk74KyTyss8nTQrHpAQdP6gfOYprDPiv2D7XiJMAsbiCXlytqRa6b+4IY0zA/XNHUqvVEooBEGf4y4S+UPmgQTgHJujYRv3In13FgM9y7X91uAwQAdxVAPtVNmfNM8YYgLlrp4ci/oK9uMyvkMDLPhe/9Wv+UA/yBGKg+BjwX7F9rjGViE839iTAh+9FAtTkRKiG5k9pypyh7E3AlNnnU0Pz3tDiSibysnIk7eKTNpiBmV8x4LNc+1+dlYjfZqwBeOXF0BK1XwFjcj2zVv+SvQGYs+bZUGNKJvCycpPjCWODUOseA/4rts81pgeeUWmqAbDrPww1WesejKr719zaSJyfDfDQ/FHU1How1JiSCbysXPWco32IdJRjwGe59r86PA4YCzTMBfrhtoVs9wLU70iGKv5iXmQCLysPc27RFnIJYuDYGPBfsQOo0a6u/K1pewHsSXeGnqwR/McGfyEev135MDsT8PsPf64knmQCLysvNAf43F2sghM4eYmBAOTa/yrT1fGRxhmAxfOVJGwvwRKV37akmuiJ5A/YmICnkj+klpSa++vLBF5WHpWYwjgh1DrGgP9qHUCNdEmvL1uJeIMxJmDkYLJbwrlOW8eg49CnfY07WZwP8MiC0bSvaacyMykTeFk5h1hAHyHepsZAAHIdTJWp6sp7jTEAzz2lLGGbGshBjGvngU10/7yR2u4JEH3bcWCT0liSCbysPIh5Q50QbMSAuxgIRq0DqLU1Ef9fdiKeYm8Chg4ge+8epUkbi8Pd4hCcdjdspkcXfl87EyCuVhAGRfVcygReVq66/1zaT6f206Edv6P2deMp88Eoyiw9m7K1fSibjHn7X9unoy5RZ/u6u+nQjt9TOnVAeVxxmRfu/QxAqoOr0kpU3M/eADz7JBaXJjf/cbt4xeGAJ5PXamMCxDF/lbv9c7nJBF5WnlsX3ndiTA+up/a14yi7pMKb0BdjFJZUUPva8WQf3IBcxSxXFbuGglPrAGqmYX2/xvrZAJcNI/tgAxYVw0UlTrJ7a9Vjyk3AGyseUnbCX2fJRSbwsvLO6sRnNtmpRmpb/wBla08LT/jzTUJtH2rb8GBHXzAnnZgzhnksfx4DkOlgq7RrKkdw3Qtg1y6E+DNfNOIpew/Pvyx0IyBO9lNxnX9+wsj/WybwsvL8+vC33bHlnXlvhDrhzzMCmeWjKd28HbmLee7qbG0Fq9YB1Z6qif+Smwmwf/4gFpAhC0jcMXD2mqdDeXbAlNlDSdzeV7TZ2QJW/ZlM4GXlqvuvW/vpAx8eOb6fJ8Kej/V7rC/zToLSDfVaxqBuc8ipPwFJdLDVUlXVV61EfCUbE/DDK8hubsLiMcQAOAtcPEBIiPN9cy/0fY+AeKSveKrfwZZ9WseNTOBl5Q5LvB7d8hcn93kU66B+32ECmndoHY+Io+IOVQSr1AHWbg8685sszge4fATZu7BoTF6YrakWWrV9Eb383kS6d86wks3A1DnD6eX3J5E4zNBq8bhPhEzgZeUmx0VRY0s1Uub9i7QVf8dUZD64BOcEGLQhE6BEB19168B+Pa1EfJ+2ewIuGkzWJpxJW1QiZL64UlaKPtm7ihavf5nECXvPLr2ZHllwOQlxnzRrcMd/8V589mzdTR3fWbzhlY7fiN9yYyUTeFk5t/EG1d+OE/403fJ3xN95bdv0GLs4DWreuNcbvEoH3EJbot9Jdk38Y+1MwOXDyYb4I1EwNzSyBCcTeFm5rP5IlB9cr/Zs/2KNR10lpXEowIjcFrA8h1P9kcMBFSu0MQHimD92+xuxQCIhQB5MikzgZeXgax+5zr9YEVb8/faPJmF9e1g3usR9OAodQis0pPtXrETl48pNwENTcMKfAQtDlwWqez9kAi8r1318QfdP3OEv1Jv8+GUc6uK4Y6ABeS4EaQ63Cbu6YpiViG8L3QiIk/1wnT+2CgxICsWInkzgZeXFtGXid8XtfZ1j69xeD+38PdY78/UerjqH1Jq4Y2CqJj41lGcHXDCALHF730Y9r9M2MWliTMVd6hMkL5nAy8qD7BuHusW9/bkJv9Pf9nUTYABgAEJS9RKaEQ8QSiUqp1iJ+AHf9wiMHEyWeKrfvk+xCJgvAg5CoWsfZQIvK9d1XGH1SzyExxFUbq/iDoFhcUI7wZj+EmSV30/okl5ftgeeMdyuib9mJeJNJZuBEdVkT7qT7MXzyW7hcZ02Fk4wCwdcj3CVCbysPOocM0vP4msAlp4DA8B844efmnvsMV1yyZ/biYoKqyZ+aypR8Yx983Vkfe9CskYkyDr3zCP/xXvx2c3XkvXQFLJeeZHs+pVkp/hdpx31BIvxB2uAZAIvK4/6/GRrT2drALJL+sIAwAB4VGTFP496AsL4gxVI0/nKBF5Wbjof2fi47fbP769sfCjXO78oll/1zSNA9Q5QzI/e8yMTeFl51Oc3X1C5/R31+eM+fvUKrLgH3CcQ/ddbIE2fH5nAy8pN5yMbHzfBz++vbHwo1zs/KZZf9c0jQPUOUMyP3vMjE3hZedTnN19Quf0d9fnjPn71Cqy4B9wnEP3XWyBNnx+ZwMvKTecjGx83wc/vr2x8KNc7PymWX/XNI0D1DlDMj97zIxN4WXnU5zdfULn9HfX54z5+9QqsuAfcJxD911sgTZ8fmcDLyk3nIxsfN8HP769sfCjXOz8pll/1zSNA9Q5QzI/e8yMTeFl51Oc3X1C5/R31+eM+fvUKrLgH3CfQXf9TlG78hNKfvkOHds6kQ1t+TW0bH6X2tWOp/cPrKPPBJZR5byRl3z2PMu8OpkzddyhT17/jBiV3z6imKXOG0tQ5w+m+uSPokQWX088WXkFPL/kJvfjuWPqv5ffRjPonaNH6l+iDLXNo054VtL9pN24QwvwGIe7iyiaZwMvK3bYj/V7DAbJmv03WT+8h60djyBK36j73O1TyXT8T8SO/FXWIukSdP51C1pwZZDc0+Bbf3AQ/v7/SeYnIOuDKQbH8qm+e68R12m8rRfbBDXRo12xq++QX1Lb63yjz/ncpu6RfyXcbEwaglP/3zB5Cjy26iv7jvQn0h3XP04fbFtLuhs1k2ZZvybNTBkg4ofKVCbys3OscWps2kPXAJLLOP8e72DuiL3sVbT04mayPN3pmnS+o3P72On/4vdo9fOoVWHEPWAdga0PHVn3b5qepfdX1HVvufieQUsS/q99MmT2Unq27measeZbW7KyjxtYDnpMo6zlkblhkAi8rL3nuGhvJeuIRsgb3D0/4842B2Dvw5KNkNzWVHMN+r9ew6yt5/pjHvSnjViy/6ptnNZGpRjq0ZwG1r7+XMu9fTNnaU0vesnebKLoScz/KJsxM0LTF/0pv10+jtTuXUkuq9GTKai4NSYAygZeVlzJnYsvbunqUOuHPNwI/vorsXTtKMgFu16Gu3ytl/vAbtVv9ufzVK7DiHuTC0PF9umU3te14g9pX30KZJWcELvj5icYPkS+mDnHo4IV37qQlG1+jTxu3l5RUdZxHU/skE3hZedFc1qw6ckw+X4RV/z1qKNnr1hQdr/nrjdvfRc+fIcbXlHErll/1zes4kemmbdS2+RnKfHApZZPloYt+bhIqRrz9/q7YO/B03Q2U3PAq7WvcWXRy1XFuTeuTTOBl5cXw6NjyFyfkqRb7Qu0LE7CruDjNXWsc3xczf/iuPlv+zlyoV2DFPXBAKH8Vu/d3vt1xLD9be5pS0c9NRH6Leqn1TZxZ03HuwHubZ1JzayPMgCZbUjKBl5W7XndNTWT9YLS+4u+Ygh9+n+xG9/GZu9Y4vnc9f5rEK/p7rAlRLL/qm1cdEOl971P7urspUxf+7n03CadUwQ7yd/fOvoDeWPEQbfm0+F2uqufbtPZlAi8rd8uj44Q/R2R1f53+pGuD6mYN6vwdt/OH7x0rvLrwUK/AinugZiJSdGj3PGpf+a/abOkXSjJBCrkfdf9yyY9pxdY/UEpcAomtjNAZyAReVu5mzjou9VN5tn+RhsO+YIDrQwGF1h2Xz93MH76jp/iLeVEsv+qbDzU4Ww/QoW0vU2bZUO2F30lAfoh0GHU8smB0x7kCTa0HQxfBUGNIM5MjE3hZuRt2Hdf5FynCqs8TsB+5z1UcOuuM66ub+cN3YADUK32BHoQRnOnWvdS28RFtd/N3lXzCEG8/2xB3LJy39nlqavXvbm1hxAjXNmQCLyuXjlvc4S/Mm/z4ZTSGDnB1x8Cu1h6HMun8aWZY0d9jzUgBWYzOx4EGRGsDiZv0OLfV5bCg8/vopziHWZcwAnPXTocRCDgBywReVi5bfx239/VLlMOuZ+4M6V6A/PXG7W/Z/KH8WMHVjUd0lL7ASAOZEKvlyK7+Pw5ks6u/UOIJU7SDaOv+eSM7Dg20Wi3SZBxILAQswKr7LBN4Wbms/x339g9buP1q76Ep0pgrtO64fC6bP5TDABSQXj0+9jdALWrb+buOB+pwWcCyfgYhyirq/NnC79PyrfOkCdnfeNB78fsxVpnAy8plfeh4CI9fghx2PeIOgRIDKFt/upfLxodyvXOAHiqssBe+BejB9dS+8gfst/jzE44KsQ6yzelLb6Vt+z+SJmbf4kIiANzbkQm8rFw2fmvkIP2v/S9kLC4aLI2z/PXG7W/Z/KEcBkChvMub9hygqYPUtulxyi7pa5z4i2QUpBirqnvizEE0s/4p3FDIB3MiE3hZuWz9WeeeydcAnHcWDIAPMSaLEZSXbjLkCmn4N7wEz6FdMynzTo2Rwu9siagS6TDafWTB5bRu1zvSJO0lRkz/rUzgZeUyPqov5/Pavmx8zjrj+iobH8pLF+cw2Bku7/LhlQI53bqf2tb8u9HC7ySkMIRYZRsTZiTojRU/xWOJS9xSkwm8rFy2/rwKsOrfy8bnrDOur7LxoRwGQK7CCr9RbIAe2ltLmXcSkRB/kZRUinOYbT80fxSt3/0e9gYUaQRkAi8rl60/1QLutX3Z+LgKv9Nv2fhQDgOgUN7lTbsO0FQjtW14iLLJUyMj/lEyAMJsiKcPvrXqMWpN4ZJBt+tCJvCyclk7XgVY9e9l43OElOurbHwohwGQq7DCb7gJ0HTDasq8NyJSwu8kpDC3wnVp6xe119Puhs3YG+Bib4BM4GXlsvWnWsC9ti8bn7POuL7KxodyGACF8i5vWhagh3b+nrJ18UiKv0hKuohy2P2YMnsofbhtIUyAxATIBF5WLlt/XgVY9e9l4+Mq/E6/ZeNDOQyAXIUVfqNggFqpo7v8yyMr/lE2AMJwiBMExeWClmXBCBQwAjKBl5UXXH9H21Mt4F7bl43PEVKur7LxoRwGQKG8y5vuLEDFw3vaV14TaeF3ElLYW946tvfCu3fiKgEYgJLuR9BZfsn9zFlnXF9zx4L3eot9Z/MjV0jDv5EPJX1gFWXfPRfin4x1MNBRkFX06bFFV9Keg1uxJyDPCMi28GXl+esv/2+vW+Cqf58/nvy/uQq/0+/88ZT6t3h65/ubZ9PrKx6kp2p/SPfPHUmTZg72fAhS1CHqEnWKy30/2DIHDwjLWcOGy7t8eLkBe+jTJZRZcgbE/6j4i0WuQmx1bfOBeRfTJ3tXwQTkJBCZwMvKc9dfZ+9VC7jX9jsbU+5njpByfc0dSynvdxzYRK8tf4DumT0ktFwj2np9xQO088DHkV/LcoU0/BtO0B7aNZuyS/pB/HPEHwag+rikNGX2+bRq+6LIJw5n3cgEXlbu1FPo1asAq/59oXE5n3MVfqffzjiKfW1ubaS3V00jcVtuVYZf7B2YUf8ktaSaIrueDZd3+fBE4B7a+pvIXd/vLGDZq6rFqXO7E2fW0LJP3o5s0shN9jKBl5Xn1tXZe9UC7rX9zsaU+5ls/elenjsWt+/Flvfji65WJvz5ueWXS35M+5p2RnI9yxXS8G+0bX4aW/15W/25SSd/seDvI3sFxBUCize8EsmkkZvoZQIvK8+tq7P3XgVY9e87G1PuZ7lrjeP73LG4eb/l0zUdx+R1yyM//cOltHXfusitZ8PlvfDwiE74s2yy/HGOiy7MPuu2UHXrz7y1z0cuaeQmepnAy8pz6+rsvWoB99p+Z2PK/SzMtRxEW7ljkb0XW/7ihDzd1rDTH2EC9jftitR6LqyQhpdkF8ceDGJBmFanszjwevz5AA6TuWunRypp5CZ6mcDLynPr6uy9VwFW/fvOxpT7Gfd8kTuWrt6L4+zTFl+jrfg7a/nJ5HWReky44TLf+fCyi8umcl94YfXfWRh4LWwABJsFH70YSRMgE3hZeVeiIcpUC7jX9mXjC2sdB9WObHxOuTjhj0sOmbv22cis5c4V0uBPs4tjdwe1GEysl8ui1aGfi9a/HJnE4SR2mcDLyp16Cr16FWDVvy80Ludz7jnDGUdXr+JSP5Vn+xebG6bMGRqZQwEGS/3xQ8ssLr+F+4ILu//FLp4of1+cGPjHj9+MlAmQCbysvCvhEGWqBdxr+7Lxhb2e/W5PNj5RLq7z55YX3lz5SCTW8fEqaegnmWTs6mwy9rnfC8D0+rgtXNX9FZcIrtq+OBLJQyR3mcDLymUC4lWAVf9eNj7u+UM2PnGHvzBv8uPX+hf3+xB9l42Pe7mhcn/ssLLJ8rOzyVgb98Wmov9+Lago1SMS3sd7VxqfPETykwm8rFyWQFULuNf2ZeNTsab9bFM2PnF7X65r/4Mtc41fw8cqpYF/tdXFTsomY/v9DPoo1cV18aru94PzvhuJZwfIBF5WLhMQrwKs+vey8XHPJbLxiXv7q16Lpbb/xoqHYAA4ewJ6p9ffZ5OxjdwXmcr+l7p48LtqemzRVcY/RVAm8LJymYCoFnCv7cvGp3Jt+9G2bHziITxcc4G4Q6BsfNzLOet7l32n5X2/lK2NLfAjyKNcB9fFq0u/xaOELcsyNpHIBF5WLkugXgVY9e9l4+OeW2Tju2/uhWwNwP3zRhq7bp1561JEORceri3/JffFpUP/dRFSzv34wzpz7xYoE3hZuZOICr2qFnCv7Rcal/O5DmvcSx+ccRR6nTTL+yN9Va39ybPOhQHgaAIOJ2OXeAlq/Db2xfMRVC0+k9qdMDNBq3fUGplMZAIvKy8kHM7nXgVY9e+dcRR65Z5rCo3L+Zz7OnbGYeorR33vss9tC8u6ZZOxZu4LS5f+c1/AuvR/6pzhtLthi3EmQCbwsnJZYlUt4F7bl41Pl3Veaj9k49Nl/ZXaD9n4uJd3KabcCjuO+ydj75YazPjdn7b8HRalLhz87vhbB4sTolqtFqNMgEzgZeWyBOpVgFX/XjY+Z51xfZWNj3sekI2Pezk3je+yv9nFZY9xXUi69pv7Atat/6Y9OEgm8LJyWQJVLeBe25eNT9d177ZfsvHptv6K7Y9sfNzLuxRUToWHa8uH405/x2/Bu13Ihb5X7ILB94/f8s9lIs4HWL9rmTF7AWQCLyuXJVCvAqz697LxFVp3XD6XjS839jm+l42PezknjS/YV5rf92+yydhuLouGUz85Llrd+/zwgtHG3B9AJvCyclkCVS3gXtuXjY9TLuisr7Lx6b4WZf2TjY97eUFR5VRwOBn7VWfBic+87xGQLRCUd73FX4jPb1eacZcxmcDLymUJ1KsAq/69bHzcc5RsfIXin8vnsvFxL+ek8532NZvsPRC7/r0LfaFExGWhcuuneHLgR7veZX8oQCbwsnJZAlUt4F7bl42v0Lrj8rlsfNzWZX5/ZePjXt6pqHL5kJb3/drhZOwTLouFYz/zFwT+Lm2LvzNuP194BbWkmlibAJnAy8plCdSrAKv+vWx8HHNCbp9l4+ss7jl9Jhsf93IuWt9pP7PJ2KO5wYj3/u8J4LRYOfZ19pqnYQBsuyAD1QLutX2ZQHDPWbLxcVyTuX2WjY97eafCyuHDzJLy07PJ2GHuC0j3/ucuBrz3b+vfYTlp5mDacWBjQQHUPcHItvBl5bLxeRVg1b+XjU/39S/rn2x8TpxzfZWNj3s5B63vtI940I//W/udLXauC5dTv5/7420wAAX2AqgWcK/tywSiszXH6TPZ+Ditw876Khsf9/JOxVX3Dw8vio3gtEg497WzRYHP/N8TsHrHEpYmQLaFLyuXJVCvAqz697Lxcc4Nou+y8XHPFbLxcS/XXeuP6x8trvqLbDK2jvvC4dJ/7guYS/9/vnAMy9sEywReVi5LoKoF3Gv7svFxyQOF+ikbH5f1V6ifsvFxLz9OYHX/IJMsu7FQMOJz/w8LFFoY+Nz/vQC1G/9TukWlW8KRCbysXFQ2eCwAAB1oSURBVDYerwKs+vey8XHPWbLxcc8TsvFxL9dd74/pHy0+7W+zybID3BcNp/5zX8Cc+v/AvIupubWRlQmQCbysXJZAVQu41/Zl4+OUCzrrq2x8nNZfZ32VjY97+TECq/sf2WTZfZ0FIT7zf8vfYdrZosBn/m/9O0wXrX8JBiDnhECvAqz69zKBcNYZ11fZ+Jy45voqGx/3ct01/4v+0bLu/zObjDVxXShc+8114XLt931zR1BTawMbEyDbwpeVyxKoagH32r5sfFzzgtNv2fi4rkOn37LxcS//QmB1f5OtLR/vBB1eg9viz2frLAS8BrfVn8/2D+t+BQNwdC+AVwFW/XuZQOSvN25/y8aXH9vc/paNj3u57rrf0T9a/C9fzSZje7ktDhP6y23BmtDfqXOGU1PrQRYmQLaFLyuXJVDVAu61fdn4uOcI2fi4r0fZ+LiXszAAOPM/vC3+/ITEfQFz7f+Sja/BANg2eRVg1b+XCUT+euP2t2x8XNef02/Z+LiXa28AaHnfL2WS5du4LQxT+ussBLyGdwhAsH5kwWhKWSntTYBsC19WLkugqgXca/uy8XHPE7Lxcc8bsvFxL9feABxOll3BfZFw7j/3Bcy5/yu2/gEGIBFnvRdAJhCcc4Pou2x8nNef6LtsfNzLtTcA2WTsj9wXCef+c1/AnPv/dN0N2icg2Ra+rFyWQL1ugav+vWx8nHMDDEDhp1jK5l2Xcq0NQHtt2be5LxDu/ecsoCb0feu+tVqbAJnAy8pliVC1gHttXzY+7vlBNj7ua1A2Pu7lWhuAbLL8ce4LhHv/uS9g7v1/a9VjMACMDwPIBIJ7fpCNj/v6k42Pe7m2BoDe6f+X2WTsIPcFwr3/3Bcw9/7fO2eY1rcHlm3hy8plCdTrFrjq38vGxz0/yMbHff3Jxse9XFsDcLi2fAz3xWFC/7kvYBP6/8GW2druBZAJvKxclkBVC7jX9mXj454jZOPjvv5k4+Nerq0ByCZjS7gvDhP6z30Bm9D/6UtvhQFgehhAJhDcc4RsfNzXn2x83Mu1NAC0uPxb2WTsc+6Lw4T+c1/AJvR/4swa2t+0W0sTINvCl5XLEqjXLXDVv5eNj3uOkI2P+/qTjY97uZYGIFNbfjP3hWFK/7kvYFP6X6fpnQFlAi8rlyVQ1QLutX3Z+LjnCdn4uK8/2fi4l2tpALLJWC33hWFK/7kvYFP6/2zdTdgDwPAwgEwguOcJ2fi4rz/Z+LiXa2cA6I/l/yebjB3mvjBM6T/3BWxK/yfMTNCnjTu0MwGyLXxZuSyBet0CV/172fi45wnZ+LivP9n4uJdrZwAyydh13BeFSf3nvoBN6n/dptdhAJjtBZAJBPdcIRsf9/UnGx/3cu0MQLa2bC73RWFS/7kvYJP6/+K7d8EAwACQTvlFJoDc159sfNzLtTIANK/8f2STsXadAjzqfeG+gE3q/5TZ51NLqlkrEyDbxS8rlyVQ1bvwvbYvGx/3/CIbH/f1Jxsf93KtDEC2tmww9wVhWv+5L2DT+v/RrndgABjtBZAJBPd8IRsf9/UnGx/3cs0MQOwB7gvCtP5zX8Cm9X9G/RMwADAA2hwGkAkg9/UnGx/3cr0MQLLsPdMElPt4uC9g0/r/RPIHMAAwADAAM6opjLXNXeBl/dfGANDSnn+dTcay3AXTtP6HscjQhvtkJu4K2Nh6QBsTIDvGLyuXJSivx+BV/142Pu75QjY+7mtbNj7u5doYgMOLyy7gvhhM7D/3BWxi/9ft/CMMAJO9ADKB4J4zZOPjvv5k4+Nero0ByNaWP8x9MZjYf+4L2MT+z107HQYABkCLwwAyAeS+/mTj416ujwFIxhabKKDcx8R9AZvYf52eDijbxS8rlyVQ1bvwvbYvGx/3/CAbH/f1Jxsf93KdDEAj98VgYv+5L2AT+3/v7AvIsi0t9gLIBF5WLkugXgVY9e9l4+OeM2Tj477+ZOPjXq6FAaCF3/5n7gvB1P5zX8Cm9n9PwxYYAAaHAWQCwT1vyMbHff3Jxse9XAsDcHhRbAT3hWBq/7kvYFP7v2r7IhgAGADl5wHIBJD7+pONj3u5FgYgW1s2yVQB5T4u7gvY1P7/Yd2vYABgAGAAAr4fAHeBl/VfDwOQjL3JXShN7b+pAsp9XC+/PwkGAAYABgAGwFMe0MUAfGSqgHIfF3ehNLX/jy+62tPCl20ZuC2XneQnK5e1o/okPq/ty8bHPT/Ixsd9/cnGx71cFwNgcV8Ipvaf+wI2tf9T5gyFAcAeAOwBwB4AT3lAuQGgJX2+bqp4mjAuUwXUhHE1NO/1tPj92HqRbeHLymV98LoFrvr3svFxzxGy8XFfZ7LxcS9XbgAyi8v6cV8EJvef+wI2uf+f7F0FA6D5XgCZQHDPHbLxcV9/svFxL1duAA4vKr+Y+yIwuf/cF7DJ/V++ZS4MAAyA0sMAMgHkvv5k4+NertwAZJOx20wWUO5j476ATe7/ovX/AQMAAwADEOB5ANwFXtZ/9QZgcdlj3EXS5P6bLKDcxzaz/ikYABgAGAAYgJLzgHIDkEnGXjJZQLmPjbtImtz/11c8UPLCl20ZuC2XneQnK5e1o/okPq/ty8bHPT/Ixsd9/cnGx71cuQHIJsve5r4ITO4/9wVscv9/s2yccgNw8sknk0zkuyo/cOBAl2PwKsCqfy8TCO65QzY+7utPNj7u5eoNQG0syX0RmNx/7gvY5P4/XXdDl+IZRnLq06ePJwOwevXqLsegWsC9ti+bA+65QzY+7utPNj7u5eoNQLL8Q+6LwOT+c1/AJvf/5wvHdCmeYSSnAQMGeDIATz/9dJdj8CrAqn8vmwPuuUM2Pu7rTzY+7uXKDcDhZGwz90Vgcv+5L2CT+//w/Mu6FM8wktMVV1zhyQAMGjSIWltbC45DtYB7bV82B9xzh2x83NefbHzcy5UbgGwy1sB9EZjcf+4L2OT+PzDv4oLCGVZimjRpkicDIM4PeO655wqOw6sAq/69bB645w7Z+LivP9n4uJfrYADS3BeByf3nvoBN7v/UOcMLCmdYiemNN97wbADEiYSLFi3qdCyqBdxr+7J54J47ZOPjvv5k4+NeDgOQjCm9jlb3BMB9AZvc/3tmD+lUNMNMSjt37qSTTjrJFxMwffr04w4HeBVg1b+XzYXu61/WP9n4uK8/2fi4l+tgAGxZkKFcnUnhvoBN7v/EmTXKDYBIgCNGjPBsAJxLBWtqaugXv/gF1dfXk7hEULWAe21fJhDcc5tsfNzXn2x83Mt1MAB4FLCGeyEyS4dT+oHR7BOw1wSu9e8HnaGFAXj++ed9MwCOEcDriWB6In8GvXv3JmFqJ06c2GFqdTMMOhiAVu4u2KT+Z+oG06GnxpA1qBLir/ltZq3zz9bCAOzZs4dEooNo8xcszGFwc9i9e3caN24cNTc3a7FuhRnRwQC0mCSgXMeSWVpF6ReuIuu8/hB+3YXf6d8FVdokksmTJ8MAGLDFCgMQnAFw2I4aNUobE6CDAWjiKpom9DtT9x069Nq/kjX8bAi/I6xcXkcO0sYAbNu2DXsBYABgAl3GwPjx47VYuzoYgF0mCCm7MdT2o7a3ryJ71EAIPxfBz+/npedrkUSc45ri5D1nKwevwW9JgjFfxuJwgOw22M66CvJVBwOwmp14anjSnmuGtadR+7wryb7qXAh/vqBy+/vqS7UyAOKOfkOHDoUJcLkVCAHnK+B+zJ24iVaQ4u6mbvUGAA8DCuk+BOXUtuhysm8cDuHnJvQF+mvfcI3yBJKfZDZs2EBlZWUwATABiAFJDIjbYOevn7D/Vm8AkrE3XW+9ct7yVtj39iWXkD32Ygh/ASHV+lK/rvo89mblCaSzhDVr1iwSuzj92EpCHdHeSjZ5/sWVM52tnzA/U24ADi8ufw4GIJgb/WTqRlD6vssg/F2JKOeyKeOUJ5BCyeqll17y5Q6BJgsAxhZtcwMDcMIJJ2STZQ/BAPhrADJLz8W1/JyF3W3fn3hEWwMgjIEwAdgTEG2Rg8kpPP84BCAMQG3sThgAfwxAZulASv/6alzL71ZAuX/vlRe0NgDCBIjDAbFYDIcDJMeDIZSFhdJUNjgJ8IQTTjhcWzYKBsCbAcgsEdfyX41r+bkLerH9nzdLewMgTIA4MRBXB0RP4EwVbj/GhcsAj559kEn2roABKNEAdFzLfzXZl+BafrYn8hUr+rnfX/4eCwMgTIC4RFDcJwC3DIYR8ENAudcxYcIELdau8pMA6Z1efw8DUKQBqO1D7XPHkH0lruWPpPAfNQH29q1aJBEh8G7/b9++ne655x4YARwSiOxhodGjR1NLS4vrNeN2bZXyPeUGQHQgm4w1wgS4MQFHr+W/YRjO7M/dEo7i+/PPIduytEgipSSevXv3kniK4MiRI3G1AMxAJMyA2O0vtvx1EX+xbnUxAMthALo2ALiWPw7Tk2t0fjCarfjnG4Zdu3bRm2++SeKBQmPGjKGBAwdSnz59qGfPnpEQBu67s9H/wod1xCEvcba/iG0dbv2bv/Z0MQCvwQB0bgAydcMpfT+u5Y/yrv7Oxm5PusMYA5CflPC3+0MqYAVWXmJAFwNwDwzAsQYgs3QIHZp2BVmDKrHlm7vli/dH4uGZaTAARZx74CVJ4rcQWVNjQAsDcLi2fDgMwBED0HEt/wtX4Vp+CH3Xxm/+HBgAGADEAGLAUwxoYQBo4an/EHUDgGv5cYy/s139hT6zt3ziaeGbukWDcWFrHTHgPga0MACiE9lkbE8kTQCu5e96Sxd7Ao7nM7ya9RUASNDuEzRYgVWQMaCPAaiNzYyUARDX8s+5guwrBx2f4CF6YNJVDNxyHbb+sesXMYAY8BwD+hiAxeWTo2EAjl7L/5MLIHJdiRzKCsfH0497XvhBblWgbmy1IgZ4xIA2BuDw4rILTDcA7UsuI/vOiwondoge2LiIAXvJIhgAbP0hBhADnmNAGwNAi0/722wyljXRBOBafpzgV+hkvqI/rzmD7P37PC98bKHx2ELDPGGeAoyBNm0MgOhINhl71yQDkFl6Hh16agyu5XexVVu0EEa1ToPuABhgYoNBwtYxYkAeAwf0MgC1sXtNMACZpVWU/tUYss49A7u0oyrUAY3bnvYQEps8sYERGCEG5DHwsW4G4BzOBgDX8mNXf9B7MuylSSQ2eWIDIzBCDMhjYLZWBoDW9vpyNhlLsTMBSyqo7e2ryb5kILb4A9ryDVpYWdR//tlkNzYisckTGxiBEWJAEgOWZT2mlQEQnclyuh+AuJZ/3pVkXzkYwg/hDz4G7rgRSU2S1HBeAU6aQwy4i4F0Oj1KOwOQSZZfr/8egFOpbcEVZF0/NPikD2EFYycGXnsZBgAGADGAGPAjBj63LOv/amcAaEmfr+t8OWD7kkvIvvNiiJIjSngNJxbE5X87d/ix8FEHBAQxgBh4TzvxdzqUTcbm67YXIFM3gtJTR4WT7CGq4JwXA/YN1yBpI2kjBhADvsRAOp2+wdFb7V4zydi1uhiAzNIhuJY/T4xYnDBnWp9fecGXhY/jo+6Oj4ITOBkcA3Zra+v/1k74nQ5RXezvsslYu0oTkKkbSOnnx5A1GNfyQ/AVX94odv9v2wIDgK0/xABiwHMMWJb1c0drtX3NJmNzVBiATN2ZdOi1q8kadiZ2Q5u2Fc11PLf+yPOiN3hrBmwgiogB9zFgpdPpf9BW+J2OHa4tHxOqAVgcs9peueAT+7sDIPxchdLQftszf48E5z7BgRVYIQYKxIBlWWMdjdX6ld7p/5fZZOxgCCYgk3nl1CX2hRX7sKtb8a5uQwXcS1zZFwwgq6EBCa1AQsOeDRyrRwy4joF6Ivqy1sKf27lsMvZogAbgs/bflr9nXVKx00uCxm9hGgKNgZ9OgfhD/BEDiAGvMWClUqlv5+qr9u/bFpZ1yyZjn/ltAjKzy1ekr6pYH2jixtYsDqX4EAP26lVeFz5+D/FADEQ7Bj5Lp9Pf1V7wO+tgNhmb55sBmFe+Jn193w8h/Nhq5xAD9k0/QOKOduLG/GP+PcdAOp2+uTNtZfHZ4cWxC70agMyC2Ob2u05/x6qJf84h8aOPMCgdMTB3hufFj+Ojro+PgjXE1rQYELf7vZ2F0BfqJL12yZ9nkrHtJZmARbGdbZNPr7Nq4p9BVCGqrGJg1AVkt7SYlpAwHogsYiCcGEix3e2fbwYyybKbijQABw89flrSPrfiEKuk78MxY4zXEKPzyotIlOEkSnAGZ9NioL61tfWUfB1l+zct/pevZpOx3S5MgNX27GlJ6/x4C4TQECGMoikakcClfxAl00QJ4wk+pm3bticT0VfYin2hjmdry27vwgDgWv4oCqWhY7af+wWSZfDJEozB2JQYsC3LeozFHf4KCbzsc1re92vZZGxfngn4LPPbU9+zL8W1/NjjYcgej2EDyd73qSmJCeOAyCIGgomBz23bfi+dTt+o9YN9ZMJeTHm2NnanYwA6ruUf028DhM8Q4TN0a77Y+LR/9UskzGASJriCK8cYaLdt+2A6nd5g2/Yc8SCfdDo9KpVK/Z9itNOI79LiXn+VnVW+xL627+piEyu+D6PAIAYOHDjzzL82YrFiECAAAiDgNwGruvIWBokcd8HDFn0JMVDB+5pdvxc76gMBEACBXALUt++XrER8I0wAtuhNioFUIr6Zqqq+mhvreA8CIAACIJBHIF0dH2lS8sdYYGZETOeFOf4EARAAARDojIBVHU9COCGchsTAos5iHJ+BAAiAAAh0QiA1uF+ZlYhnDBGAEo4XQ/wNmfuslags7yTE8REIgAAIgEAhAlYi/lNDRAAGILonDT5UKL7xOQiAAAiAQAECNKzv16xEfAtMAPYGMI2B7furqv6qQHjjYxAAARAAga4I2In4BUyTP7b6o7vV3zH39sDK87uKbZSBAAiAAAhICFiJ+IswAdgLwCsGKl+ShDWKQQAEQAAEZAQaa/r+jZWIb+clABDsCM/Xruazzvo7WVyjHARAAARAwAUBK9GvxkrEP4+wqOCQAo9DCp9biYrzXIQ0vgICIAACIOCWgJ2oeBIGAHsWdI4Buzo+zW0843sgAAIgAAIuCdCQ7l+xEhUrdBYA9C3SBqWe+vf/S5fhjK+BAAiAAAgUQ6Clqn93KxFvgdBGWmi1OxxiJ+Kp1oH9ehYTy/guCIAACIBAkQSsmvjlMAAwAFrFQHV8dJFhjK+DAAiAAAiUQsCqqfi5VgLA4wQ17baczZjDisdKiWH8BgRAAARAoAQCdMklf24l4nPMEBBszbOdx+r4Aqqq+osSQhg/AQEQAAEQKJVAy7n9/95OxD9hKx7Ya8B9j8SW1qq+/7vU+MXvQAAEQAAEPBA4+tTAJpgA7EUINQZq4o2pRGUvD6GLn4IACIAACHglkKquOMdKxNtCFQBsvXPfevfS/3ZrUEXCa9zi9yAAAiAAAj4QSCUqRlmJ+GcwAdgTEHAMiDv9fd+HkEUVIAACIAACfhGwEhW3B5z8vWw14rcm7DWprrzFr3hFPSAAAiAAAj4SSNXEJ8MEYC9AEDFg11Tc7WOooioQAAEQAAG/CViJ+INBCADqjLSxeNTvOEV9IAACIAACPhOgE074M/FQFgh2pAXbv0Mu1fGf+RyiqA4EQAAEQCBIAqlE5RSYAJgAjzHwYJAxirpBAARAAAQCImBVx+/0KAD+bUmacBJctMYA8Q9oXaJaEAABEAiFwNGrAz6HEcDeAJcx8LlVE781lOBEIyAAAiAAAsESSNVUXmwl4odcCgC2+qO1pZ873+3iaZPBRiNqBwEQAAEQCJVAKlE50ErEcdvg6Ip7rtB39r4pNahiQKhBicZAAARAAATCISCeHZBKxDdjTwAOB+TGgHioFO7tH84aRCsgAAIgoIyAeIqglaicnysAeB9pQ1CbGtLn68oCEg2DAAiAAAiER0A8w91KVD4O4Y+08JOVqHhMxEJ4kYeWQAAEQAAEtCCQqqm4COcFRNIEtOJkPy2WIDoBAiAAAuoItAyq7GEl4h9ib0BkjMC61MCK3uoiDi2DAAiAAAhoQ4Cqqr5qJyqetBJx3C/A3KsEPrcTlU+JudYm8NAREAABEAABPQhYicpBViK+E3sDjNsb8KldXTFMjyhDL0AABEAABLQk0HzWWX9nVcdfhgkwxQRUvCqu/NAy2NApEAABEAAB/QjYAyvPtxLxrTACXI1Axe5UovK7+kUWegQCIAACIKA9ARrW92upmvhkKxHPwAiwMQKfpRIVzxw488y/1j7A0EEQAAEQAAG9CVgD46daiYrFMAHam4Baa1DFaXpHE3oHAiAAAiDAjoA4kUzcNhZGQDsjsMOqiY+hE074M3ZBhQ6DAAiAAAjwIEBDun/FSsRvs6rj+2EElBuBBisRvwOX9vFYO+glCIAACBhBgAaX/w+rOn4n7iQYvgmwE/GUlYg/2FR12t8aEUwYBAiAAAiAAD8C4rJBuzo+yUrExdZoZ4+ZxWf+cTmYSlROwWV9/NYJegwCIAACxhLo2COQqLzZSsS3wwj4boT2iqsxGmv6/o2xAYSBgQAIgAAI8CZAfft+KZWoGGUl4ktgBLwZAbu6cql4aI9gyjsq0HsQAAEQAIFIEbASleWpRPxpKxFvgRlwbQZajzCrLI9UsGCwIAACIAAC5hEQZ6mnquOXWIn4DCsRz8IMHGcGPhNb+3ai8rr9VVV/ZV4EYEQgAAIgAAKRJ5CuqvyWlai82U7E66xE/LMIm4HPjjK4zR505jcjHxgAAAIgAAIgEB0C9rl9v5GqqbjeqonPshJxOwJmIG0l4nPsRPyHVlXF/4vOTGOkIAACIAACIFCAgDhMYFVXDraq4z+zEvGVViJ+2ABD8LmViNdbNRUPi0ct44Y9BSYfH4MACIAACICAQ+DgkMr/aVf3G5JKxO+zquMLrJp4IwNDIE52XCiu1Rd9x416nNnEKwiAAAiAAAh4INCW6HeSeMRtKlFxj1Ud/y8rEf/wv2+FK3arh32zIXG4ot5OVLwhboKUro6PFH3Dvfg9TC5+CgIgAAIgAALFEBCiK04sbB3Y78wj9x+ouN1KVD5uJSpfEucWpBLxd6xEfEPHDYrEXoTj9yRkOz478vkOKxFfZ9XEl1mJij901JGIP2rVxG+1EhXfa03Ez8YJe8XMDr4LAiAAAiAAAiAAAiAAAiAAAiAAAiAAAiAAAiAAAiAAAiAAAiAAAiAAAiAAAiAAAiAAAiAAAiAAAiAAAiAAAiAAAiAAAiAAAiAAAiAAAiAAAiAAAiAAAiAAAiAAAiAAAiAAAiAAAiAAAiAAAiAAAiAAAiAAAiAAAiAAAiAAAiAAAiAAAiAAAiAAAiAAAiAAAiAAAiAAAiAAAiAAAiAAAiAAAiAAAiAAAiAAAiAAAiAAAiAAAiAAAiAAAiAAAiAAAiAAAiAAAiAAAiAAAiAAAiAAAiAAAiAAAiAAAiAAAiAAAiAAAiAAAiAAAiAAAiAAAiAAAiAAAiAAAiAAAiAAAiAAAiAAAiAAAiAAAiAAAiAAAiAAAiAAAiAAAiAAAiAAAiAAAiAAAiAAAiAAAiAAAiAAAiAAAiAAAiAAAiAAAiAAAiAAAiAAAiAAAiAAAiAAAiAAAiAAAiAAAiAAAiAAAiAAAiAAAiAAAiAAAiAAAiAAAiAAAiAAAiAAAiAAAiAAAiAAAiAAAiAAAiAAAiAAAiAAAiAAAiAAAiAAAiAAAiAAAiAAAiAAAiAAAiAAAiAAAiAAAiAAAiAAAiAAAiAAAiAAAiAAAiAAAiAAAiAAAiAAAiAAAiAAAiAAAiAAAiAAAiAAAiAAAiAAAiAAAiAAAiAAAiAAAiAAAiAAAiAAAiAAAiAAAiAAAiAAAiAAAiAAAiAAAiAAAiAAAiAAAiAAAiAAAiAAAiAAAiAAAiAAAiAAAiAAAiAAAiAAAiAAAiAAAiAAAiAAAiAAAiAAAiAAAiAAAiAAAiAAAiAAAiAAAiAAAiAAAiAAAiAAAiAAAiAAAiAAAiAAAiAAAiAAAiAAAiAAAiAAAiAAAiAAAiAAAiAAAiAAAiAAAiAAAiAAAiAAAiCggsD/BzbbfOw53VgTAAAAAElFTkSuQmCC;" vertex="1" parent="1">
          <mxGeometry x="779" y="178" width="112" height="112" as="geometry" />
        </mxCell>
        <mxCell id="C_PrHtnuCAZ5bNsTurKs-62" value="" style="sketch=0;html=1;aspect=fixed;strokeColor=none;shadow=0;fillColor=#3B8DF1;verticalAlign=top;labelPosition=center;verticalLabelPosition=bottom;shape=mxgraph.gcp2.big_query" vertex="1" parent="1">
          <mxGeometry x="795.4" y="352" width="79.2" height="80" as="geometry" />
        </mxCell>
        <mxCell id="C_PrHtnuCAZ5bNsTurKs-65" value="" style="shape=image;verticalLabelPosition=bottom;labelBackgroundColor=default;verticalAlign=top;aspect=fixed;imageAspect=0;image=data:image/png,iVBORw0KGgoAAAANSUhEUgAAAgAAAAIACAYAAAD0eNT6AAAAAXNSR0IArs4c6QAAIABJREFUeAHsfQeYHEeVv/hjDo6DI+ecOe7ImCNHk+/IPrBWNrYBAwZrhTHYJmlkbI0MGIMTlnHUyjaWjbOFA7YctbPSbFfo2aBk5d2u3tXOKlqr3Zn682Z6Vr2zEzq8numaqf2+/aanp7vq1e+9qveq6tV7c+boP42ARkAjoBHQCGgENAIaAY2ARkAjoBHQCGgENAIaAY2ARkAjoBHQCGgENAIaAY1ANAiQrHz22nH52p6sfPvqrHxn4XqPfF40telSMRGQK45+sqTHvUySuW+QfO67pdHxFkm++Wq54XNPxaxHl6UR0AhoBDQCiiOwarN8WmpcfrpnLLcklc0/1JPN26lsXlb5H0uN57tT2dz53WPyf1fZ8hmKN1958qX5zVdIOu8EyTu6JOswJZt7ULIOWeE/J1nH45LNu13Sjp9I+s13Kt943QCNgEZAI6AR8I9A97h8V2osd2kqm89WUfbVjAD3/X2pbG5Zz5j8sH8K9BtBEZCZo/9Fso5vSTbvQck68hWUfSUDoNK9Qcnm/VyyY18YlBb9nkZAI6AR0AgogsDq3fK9qfH8yhBK320AuK8fWTMuP6kIDEqSKdMnPUWyufMl69geQulXMgT2Szb3j9oQUFIsNNEaAY2ARqA2Aqt3y+emxnKXpbL5XATKf9oQ6BnL3fDoiHxpbWr0r34RkPyYj0re0Yes+MuNgTHJ5v5AyjlP8kuffl4joBHQCGgEYohAYdafzT8epeIvK3u0Z0x+IYZQKEeSXPWxIySbl5CsA/bwyxV2VN//ITPHv1g5sDTBGgGNgEZAI3AYgZ5x+b1UNj9ZpqCnZ+wR3s+nsvJXhynRV34RkOmjnyV5x6oGKn63QbFD8o63+qVZP68R0AhoBDQCMUCge0z+IkIF79GIyF0kpdRLyj7lQZrHvEiyDtIk5V8yBLKSHvMhn6TrxzUCGgGNgEagmQj0jMkfNV/5l44T5i5qJhaq1S1THf8uWUdvk5V/yQjY88+jg+9SDUNNr0ZAI6ARaEsEusflN1LZfD4+BgAYArKzLZnhs9HFPf+598dE+ZeMgGGIN+CzKfpxjYBGQCOgEWgkAqt3y9ensvnd8VL+hZWAydW75AcaiYWKdUk295yYKf+SEZCCY4gqYqpp1ghoBDQCLY/ACimfnMrm0zFU/iV/gcfTQ/LpLc+IgA2UbN6HG+ztX1LuHj/nLgzYNP2aRkAjoBHQCESJQHdWzo+x8i8aAeO5xVFioGrZznE/FtPZv2MgQJjheW9SFWNNt0ZAI6ARaEkEIIFPKpsfj70BkM1PdGflq1uSCSEaJfm8H8Vb+U/HILg1RDP1qxoBjYBGQCOAjQCcuVdA+RdWAXrGc5dgt1/l8oohfju2KGIA5KV5zNtUxlvTrhHQCGgEWgaBlVI+NZXNjyhjAGTzB9N75PNbhgEhGyLp3GMVUf4lX4FlIZusX9cIaAQ0AhoBDARS4/Jrqij/Ep0QpwCj7a1QhmSxO/ZXUvTVPvfLwROf2QrY6zZoBDQCGgGlEejO5m8uKVZVPtdYE5IT0fb/A2S9lGxeNUUb3/t07rFKdxpNvEZAI6ARUB0B5+hfVhXFP03nWF4yZre9AbCd3hFfJV8r+RDv6FK972j6NQIaAY2A0gis2S2PnFaq2VLoXTU+ybrxtjcAxugf1TQAWMdOpTuOJl4joBHQCKiOQGpcnqSqAdC7eW/bGwBP0J+qagBIyY59oer9R9OvEdAIaASURaAnmztPVQNg7Y4DbW4AWDLHjlfXAOBzP6Jsx9GEawQ0AhoB1RFIZfM3qmoAtLsjYD/ZqK7yB/8A7Qio+vCh6dcIaARURiA1lr9HVQOgxz7U1isAg7RPbQOAdZysct/RtGsENAIaAaURSGXzj6hqAKwZmWxrA2A9JWobALzjZ0p3Hk28RkAjoBFQGYHubP4fqhoAPXZ7GwDrKFfbAGBz56vcdzTtGgGNgEZAaQRS2fytqhoA7e4DUAwCNJ1kRz1jgM47QenOo4nXCGgENAIqI5Aay12qqgGwduiJtt4CMMlOmWfHqqf4SwGCeMfnVO47mnaNgEZAI6A0Aj1ZeaqqBkDvln1tbQBAKOQJ2qmuAcCOfY3SnUcTrxHQCGgEVEWAGdYnybrxTaoaAMaG3W1vAOymSSUNgBw7UfLe4TvNtHidqv1H060R0AhoBJRDgLGRN3EiVhSS6VBbpsZyUkUjgJmjbW8ADJEVShoAe+g5Jd4dYtT6EyHZZyvXkTTBGgGNgEZAFQT6+rY/lxvWEk7EhDuTHjjTqWYArGnzEwAl/ql6FBAMl1IbnM9djFidq1bJI1TpT5pOjYBGQCMQewQ2bNjwVEbETzkR42WDbmEQ7t20RzkDoMeauI4b1lH63zoqx07cJkuOdUp8zpODZKDcACh97+PE/nzsO5UmUCOgEdAIxB0Bxqz/5URsrKT4p+/xEeW2AbpH5X/EHftG0XeQnvonlQyAfWxhSdlX/6TiHxlDvL1RGOp6NAIaAY1AyyBgGiPv4YZ4eFrJE1F9sCVCprcfUGcVYCx/d8swKmRDKB15Yx/dJMCpThUjYAu9v6YsumQ2x6hYllljvzgkTPp1jYBGQCPQ+ghk0kOv5ERcy4nIuwbSugMuzYzK1FheCSPAeHz/L1ufk/VbyLn1Wk7EDuDzCF2qhAHwBPuJ5MSqK49lsrvHJPaZq1dv/9f6qOgnNAIaAY1AmyEwODjyTJPY53AiDpQNnp4H2/S2/bE3ANbuLAT/OcQM64ttxuIZzWVs18s5EY+XeN1HN8tJdlLsjYDNdJVneSy1zfW5lRnWMVLKJ80AQ3/RCGgENALtiICU8v8xQxzHqRh2DZSBBlnGRmTP6FR8jYCxnHQd/ZsA/4Z25LlhDL+AE7u/nN876C2xNgDG6bmB5LK8nZxYaxmzP9yOvNdt1ghoBDQCBQQgkA8ngs4eIGvv99d6ngyOx9YAMDbuKVcgE+3mMQ7n5bkheivz0JK72eJYGgGT7Puyn2wo51+o74zYd8A2iB4ONAIaAY1A2yAwI5BPHee+yoqitoGQ3rovdkbA2h0HqimLA4xZn2gH5jNm/Rsj4tFaPO0nm+QhdnKsjIA8O05uIo9V41/Y+xM6kFA7SL9uo0agzRGoFsinlkII9BsVcu2OJ2JjBBSy/lG7lqLYb5Lhj7WyeIADHCf2Ki/8XE+YnGLfjYkRME9up7fX4h3WbzqQUCt3AN02jUC7IpBOy6dAlDRORNaLAkB5htpy7dDBphsBa8QhyVhN5V9SIPu4YX+kFWUkk8n8CyfWXX74uol0y+YfDZwnh+n1Jf406nOQE/voVpQD3SaNgEagzRDwFMgngm2AgrKhtkzvaF58gLXDByX3pvxLymU3pcPvbSURWbFCPpkT6wY/yr/07AaalpPse01ZCYA0xTvIrSW+NP5TBxJqpW6g26IRaC8ECoF8iHioNJg387P38X0NjxEAfgi89rJ/NaUyDti1grTACQ9OxPIwvB8gg3I//XlDjYBJ+n35eHR7/tX4Xum+DiTUCh1Bt0Ej0C4IOOe7l3IicmEGfux36cCY7LEnI98SgGOIcBIhJP1ZxkbepbLMwFl3RsWfQ+JQwNEkQ1LQqyU440UdLXA3WyL7ycaw/MN+fx8jIqEDCancIzTtGoEWRgAjkE9gZUHFE17eZdSWBqwG7IogffBYTqa37JNQhxdaPDxjUzr8n6qKDCfiDx7a6Aurx+lDv5e8484ojACI8Oc5yI9HecNuPydCBxJStUNoujUCrYgAZiCfAAMmhAte4aQI9qxMwCmv9/G9smcEZUVgqHs8d07v+uxXw0QxrNJ2kTGG36Ka3HAqzqrSHs88mvU+FWeVcJBs3rskm3e9ZB1PhDMG5sl97FdyC7nPb3jfg4XgVUQ8NovOqPxZZpSrAwmVZEF/agQ0Ak1CIIpAPp4HVCq6uSHeb5riRZyIMc/vzRhIhaT9Y7J36z65Rhw6mMrmc6msp3wCfd3Z3IU9u+VnVkj55BL8JhGf4vizQ4unR99cqiPun4xYC4Lyoup71LqgUrtl+uhnSdpxomQdf5WsQ3gxBvJs3hN76aL8ML2uVkpfL4bKPUUfB/toTsTmqrSXyRvmczqQUCWp0Pc0AhqBSBGIOpBPnUFyAxyTKsVTdxIHeRmwaz4DxswqWz4jNS7f3TMmj+kekz/oHpenw39qTP4wlZXHrt4t30uy8tm1wGW99mc5EQfrtKEmLRXe3a5CxDhGxMkVaPfb1vLnryrxuhbu8JtkHS+XrOOTks39tmQdCySfe7pk834q+dyTJJv3RUmPe6Nc9bEjsLYnTGp9A+pNp4eezql9OididwTtL8ej/HshkFA6Pfasevjo3zUCGgGNQGAEGhbIp/KsaQwG2Q0bNjy11ABujHzUb9bASgM0pGwtlYnx+c/wxl/mRByqVFeIe1sZs16DQV8UZZiGODYCx88b4RghNr0QkRBl1k7FMIQ2LtHXnx55CScCHGCnQvC5XMF7/T4KsTZWrZJHlOjRnxoBjYBGIDQCTQnkc9gIAEW6lDHrhe6GgCHAqTWAMNCOlZftrifotUkF+ARMItA3rQAYEVv6jaFXBaUpqvdMKr6C3VZOxK0gdxHSDPyZxjbwtWFdWE4j+G1wIlYGLjMcXTqQUDlD9HeNgEYgGAJNDeRDxH3VPOHhWBTOAGudFAyZ+m/BVgW2YjSJWG8YIy+tX3tjnjCp+HQEWx73bV61+WlRt8A07NsRZCjHeq33VaKVG9ZRnAgToQ7/hooOJFSJJfqeRkAj4AWBJgfy6eOG/blqdBJivwHD2c4kogccuarVg3GfEftbESyND2bW2C/GoC9MGZDECIMPZQrysUzGfkYYury+m0kPvZITsa+sfv/KlghWbekdVjE4sU7iRAiEevzSpgMJeRUG/ZxGQCMwZ06TA/nshMGy3r4vJ+I+hMF0MkPsdzSC55zaJ6AbAYbg6fTQ8xtBf6U6YNbLidiDwIdppcaIIO499Ur1Yt9znPemaQjaHtOw59eijfPx5zjHVbEdRL3QrgMJ1WKO/k0j0O4IOKlaYVn9QNBBMMR7+2Fw3JDa9e/1+MCJ6AhRz/RgaRLx23p1Yf7OiPUdDIfFsrbTgZ4dz8Ok00tZGUO8nROxq4yWaWwD3TcEb0ZbYOb+T6dNGojmmXv1eygdfVk9/GDVAZxOI5AFL/hvBwM76lWvehjo3zUCGoGYIBCHQD6EDL/aCxxw1IkTMYQwWG9t1DKzu10wS0SgfcZAD7NmOJ3hrifKa0pH3siJsJDbsQE86KOku1bZlNofQlLIK2rV4/7NWUFZjYzjDNmoXra9hjH7w2569LVGQCPQZgjEIZCPH8ixYsszw/qin3oxn40mUI7o9rJ6ErYdZlq8jhOxs7piCeBVb1jbvBqAYemv9T6j9uUY7TKp9T+16nH/BvENHEdRHUjIDYy+1ghoBKJDoMmBfLZCGFWvwV1KKGTI8JFI++i3lMps1qdpiJ9gKJuyMh6DfAxRtcnxDXm8rE6PM86qhoEFshgVzX7KLcS4QHDUg6OasJ3mp24dSMgPWvpZjYBGIBACcQvk47URzj6tgaB89sdhtgntxjvGeFi5mkQ8EsXWhmEMv4ATux8B/2mDwSRipNoRT69ygf0cJ/bxGG00iX1OENrgeKcOJBQEOf2ORkAjUBWBOAbyqUpshR+wZsxQToXim3bLJPbZGAqnrIz7MNPGglc+JwLD+JpW/pyIcd478u6mAV+l4sKSvCHuL8PTTbfX60mzV7ytSjV1b+tAQnUh0g9oBDQCXhCIayAfL7TDM6a58xWciL2hB+XCsbnoIst5bU/5c5xaydBtm+mNDkrqHoxAOuBXwIm9Bpm+/XF2QHOcHEMf1YPVGL/bXLNkQwcSKodEf9cIaAS8IBDnQD5e6C89w4m4BUEB5UwiPlAqM26fcCQRoY0zZ6dU/N2dN8Fvm2EVgRPrQWS6JigVn/FLS6OfR1uZofYJYWnXgYTCIqjf1wi0EQJwFtnZR8whD94zFczsWSf87imQj1d2QDRAjDbA6QGvdTbjOZgpmkRcjNHWsjJuDhJPP5PJ/Asn1l1lZXnhf61nDsFqVDPw9Vtn0fgRGxHaPwr+E37rr/S8DiRUCRV9TyOgESggUMhwVkxJGn65vLJyrzW4ew7k45VdBc9oIjC8zi0YPL3W26znwAjAOuboVlwmFTdVC1Nbqa0QhZETscJdBsL1FDOsb1aqL673nBwHtWTe22+GdQVmG3UgIUw0dVkaAcURmA7kgxMgx9ugdthAyIOyiMKzHnFZvEMVFhec0Ii4DEHhlvNxhRcjAGSJE3Etcv15iIKoCg/cdHJi3YCART5Dhz/uLhfjWgcSwkBRl6ERUBgBCOQDkeAQBqlyhVH/OxXd3BDvjwI+xqz/4kRAGuD6dNR8xnowrCNWFO2rVaYzA+8K3/ZZ2F1dKwRswfgwxKXo9VJxaq32xvk3SLjEicgiYJKBbRXsthYNxkLGSR1ICBtcXZ5GIK4IqBjIxyuWhRUNIh5FGHQneHr0zV7rjdNzjhFwHQIGMw0ow7qimhGAuOJyuE7DPiNOuAahxTTsUzD4YBL7zCD1e3lHBxLygpJ+RiOgOAKqBvLxA7uTOvWwEqk5w581y51+DwLt+Kk3bs8WjQCUJehpTECRmcT+S/mqCDfs32AouRllULEobpgGocfZFknNaFswmTzAufXaIDR4fUcHEvKKlH5OI6AQAqoH8vEKNWSDgwhxCIPtBoxz8F7pjuo5WDY2Dft2BDzKjYA/lmiOJjeBdUGp/Fb4hKBFnIip0Hyg4u+NwEMHEmoEyroOjUADEGh2IB/Yj29AMwtVOGlSZyirQIOuYR3VKJqjrsc5kndnIBxqz1T/wIn9wwjKvap8hSFqjBpRPqPWnzCwYob4WiPohTp4MZBQBoPuAGXcFyYaYqMw0vVoBGKJACS/gWhiATpeaAUKjoWMWZ9oJDDgKY2UkvXaRtLdiLoK59Kp+EczZMFnncur+Rg0Aqco6yhGRUTJhLijEZkbS1jA6qGThnrUJy9DjyOFVRNDXGqa4kUlevSnRkAjUAOBJgfyGYI9eNh/rkEi+k/FWS5KspndsA+KTmAMCgRHL0bsB5owiHtVBLd6OWoYAygDk2BS+/9w8LfPD0xEwBd1IKGAwOnXNAKNQKDVAvn4wYwb4lcYAyszxA/81Kvas05wpIcwsEIu475W8LnwIg+M2HcgYDfF2Mi7vNSH/Uxfr/16J9ATxPDwatxhPbc9SCpwbAx0eRqB2CBQOPZmiON4iwXy8QqwMyAdCD8Y2WsavXLhtY2YzzlL0Rhe6ViD+mNgvGK2Mc5l9RtDr+JE7Asvr9baZsqrDiQUZynTtLUFArDP3sxAPnFIkIMUc36KUvudbSE0c+bMSafHnhVBlr4gBoEB6YLbBfdSOxmxfhHeAIDZt/3DUpnN+CwFEmJEbMFpj78VhcJqSsRHI5uBq65TI1ATASflKHa8da8D+Na4LMNBfHiUgccQ59UEvAV/BMXLiZVGwS/IUrAhOBzbbEFo6zap6LMi+hCw3w0+P3UrjPgBVyChPQht8joOlZ6bgBMWYNRG3ExdvEaguQi0QyAfrwg7S9k7EAacoXYdPNLpoedzIkwEDEuDsadPk4j1/emRl3jldSs+x5j9YYxTKya1r48LPjqQUFw4oeloKQTaJZCPH6ZxIi7CUFwmFV/xU2+rPcuY9UJOUGajnpQ/N6xtsA/eajgGaQ8n4ioMGf7nds7ng9Qf1Ts6kFBUyOpy2w6Bdgrk45W5pjHyHpTIakSs9FpnKz8H56w5QTlGWc8IsCAPRStj6adtsAXCibARjIANEOvBT92NeFYHEmoEyvGuA1ZqmWEdww3rQlitMom4xDTE91v1uDUaN5zwoc06stXHDftzaI1BLKgQ494QvQiD5n7GrNcgkqZ0UYztejknYiMCrhWNAAjRDDNDpUGKgHjTsL6NgjkVZ0VAXugiYfXSyc+BYehUlK0a+OUgOihkZQzdEF2ALwQKDqJUnMqJGKvCnwlOrQtieQJI/ua3b5halDwml0ielUskl+cTydvzieR9zv9NuUTyL7nE4tOmFi35gkwmn+MLmToPm+bOV3AilmPsD1YBvlYnGjKpfWKco7ExYnUGaFelNv+sDiva7mdYmo/Io3u8nU5Z+BGcwkBpiIcRZPpgnLNXFgIJEfEHTsQEQlsr9eda93Zzwz4DO9bEgvXXvrazf/k35g90LZw/0LV8Qf+yW+cPLL+v+N914/zBrr/MH+g6bUF/1xd+wK9F1RN+ZKzRz8IkDWb7nvhsiN6mG2hyjnySXLjkQ7lEcmkukdyeSySlj/+pqUQynVu45Ofy7LNfERTsTMZ+hknsszkRCGfa/R2n4UTs51ScBTQEpb8R7zlRDjE8jU2YmTSCZpXqKDpWRnIy4GBcV5TiwB9Kh/+TE3HI04BZ88SFvSrueRQIsd/Aibg5fFt9j3ESjFs4ORQGo1P6l7+vc7Dr4gUDXVs6B7qkj/9c50BX74LB5b+Yn7nmlXGQu6hoYET8zid/+8AXKSp6qpYrly59ylQieXwukRzwofBrGQe5fCJ5mzxr8X9XrbTsh3YP5FMGR82vJhU3+RSsSrOCvEmGP1azojb8sRgl0HoQAd9KmMO9ibg5q8WJzZxaSQzs4YhunNpVjRaVAgklVq06onNw+bzOgS7Th8KvZRzkOgeW3bFg4Jr3V8NH1fuwCsWJmPQty4bgcCqpYe2eSiz+fC6xeCOS4p9lFOQTS26RZ59d09u5qYF8iEjFIZCPV4azXvuzvoWqwmwJ8tl7rbNdnnPOpa/EwLdOGQcanSRKFR4WEjYRsakOftWMK/f90YYOpCEALmx/EPvoiLad3JhUvPYSSKizv+tT8we61iEp/gpGwbI7fjS4rGV8kcDZL4QM08hjg8hE4tm5xOIbolL8ZeXuzy1aMitalw7k42/UaMfB0R9CwZ8uOFUS0cigUvv1CkxlfmEZuZyIpZVriOfdOAYSOmXD8n+Hff3oFP+M7YMDC/qXL5gj5ZPiySHvVHEiBkMYAJITa21k0UHlWcl35xYuebxMSc+avWP/nk8kb5KJxDOaHMgny6l9+oYNG57qnZ3xeBJteZTY34pHi+JBBWw/cSKuDddh/e/FQix8CIQTDxTiRQXSNlcuQ8QH49Wy+tTEJZDQKeu63t450LWhQcrfvSpw2+mbVigd0RDJhy0F/kj1JcbHE5OLzvl4LpHcja3cvZZ3cMmftg+ktow3YbA9BMctIl9a8cELP486DlIInsPxd5Dyg0vYZ2H5FbZDmiCPpeXY8QwZPjJsO1rtfec4ZnhH18KeqpqOrnBipFmpq1eyvs0L+pfva4LyLxkC5o/XXdP08M5B+xUnYi/SmLJ6cHDkmUHpmPHeZCL52VwiOeFVWUf13IHfXyL7e7aVBsDIP03Dvl3lwCuFPUKcI1ITZu/Qf8wQijb/YhL7j0gdNYwcj+njgbMFkRFrAQZvGBE/nV26Onc4sb7EiViHgYWXMu5mA/In/deWFHEzP9d3mte9SB1OHaaUG4J7wdrjMw+FjhMAHvm5hcl9USl1v+Xu/dPlMpPeGWbQrPsuZAhsBWcriEngUVBqYgLHKw+LqL5yjpvWxAwDd49ljJq94m2aK4cRcPwyDI/41eLjPtXDLrvCoO9CwKMqVg+wDfK0geubqfTL6+792eAVODPgw6IV+RUn4lxUPhni/sBRLmXidy/MJZI7/SrpqJ/P/uWvVQUxJHixD+TjVQLBkxmix4XEA3DeGFiAvBKr0HMQEAUBU2z5FTpK4EwhonT4vZyIXFhewSrgzJLV/FYMJGSfH0UgobVkh/xl/43lCrjp3+cPdN2oGrccPw7sWDb3+g7iBMF98onkPVEr86Dlb7v1EcxBdD83rCXojhNNlD5OrCvDDn7wvklGvtDEZsSqasgfj4FpRGVoI6BMWkwiLkbC+stlRSv71QkkhHpq5by+vzdd2VfzOVgw2PUD1ZjFqfVjJLl16UjrLjiu7BmLqUWLTwiqnBvx3uTZ58n+1GZXAwN5UxdiXYPjkGdgFHiQG/ZHcEIhWzco0NyGkMipfQIOpoHk1Kuc7+jrtV/fEEAUqATSVHMqhkMPpoa1Le5RPv2ygxsjH+UIOUFu4Sy2yt8xCvao6BTIqPhzaLmdHcflNk8RXItn/ZN2IxR5mDrGLr/R68BY6bmHICue344T9+edoDR9CMIz3u4550u8Nqn1DaTsiW45hHCuX45gSXarTtJU4tycORC6FqEvSG6I8w6X2hpXhSiqxP4WJ2JHEIx6yU55Zv+KuBsAckF/l3ITGXDgjsgIuLmuEZBblFwYRjE37N1FS+T6h9e5B1Uv1xtMKr7aGl14ditMYp8ZpDPPeofaP5pdevvdcdJJI8SZd838qfh7aTnOpOIrOHHsXeUTsTmTHmrpeOl+JJETcc8s+Z49O6o3dkxmDPF2P/Wq8ix4iptELIT4En5w6jJTsVf+zipAfkF/17tU4UeJzmKkR3GZH554eRZiZaxaJY8o1TPjEwLu5BYmRxumxP0lDpoVdGjXFZ5XAZQN5DODQTW+gMey305cWWCsNHhS16iqLX6CkyCciicqYzRD4dZTHu7fHys/msMM8bVA8b9rK7ENkPypLRhVp5GwLYLDR3tNnDN91oGh7s9+AgkROizPGLhBFQNAdg4u+2tdAGL4gHOipQt5DIKIgTdUNALivvdfbphMnXWu7FtTMzaA0oF8/MgkJ9ZdCIIyxXtH3u2n3lZ8FiLB4RhThw0Fk4ieasE5OBEdEWwzDDY9VWhMhIMb4lcIfUOahvh+TJoUGRkQW4ITe1UtvBTY+y83TiZVjQ0AippHEG7cJOKSWUI0lUiuKleycf++/ZaH3TOs6WvVA/nMYk6NG8ywv16rw3r9jVHrTzWqaYufwADiRGBHnaTWHc0NAAAgAElEQVQQyroWgJzYx2McXSvjdXNShdZqaBN+gxDe4eOsF4y5MdMUSgaZ8Qt7rUBCv42x53+1EwFL+x68D057qfkvzkMKEzytH4vjhPXdabmQiT88N5dI5uKu8Mvp231J14xGtUogn2nG1Lko5qEP5shTpix2tNJRyDqwVfwZQicjxU9wy+Sg13zdnFjfRT9t0OhUoRWRbf7NDB3+OBK2y5vfmsZQUCmQEDj//XggFhH/ymf5Nb8v6bvL3Sf1dXEL8eD0yaGpxOKvlitXFb5P/uZ30uwdljBwM2J1ttv+NczayxR5IOGGVYTGDCvxrKWwV0zETgwsXWVs9RtNjhHrO0iKyi0H0acKjSdbZ1DFqFjm4o0bH3/XhnXUjIJb/EshkBDMnok4eBfL1FS01Wbgzb4PYYrBdwGF/7X9b1Sro6sgvrlE8vcqKPxKNG67q/vyVjur62VMYWzkXUh7xyu91Neqz4DXfAR51Xdwbr02CGZgyOIPVNZaOBsfhJ5WeQdWYjgRGGFx16mYGTQsHyGQ0MWZB9Y1W5kHrf8+Nqiacm4EvVOEDL96Tj6RvKuSclXh3tSixceGFW7V3i96iNprEBTFgaCKSjXMKtELjnImEesRcHR3VjtsAiVIRoNMk+RUdFdzRKyETSve48Q6CQNXODrXivjUa1PnQNfNQRVws9+7iRvuPqqvSysZcOw7l0iuV0HZV6Zx8W/qCW6r/c6p/SOcgcw+s9Ww8doeSPPMiTAxcHSVMZYh9ju80lDrOUasX7jKRRmwTCIeKT+KWIuGVvsNjvJxIh4LjSsVT1A68sZWw6deexYMLM80W5EHrf9yEzWEPEp/DC2HJSUe6tO6c45K5//LjYDRq/4G57VvhqVTGHxb+bwudFCI0ofkqd5XCkpTr+O32u+FULHEWovcAfeyXut9mFgxIhLINEo45pVODz0dk06VyoIMikixF+5Tqd1BaAU5YYb1SU7FIk7EQ2f2r8gHVcDNfu+SzAMtpLQPHzFGGB/WwQrAwXLFqsr3CmGBs3AM0DTETzJk+MhWcwxkhv1XBKbnIW9AkEFB9Xec6GePIGDoHlAOgKd5FNgwYi1GphXo9p8lLIrGNalMk4jf4mBqzW1SEyKpFnypKBWfMYl9DiPi0fJw1T/tj1XaX18OiX/K3Ofur/r68KrBbjAADqmi8MvpHLv8hnrM3MOJWFlI52qI99eNhxxJ18IpFDon0sB1JQ5FapXinAm/FwfDaSt8ghP781Eiwaj4PTLN0GdWtqMzG/AJjEBOxFYETC1Css+OkvdRlg0rYZD10zGIUvVWRk4buM6X0m32rN9d//mZe+vpiXb9fT8YAGPlilWV76NX3+KXcRD3+l5OrV8yZn9YlUFw9ert/8qJ2IgwaI2m00PPj3JgiWPZYPhxIm5DwM8tb1MQzrcR7cU68uluP6yUtes2EDOsL7qxCHoNiVsawX+MOiAglRPk5w9ORsApP+1WIQGQW+m7ry/WWwDucct9vWlObuGSx1VR+OV0imtDB3k4APuisN8Ky7igaDE6G3YZ3LB/46ezVnvWpPaJ2LTFvTzYBjKpfX01TALezzFDHNeotkeVJYwZ4m8VY4M3qmFNrIcTcUtA3rsH0By27wcWJHD0sZBvgloXcCJY2GiTC/tuVnYF4LLMQ26e6WtnC4AR+wE4BnhfuWJV5fv2W9G9Ow+CtzQoXJOIT8XBa5qnR99cvh8XaOAyxMOgSLAGGBXKKSpO+/JAeB3eJysfMPLMED9odPsjaosEv5JW85XxwhuIAcGJ2BtWNiACaRyMKHAQhjTIEOudEwGpwfNh2+Z+//d9dytrANzA15b3Yf2dCAlZZOfkEosvUkXhl9O56R8sakZOciJWF+JIE/vzjT5LDYN+vQQd7k5a4/oQhLv1MjC20jORLJ0TcVqzMIJTLiYR19Tgc9D+0NWORgA4C6NgScWpjZYJ09z5CpOKeSax/8KJWIfSjupGr/xL5mFlDYC7WX/QftHS78GpmDkQTKdcsarwHTICZtI7G82gKQ5HyAxxXiFnPB9/TpQdH5aZUTo2tZJR0hnHssGbGQU716AIW0XNbisoak7Eddht48S6stWP0Zbzzsm4RhGw3AsKubx8zO+MWa9xEkddxYl4HIFmX2PnrZwpaQAs6F8u02SHr7Y2Gtsm1XdvQT5l4tyXqqDwy2ncc+FVcWBqDpYATWL/0aTiK5gOdkWnHWEjCMfj7Xb2G5a2EHCbIV/gjY85oIcpy1FcN2K3kROxtN22iWAPP+z+uMOHm8PwtPxdCDbk5Ifo4oa1LQJez5DveuWvodvlgoEu5YyA3/Td5qud9XBokd/zjFn/PS1zucQSUq5g4/59aEUsz3bCvhtEmLvIpPb/hUkh6iztIQhvtMfUpoUoJhemYZ+C3kkNcWncFKNzsgHDka1cxi6KW1ujFi1uiEsxZAZWBYPQCnhnjOG3gG+J47A6hEEPdhln99+unAFwmfkwnJ66T9l/KiDYXXkfDfv93BlymkssPjXuCn8GfYuWyIHVm8KC0Kj3NxWzkVknFZIvzEC+8hewzpBmJTdWrqE17zJifwsJN7dsdMV1aRyO8cFxPuwBAla0WlNCKreqGB1SYCjdrV6Tk0EeDshP4GQq3I7NwyjKA2c69/E6Ba7zC9ZfGygxV2VJaexdyDsRAR/vmeXvIxO/e2EukTwwQ8kmkjKu33f/ebl7gFbtegM3rCtgf79SytjCzM4QHIHxeygdfVljRbZ5tYEHNFKGxGl5UuGY3OZVm59mGuJuBHmZbrdT1sxZQvNY25CawaEOCcNZuMGACxk8GbEWcCJuRcpMWM6vyL+vJTvlT1QKCDTY9Y+GCE8ElaA5qLpXD2olBVPpNEADvP8j70yuwQZmHitgNgCe+pzap7t+C0wH5EeIQC5jWaQTJfEgBm6uMu5VKlCUIe530R5YbtxlMCJ+F0uGR0QUp+If7vYHvJ7kvSPvhn8nvfMKVRV+pfardBpgft/yT0YkKpEWy6n140rYh7xn8FpO63LhkleqsAqw5+JrUAa3kGDGmwZD9M5a5olUZP0X/uiIfGn3mOxIjecuTmXz96ey+e2pbH5vKpuXzv/+1Hh+OJXNP5Qay12WysoTu7Py1eU1ccM6iqPvk9mr4hoUqrz9pe9OiNuH0OXaEL8u1VH6lCuOfrIkHUdK3vEzyeZdL1lHr2Qdo5J1HJKsQzr/Y5LNXSdZx62SzT1H0o5PS3bsv5XKiOMnON5xIrANyXiPFe4ZoofrFN0mVQgLPH+w6+E4ylg9mkzDno/dh8FRHZzK69U9J5dY8su4LvsDXXD0b90j61uqQ2EzG/bA4xqd7JFx+ZyeMfmjVDbf41L0JYXv6bM7mzd7xuVP19jyxdwQ78cI5lLGg1Sj4z3U7ZgeH4jKCGDE+jmQIPncd0vecYFkHSMuRV9S+B4+5x6UbO5Nks37IhgRHpvV0Mec7Hd6jKlhDFxr9sTdF2DylHVdb2+o4CBUxog4GTuAE0SBhPTnnsiTF1zw1FwiacbVCLCu/7vumDU6ZkGRGdaFnpjdwIce2ytfmBrL/TaVze8JqvjL3+vJ5id6t+0/SM1RTJlgnizlBmLnt6oNqV3/zomA5C5ouGwij8mDbP7GYEp/ekVgpoFAOzZINvfbMn3SU/y2McrnnaRRg5j4tVpZlAzLs/pvi68RMNi1JEoZiaJsJz9FDllWBjNr7Bf7olcmFr8xl0juiZsRAOf+TWMYbVBDBjoudGXjpMDAe74nK49LZfOj5Qoc7ftYTvZu3isZtcPxgFoDED/dV2eJ6cOQpY4TKx1WxgfIepml589U3IeX+LHuD0rWEau9Wk7El8Ni1+rvP0o3yzimCJ7fv6wnkVnxLzHtmhXJck6h7EKVGWoNBD6GPrUoeXQukczFxQg4eO6FcqB7c7gBHnFGhMoofLog4+F9ELUO9seb5ci2Zpd8RSqbfwRN0R/2Dai4VbDGPiRpJvBqwNZKJzIq9lZFboY1ArbRu2WOnYil5OuVk5ds3u+atRoAR/egrxT6TPHM+ETM+3gsxsI7uCkh0l6MjgPuONW8PtKIjFF0/0K6ekQ9YBKx3jBGXhqK1lwi+aM4GACHzvmDXPfIOiyBtzgR2Tbr3IUUyIxYv6DU/lAjUsCmsvLjkc76qxgDPWM5aawb9ysrOyDMaqjOEtOXDWP4BU5gKs+YmGRYjtJL6insqH5fLY2jXxA1nMUom9aXOLHPD5IatwXGj81Yzo43ciMuEQLH5vcv+6+oZSeK8jkV3YgytYmxXS9HoTOXSJ7czJWAQ4v/cHD9QwOeBy8PIB5gzPpE4bgdsU6C43cmESMe3sOkodllHSosDxvWEpj1YHu792TlV3qy+YONmvnPqmcsL42Ne7xibEMENpTOEtNCYFvDyQ5XFxOT7JS72blRKXeP5c5dJ8k3Z532CAMvGEKF3B0g88WtEey91rrYNnmMmT5qXMgpgJRevNSmv3EiFwx25Zq4EjB8St817wwjI818lxMxXsIy1KdhbUOfzEwlFn89l0jubfxqwBKy58Klb+aGeDgUKLOXVvZliPigm+EzonLFIO42cnvrDU6TJYMABknYj3Jj4+e6Z0z+Tyqbn5yllKvM2KN8zoMRMA7BWfy0T9VnYS+QE7u/llzBzH+cNlv5TzsMbpPmNwMv5TrtPbqYDbLgC4GaGrcWjjH5bTr6aPnWlhOMqN6Y4Ot3k9hnzx+85kudA127m2AEmCpH+4MxBSfdu7UN9FgkY5T8zblvyiWStEFGQD6XSP5ZJhJPg8YUHSTCOzSVdcwspXZVixGAdDLxLWVEbCl711fnUPDdKTAIioOnfXTN4BEuaevZJd+fyuYPRKnUfZU9lpdksOp2wD7YDnGR3/KXsCzIiYC46BXldxe90OMMfVpJR/z8PCYHT3ymF8b0p0dewond1gofEjnBmFUrK6FJ7RPRj5m5Th39uK/r9Z0Dy9INMwIGuy4/Kb306V5kJM7PcCJgS6Ziv/R4f2dfr/36SNsoE4kjcouWdEZ8QmD9ZCL56fKGQJY9r8uYHgEDsG2eHn1zeV2VvrsNgmak4vTRpjBCVO3dKQf7pTDIVjplsHq3fG4qm9/iS0E3YlVgV06y2ccED5hk+GOV+Nzq90A5VJLf7fT2iJV5QKOBd9xQiSfg4ASyCEovgnGhWj+Iy33Yvugrtt0+2msGUifUMfbWx9XleTISq1YdMX+wqzPi1YAN8we7PltJNlS8x4m4OsQYLxq6jSnPOecluUTy98jbAuunEskT5dKlVc8EQ1x7TsSmEEBV6sDbvSbocQuWHoBmDkCpbP622Cl/x8BYY01ITqet6wmTjHzBzct2u4YlYfeMYx0xZY4dH08DAI4c0nknaAP8cH+rZIDXk2HnWOMk5thZL09Gp3ndixYMLj+3c6BrD+KKwKbOgeXfVe2YX13+GPZHAvKmscrf3RCZTD4nl0h+fyqRfDSXSE4F2B7Yk0ssvnYykfysXLHCU1SwTHrolZyIrQHBqmQAwL0NsITobpvf63ZeggSv+7gq/xJdjj/AFKRo9svbVnwelgs5ETuhH+2lifgqf9Yhp9h3cv1Emcyf1cYYP/cDbcFVk1Nw9MXy+HeNu/d4PV58+qYVzwKlDaF5Owe6pgIYA/s6B7qun9+/7POwulCtnarf50Tc6MK3rryA87rZK94Wi3aDMTC1KPmVXGJxMp9Y8rdcIslyC5c8nkskx3KJpMglkpumEsnHconk1bmFS86QZy3+IGwpBCHeidcNx/nqguTjGdNzuEQPRIMTUpnXcUs6IUHwnZ6RydgbAKniVsB8D6xrm0egH22ld4+hRvfDDxJUME520Ysx+3rcykJzwi0XXpOID3Ai4BgwWpsZsR8IenJoAbnq2eAsOH9g+eLOga6bFgx00c6Brk2dA11jnQNddvF6+eoFg8uXLRhYdub8ddd86KR09VXh8vaq/B3CjzsnVLzwyqrlw6YyDp5oh8bjn+e31kIYVU8E+HwIjmIxQ3yNE3EzZmdsdlkwsy7NsuP+2Z3NJXyyraUfl3LOk3LshH4VDIA8O04OkEEvA6Mqz+Q4FWeBL0pQZVpPODNk+EhOxG7UMYKKbgiaVK9u/XswBIq5PKwrIZ9Ldb5ZD8JKeLAaWugtSHgTQSKYx4AJUcGElG40NoPcGluB2f9hZ8MxZsnIeBuVzERVruRzP6+C8i/ROEKXxkbuqw/O3mfaUabrZsz6L07EKAadrjKUz5MRVV/CLhfi1JjEPocTexU4fDIiHjWJuARi2GDXpXR5zLA+iZ0K1jTE3VFEy/unr0GHqzMpP5jRgawys//S6gSkH1Za4BGJL2blC+idH9FSf0nZV/qcot+VJhlSvt+4xoA94NiMyNJCUYTYb+BUDLvqCY9ZC+XJwMZbl9dkBAp77UQcwhT4eh6ufpsMZ+k5Edh+C+E7doi9wfT2A8oZAGuGJ3YX99kgrkT7/vfTx0meHZuvpGjjfG8LfaCpMo85xjhl3eh3LKn1fERO0pvRQsvWIl7/phEIigAzrG9yIuC8OtoAwahYVn7GNSh93BCXItF2GSfWg9irHkFo6xmdUs4AgFwBPGzWQEQZC4I7xjtb6b2x9vyvZoTEwRkQvK9hgsCJuBeDF5zYnw86rrjfg7SvkAQGh6bpcXSnmRavc9ejrzUCsUSAEftbEUS5ukJK+aQwDXaccWo4dUx3tnrGyy0lOlatkkfw3pF3c2qfzoh9B1osaY/KjWZ2Kaf8S9sAZDBbD+eW/72JyX5CGR4H2YJm8EYU+hi1T4c+V5oUFBMKCRFW4UKk0bB+R8XMj8IIS4v7fTB0YC+6NOboT41A7BEwDfsUtxDjXNvnB214QVETlI65v1bAopJBAI5FkOAI/4TETCOFbNitrAHQ+/jeZiiRWNV5gJ0RShFXm6E34n4f2RItlsX98xWFvlRU+FUnAM6kIzQ94PAVdIyBk0v/XEVYgzPWTffz3aYx8p6gNOn3NAJNQ4Ab4tfInUFyav0ySINMQ/wEgxYox0/9K1bIJ8NsxWUQ7MKgo1RG75Z9yhoAa7cfCD1gl3BQ9XOKfUdZA2AjWYvNv+lMeX5nvLA6yA1xP4IcTAYJ6gJHCB1PcUxM9nPD/oif8UY/qxGIFQK8kPZz2ppF6RwmEaf5aaQTd31v6MHBEDydllVDJHuhCQwCzBTI6R3qOQCWtgAKoYE9bnWE5l0M6+mjm5VV/rDCsI3eHbY/Tyt8jOxpTmCyg2FlxSTiET/bjTAmcGLdGbbesvcnuGF/zsuYop/RCMQWAehIcG6yTLjDDhx5TqyTvDaaE3ELQv05boj3e63Tz3Mw+EF7wNmRE7HdD61rhw4quwKwxj4UVg6Ufn+Q9CttAOygt/jFv2pqXD/9pdaz3LB/46f/VH2W2ifUqqf0Gxj0zLD/WrWcYIbnFCRYKtWhPzUCSiMARgCj9uXInSTHDOuYesCAFY1RL6Piz/XqwvrdnXClXgpkmEWXZtSqfULoYgzeqFrGekKVNgCG6V/r8Q8ShtVNjYvVb6AciIvPiViHIBOjhjH8glq0RTWucWLNrVWv/k0joBwChb3wolNcvUHDz++HIPZANTDS6aGnV0q5GmBwsCB+QLV6or7vNgjK27N2WN0VgB67vQ2AdYQrbQAM0RvL+2pB4cPs1Wtq3Cj6jknFpwP08fK2SG5YV9SijxPxB5R6Dq8S5P8ZOOh7terUv2kElEUAovpxYt2F3GkmWK9dMR+1ScRvkeqKVdQ6dwrktcMTe1Sb+ZfoXSPaewtggK5T2gDYSW+ELIZLQeFjJvDCGOA4sW5A6Pv5DB3+eCV6OLWSCOXPMDoYET+tVJe+pxFoGQSK3rLWg8idZz9j9ofdIDkxuBGiEloP+nEIctPQiOtUNndlSaGq9gn+C8hyoFR5GbJDSjZPXSOAz/1SI2Q8SB0QjAfpCG6m3PGXEesX2HJrErEwSDv1OxoB5RAonpe11iJ3omyG2O8AMCBACCfiMYTyD4JncZwBTo3JM1RT/CV6e7fuV0phI8jTrPYeYj9U2AA45s1x7huc2j/C4JlJ7DNL7TQNez5Gme4yGBW/L5WvPzUCbYEARMxiRBB3R0C4tjPG8FvAox6hLMmIiH3a2u6s/GJJoar2CSmMMfikchl72VmqGgATMnP0v8R5sCpMBKjoRpCPAwU/nGKEU4xIoi65t66M8wpjnPmraVMcgf70yEv+mZlvA0IHdXUosYMTETrYDsTy3rxq89PiDnHPHvm8VDafU035A70ss8vNt7a8tuhyVQ2Ah+LeN4A+xkbehZSbpA+pHLecLy+FM1YBS02jRgAdASdIz2ZkI8DdyYJdG9ZR6I2NqMBUNk9UMwAggVHseH7YG7thtG0kKUUNgLnK7Fkzav0phrJ2W7lvQUTDgy5WIxBvBJwIXnFK0XttvBGbSV33LrlQNQNgjTXRDQmU9L91Ro59e7wRsftR6+Adb50phfH9VvQ5KqwMNsywq2Nw3AvxCuKLmKZMI9BgBDi33sqJGK3TcRrRgXfDMbsGNz9wdTC40b5d96pmAPTskpFEVQwMZBNflLTjXFTlzDoiXVU4wE6HM/JLVFq+hqOKMRhbYPxancnYz2iiuOmqNQLxRIDS4fdyIvY0s6MyQ/wgnujMpqqwckKtAcBLpZDAPdm8oR2fDvNTmt94nWQdk6oYATvobQVDHFLzggF6uCXxvnLSdTdiElGtDtrMgGLx5o6mTiMwZ84cbox8lBNxoElGQEqVWQ0n1pfcxhLtH1MmJPDa4Ukd8KSst++nP+tVwQCAY4smGTqs4AzBwUO+rDmx/MqY9RpOxP4mjS19zYyOGEuGaKI0ApUQMIn4FCcidFYvnx19ilL7nZXoidM9mDkX9s2JmHUcae3QE7E3ApwMgFlIkRwnXJtJCyPWd9aRTD7Pjot06R7DwNhObz+s/A87Te6CPttMDL3WzYj1c5/jQqX2+r23UaVtRa9Y6uc0ApEhYFLxFU7EZMM6qyHOi6wxSAXD3qFJxU3VMKHmqEyN5WJtBMBKBdBvEjEC0RqRoFG2GJPaJ3LHmBP06lgbAAfYGZITq5rymwLDNO6MKIYjF3Ckr1o7sO/vgJWHuOOi6dMIxA4B0xDHlgbHSDusYW0bHBx5ZuwAcBFkpsXrOBFmPRyMTXtjawCkt+wrH1wFBG5yNbOtLllZYBkIDfwEOy2WRkCOHS8heVE9+eNEXAdJuOLMSAgbzonIe2iLl/bWesY2e4f+I85YaNo0ArFGgBFxctQdFVYb4gyC4xdhe8Vh7c74bQUUlv6pXWmwtNpxkDSp/X+VVrjWkYzMsRNjZwRsp3dU4l21e0a/MfSqWPcpYl3ptT8FfG4cghDFGQNNm0ZACQQYsRYE7ITVBij3/ZVxBsEJa+xrK4RRW0KmvbgcDewZmZSMj7gxL7/eDiscceYDJm3MEF+rpPxLMr6ZrJJx8gcYoZeX86vud9jiMcnwxzBxwywLshdyIjwb1SXeePzcT6n9IUx6dVkagbZGwCT2OR47X93ByVXOAUKGXx1HYItZE8VyF61+2lVQuD32ZNONAIj4xzKjdWlnRGyJ+6wRQ05MKr7KiaibpXI7vTMWmQLH6Pm19v3r8XUCDFgM3KIoA5wvg/avGu8dqJZCOIo26DI1Am2DAGTNqtHx6g1GlX7Px/HcP6WjL+PEXhO2rTDrbuZKQGHm70H5u9q5Na4GGUYnY732Z/2cbtlC75d5+q2mbQeM0j+HUf7u/rYUnO8wMMQqY8UK+WROxAqX7LnpDXp9yKTW/2DRqMvRCGgEXAjAEThGxTLkTpszqZjnqqapl46DksBqI2wHrN3ReJ8ACExUZ9m/4iALSZha8ciUX+Vf4v8m0i0PsZMbagTA9sNO+reK/CnR5fvTEA+bpnhRUzuXU3khSyAR1/puQ52TA+DXEYf2aRo0Ai2LQK1jcCE69BSECm02aM5+/0SIdlQdtCH1bmosNxW1X0DPWE72Pj7L278qXVXaug4yRTabH1j1c8M6Kkxwq36ySe6mixtiBBykCyY30LRffnl9fgdE+8TCNUg5hTgahri0itx5bUfF55ghjgtCk35HI6AR8ICAM4uq2PkQOvTEP5fdP++BDPRHVq2SR3BqXYDQhlrYLDWy8lWpsdxfU9l8PgpDoDDr97fkX51eag3EZcYYhuHgDMaJ2IvBW9gSmGDzozIE9kjaccbj/carOBXdGPRWKeMgJ/bxYTAN8y4n4twqdFWXxTozf1d5ozraXxju6Hc1AlUQcJziNrk6G0aHLS/jABy5q0JCJLcNY/gFnNirImzXQQg24yZ+9Zh8a2o8d10qm59AMASmerL528mGPYsjOFvNwFvbTbtK1yYRH3CHa8bgsUmGxvbzxK8l7+jDiOwn2TxbsnkJ2Xf0c0vYQqY6blhXYNBbo4yljU6Hy4hI1KCnfCwI+v2yEo76UyOgEUBCgFMr2YDOC51+d4YMH4lEds1iIPQweL9H2K6drNd6XzUievbI5/WMyR+lsnnIJnjAhzEAhsNDqXF52qMjcjpzomnYp2AbAYwI0te3fVo5VWtL3O4D7iBLyLzNmsbIe0ptlaTjSMk6zpeso9+nMTAs6bzlks37okyf9JRSeeWfzpZU3RMLwdtoPQgGcHm9UXw3DXt+cDp9RQ3MZ4j4YBRt0GVqBNoSAUqH/9PL0SnEDp7NEPsdUYLNDOuYMPvCHtq62s8++kopn5raJd+XysoTesZzZ6fGcksLqwSwZTCWW9ozllvSPS6/2zMmP8ws+W/VsIkkZoMhelXKogayw4nY5YFHfmaZ47UMU5me9xLJOz4n6bxTJZv7R8nmXS7ZvBWSzb1Gso6L/5lt8BeSdXxdmsf6ikyH7ZRaAZONUYeE5tQ+AdswrdAONy/NRq9uVOuP+r5GQGkECk470S6Ruzuu+1owNvImbPAKx48Ma0z/+I0AACAASURBVEmdAcRNR5DrLtgywabda3mcilMjaN/quIdrBnwyhng7J2IUuf37QBF7xR/7OdPc+QpOrDRym9xyvReCI2HTDeUxw/46J2IqQtrd7Zi+ZkTojJdRMFSX2V4ImIb17UZ33un6DGsb5rl0WMrmRNw3Xb5356LpgaXOu5NxSchiErGwDq1e2zT9HCPiUUiIFNcewLn1VoiAh9zu/Y32S6mE7+ZVm58WwRHcad4WZuiGtQQzHTczrC82eOXQ3Z79OglQJUnS9zQCHhGIOFynu7PWut7gZym9WtNAOXAionRiHGXM+kS1+ptxnxv2b5CVoeSGeJgxq+oWRDPaCXXCahGnYhi5vbGKKudKRR3hjNq6K50ee1ZYPjLD+iSn4glkftQaJyr9Fusw42Ex1u9rBCJFgBNxVZM7cLFTG4KH8UZnzPrfCBzC3AMOxVypwGQqIxacDnDTinF9L8xIMekMUxYh9hs4ETuR29m0Y6n1sHCO42aR2+uWi3VhEkRxQ7wf6+glQhu/XA9P/btGQCNQhkADU3a6B56q1yYRPX73oF0zphzCQFKRNmbYf417+tUozl6bhrgbjquViU3Dv0L+gghOckzEPaSsY/T0RSXXRYPZ+pJfhjo+GGMR0lWxH1atz7C2xXnbyi+++nmNQOQIQNxwTkSUg4u/TuzMYGEP2uvyMxgLnIhbqg4M4WfFeTjXDEZG5AwJWUHRkVNcFAEWtzTT2zqTHnolJ+Jx5HYdgr3rkJA35PW4yTilI2/kRFjI/Ag0VrhpgBwmDWGIrkQj0AoIMGL93N2Bgl6bRFzjJ/mKx3pW1ktsUtwPtgY8lhdkgMnCMqxKvHaMgMsiwGQFRFJsNBZFz3h85Q/ZAhvdljD1gdOeSeyzozxmZ1L7+nqrXJBOOoJtmHWcWA8iyOxk1MeKw/BQv6sRiA0CsKTKidgXvtNZ6WLGL+tLtXKvB6zn5mpKhxv25zgRsd0fbSajHSNgaUDMaxlKDTUCIEQxp+gG3hQn1txm8idM3Y3wc6nmVV/MnolsjDkngPp67dfjOBPaazBPOIThlX5XIxBbBBix70BQEDnGrP8uNZIT0cGJQN2HhyNR7g5dUG7UPh27nplYWHdieEiXcGnGJ2DGieia2S4UJ8Gr3fyIqm2MWS+MYHsqVhkpg2LXkJMuhvVJN31OKO1+ZHkSPD365lI93BC/wijfNMT3S2XqT42ARqAMAUinidLRiP3HsqLnRBENzCTiYqhHxTPS5fg08ruTix09HSsn1pVRGgFFZSNMDBl1lZGHkLuNxD/KuhoZ6wKMYQ5RIsP707hXl2ZFAS36JNkYRsY4xpHiKPmny9YINAWBDald/460h7cTyqrUCNMQP0EeLCQYAZwIil2uq7y9qu0LV8K+/B4473Eibna10z0IB742ibgEVmPK6wv73YlJwZDpBeX/3bC0xe39QnZLYp+PjFWZTFhXRpC1sGoekAwd/jiSn8PyuPFL06MRaDoCWOlwIfRnrcZwKhZFOzChLGeXBrvI46TXwirq3xwj4DZsfjBq/QmT9sJMk1hrkenMc2L/EJPOuJXVgHwXpX6C8Vk3EyhaJETDOipuvNL0aASahgDvHXk3RrxuOBvupREmEb9FHswxBqCyMhqXKc0LZlE9A8urSH4fZfjZ52PQDKtJEAMiAnn5GQZ9cS+jARkvy/geyAD3FHQJVoEwQj2bRKyPUyCruMuQpq+FEXCcwlIIA+wBzq3XeoGq4LBniEsR6sQYfCqVsbTaKQMv7VPtmUL+eSJWYvMj7PlriPnAiXgImy6T2GeqxqMw9DqOequwcUQqbwp8j7y2z0mRXKnP+roHuTK81qmf0wi0LAJODnlfnadSx/c7qDqGRwSOaIFmIMX2F2KX28e3LLNrNAzOeTNiP1CJt2HuBR1ogR4eRRZKav2yBgwt+1PBL4BaF4ThZQTv5iHZmB/QYdyAgGAItBx0nzTwQ4N+ViPQEghk1tgvRjozPxgkLKzjjX4jQmcObcBwInZQOvzelmBswEYUlS5K4JUZ/GDE+oUfkiCVMjfE/dhyAZEb/dDRis86M+gJbGwDlJdnhvhBEIwZs/4LJ8ug9WAUDqtB2qTf0Qg0HAFOrBsCdNwZgzt45oKHblDinbDD6MvPftpVSHO7xn5x0Da00nuFZXdDPOwHP0/PGvYZXnAqyoN1p6cy/Rw/M8R5Xupvh2cyRHwwgsyJ5eNC7e/UPj0M1nh+ROoGfwqDn363zREwqfg0ziBrXRkWyuLME3+v12P7loLSCduGVnq/6HVvr/GIX+2B3qWkGRE/rYVT3B0Sa9Gu2m/F6H34PPYkM1ScFRYvZ8zAyANhcT7+nLD06Pc1AsogUFhiJWKjp87qGsArPL8LHIwwGl6MQ2ClK9ThWcH4fHfSNOz5GLS3YhmEZJ/NCTo/IIHSyZXwco4k3uqTh/Vlg1oX6GXeSogXA2g1POW3YV1YmRr/d52w3/VloPYYBrFELvFfu35DI6AoAk7ykPAdh9onYkKQTg89P4Iwr7PaCUeJTDL8MUzaW7GsAj8MwZGVcr48JCv4gkDCGeR6JKP25Vr515dMxy9gEhv/CuWhh4tGyviZ44Z4f32k9BMaAcURMHuH/oMTEd4JyBAPRzG4MmItqDBwzFLiwZ+x1zC26+WKs7Fh5Bdj76OEYXXzMMeI/S1oRFTKnxvWFVGGJW4YAxpUkbMlOBa8X9U5fUPFE5QO/yd2c5yskHsR6KbtdPQXmw+6PAUQAIWNlF7zEHZndk4EnIsU7tOtbNzXK3QAEP+CCvHTORHrEAZZNy+mTCrmoUV3cy3zlieK8t/i9nyjkHkPZ2vQzWf39W7IWoiNLqfiVBTZpOJUbNp0eRqB2CDAiX08RkdhxFqM2SgnDwF6SNoKbR2EVLKYtLdLWU7KVwy/EbdCiOL6Rj2TCyaVJhEfwEkFXnM1IM8Nawnm6kwhxgERRoX+7le+9hMy/Opg6Om3NAIxRsDJEiYQOslWOCqG1VRKR94YQW73qh2fEUG0128w7jnLrRie11X5E0Y+mSH+ppV/MN5CDAxOxJ4w+Pt5F8JPV0saFqQFGTJ8JFIq8JuD1K/f0QjEGgFwiPLTQas9i7mEZ5KRL3AixqvVFeH91ZmM/YxYMyymxGXSQ6/kRGyOkDdBjYOVQYJRxRTmhpLFufVWTsRoE3g6yNjIm7Aay5HCizPD+iIWTbocjUDTEaDU/hDS3vqNGI0p+CJQ+3Qkiz2owrhP+wME46azV7yjCQqjIq8hCZXmZSheDjWRl7tMIj4VjPqZbxXjVwiMtmzVE4SZ2OpviiLg7I9RhA6+B8N7HjqWScVNCPRUVAY+y71VLxkHE2xC7DdwgjLYhuXjvVr5B+Ohs6UTh9WcKR4yMmAJAXAs9TkGVJO/c0tl6k+NgLIIQMfC6BCMWJ1hQTDT4nWcCBODHsQyujAdksJipNL7sHzbzJCyJhGPYPqjqIR9WFoLxzupNYDYj6opUj/3r4MIf2Hbxom4D6FdkxlDvD0sLfp9jUDTEHD2a/chdAYWdqYc+Tlj1zEw/+21rowipkHTGN/Ais1e8bYm7R8/ppdpgzEaojwWnGFD9Zmanv5+lH75s0a/MfSqYC0rvlVYnSpk9gxNY0pPDsJwQr/bVARMw77dvzKc1WlyrNd6X5iGNDDSWPlg4vm7Sew/hmljO7+bIfY7OBG7EGTNG7+o6B4cHHlmO2MetO3FI7dNygHg0eCASJ1hEowBNpD5EUcere8GxVq/pxFoGgImFV/F6QDioqCNgL1ZTsTVSHR4Uw4eB5mKNBni10Hb2u7vUWq/kxMRXSS5w3w19DHOYNJWzAGCn+65Yl86zK+g/TZUrg44EYJ0vHgXbJcEQ1y/pRFoAgIwO+JEbEfomEPgWRukCUUHI/RkMu7BZD8n4maENrrLlJxaPw7SXv3OnDkQTz3Ss+SG6NXKP5ikQaZFOC2B2l+Ky+w3opZZZjgwKv4cNFsnN6yjMGgzibgmGOr6LY1AExDgRPwBQ/CZYX0zCPmM2R/mRGAEHZqpnA8PDpth2Rn27SGTF0ZbXWXkGbG+E6Td+p05cxzeH3DhWY2Hfu+bAz07nqcx9o8A+O9AkCRknhwqnZeH/sKJOIhc/rR8gLNn0AienIhrEejKh92S8M81/YZGIAACjlPWIQShvydA9XOc/f7wyYYOK/vpgaDQJkM87B4MwAjACnLkwizHiTU3SPvb/R1I8hNRfAeRMYbf0u74+m1/VP2DGdYxblqc1R+MM/gz+/vhcWAHRCt01+nlGsYKpK2pdTrQlBfE9TNNQwA8VjkRq12KrFpnqnf/oN8IXYV4A9S6AKHuWrQthbzx5QAXEwlZNyDXPcUM++vldenv1REwqf1/nIgpZD645cGCbJbVKdC/uBGIaoUMjHx3PaVrwxh5KaeiO0L+H4R8JqX6vH4yQ/wAhSZq/dJrnfo5jUDDEWBEnIwi6Ib4lR/iDWP4BZzYq1DqPmzxuwf+gya1T6xFE+wTcmLdhUzDBOu1P1urXv1bEQFmiK9xIhqRU347xJPQuNdHAJLuIPcHyYj4aa2aC853hnUFdr1l5VWcCFSjq5kTo2o06fsaAVQEMJe6/ERWA+9vRsSWsg7qVt5hr3d6PYYYkZfzftjXRmVWixVmUvEVTgTGtpM3WTGsbYxZr2kxGFGbww3xK/Q+6WNi4GwFRigT1oMw8fAKmpPvAIOeQFujXunUz2kEAiHAibgOo8MzZn3CKwGwT86JiMLhq6QIVkMueq/0wHMRnXMe570j7/ZDR7s8CyskUTqA1ZDprTp1a2UpMw37lBq4lfqWr88gcTIa4Ay8ERR7ZRRm3+WGOA8DF5Na35hdur6jEWgSAiYZ/hhGsh+vx10Ke+4RLC+Wdc4umNEHgRQinXGc/ODTg2QhOIl2QpvBjkJ0R5yIa9M4l8lAvfsbYN95BlFt/sVxwsz7xLEOzsEjZTbgOPBe2H7ywnYIM4ySyZKKYRhjvNSpn9EIRIpAYc+NiEGEDj/mJeBFX9/25yLF2q426ExiJAaJKNb5Ts6t10bKUEUKL5yxbq7yL8nPOr+rRIpA7JtMJ/gXth9G6FwZsKXIqFiGMEaVeF7+mQd/By9he9ECpBnWhb4ZpF/QCGAjwKlYhNOx6oe8dI4YbsKpb1bIYejUo362IOphGVG2s61hY5XXozvuvzvppfdGKAflA3zt79QacB8NjTt+UdBHqfhMBFsxaNky4USCk5gswlMi1l1eZuaciNsQZDd0iPQo5ECX2UYIYCW9MInoqWc9M2b9LydiN0LHqTaY0yj2dJ3c9ajnk00i1mfW2C9uI1GbbqpJxAcijfZX+RRINZlx32ftGigIjGaOvxpznx9n4GkBqXPh+IxkIxxH1tU7KuokScMwYEMnSasDl/5ZI1AdAU7FPxA60iRE1atWi8tyzyHU5R6wp6+ZYf8VIw1otTY4HsCjyPQz2A6pVmcr3ofTGBEbgdMyEYRXkOGu7XjCrP/mRGAoMzf2q6PMtFiYuBDRF4THHt/ZzYn1pVp9ME5p0mvRqX/TCFREwKRinsfO4O7Ys65NIn5bsYI5c+ZAHgBG7Dsw6qlSBiwH/gyMjGo0YN2HKGIRKK9IB0qstmOUYxoj7+FEjFfh4yy58vgc5HMI+m6191JwEgSjzXEvw8nCiDybttY2Ar+GjC3UPr3a2AIBxbghOIL87aF09GVxlxVNXwshAJ2HE4GxrL21mqXfCCu9FEu8Uaxxlq/3IXT6w8rHEPdHsVTaKEy81JMxxNvBPwMVNyL2FY6JUXEqcrnAm9Wtni7Y2f4bRsauofkWGrW6yJj1b5XknBVXTzBWNm+sVL6+pxGIBAFuiEsxOn41BcwN+3OcCOSZxYyZXt19ukiAmzNnjknEp7CdpSDLWqvGCYftEzgCiSFvrjL2c2PkoyUec0P82vXbYeMqxOoAI+LRasZtqV5VP2EPO4LgWxubdaSyEf5F1QJHmcT+C4bsmdT6H1XlSdOtEALOUjaG1XpLebMbYZFzYt0ZNMVwOb1Bv3MivowdthayrUE+hKA0xfE9yAfBqcCeZe6vlFmNG/ZvMAbiGWUY4uFqs7844u2FJlhu5kRgn8TZXk1BeqEJ4xnHTwe7XW5jcpQZ1ifLaXWONYfOXAoGWavJWjlW+nuTESik9SSCzBjkgs2S9pd73MfprG4jYDYNcWwEWeuurneaohFtw6jD2QLaiSBr7kH4IKwuVaOPEWsxcn1Q972tskWTTg89n+M7z9n1vOar8Qv7frNijDjBk9xyGuga5BcbE12eRmAaAZOI0zAGSNMQP5kuFJbFzZ2v4MRKY5RdpQzP0brcdEV9jZY8yW2EtUCAEIhzEMES84SXZVJOxLlVZCjQoAxltcIWTdHvB72PjkMuj6j7mZ/yGxRldLk7ymhh5dMQ9yPI3STESvHTXv2sRsATAk5Qm/DHfQzB3Sl1GxGvmzHrvzw1sgkPMWItQOj4M5UTFWc1oSkoVTpnpB9HxuRQNX+TcqKLg7F1IXL9wJ9b3HJfXm+cvxdC2BriYWRM9kFAp7i2mxnWMZyIKE6JFPuqIXpB1kvtp3TkjRi+QSYRj4AMl8rVnxoBFAQ4EbciDAA5boj3lwiKW8auEl2N/jSJfTYCtmVGgH16o9sRtj7Gdr08gv3lKb/JU2AANYm4BJsnKvppFNJcU/F3ZCwOQP6QsPIS9fuNzjSK5odC7ROixkaX30YIOF75MxWMe9nZ4zWj4s8AW6NydqvkFMeo+D3yIJtnhviBKmJaSCdNrQFkDKZgJhcEg8JKABFLkemBPrRCFbksLIcTcSMyBodMMvKFIDxpxjuQ8pcTexUyBu6x9KBpWN+Gtjl5VdYh1LXLT6riZuCq61QEASeDFcaSrMX5+HPgqA8nIoUg5O5OdPi6EJLUPl4ReKfJdBTOZci45EuDy3RFMbwoJE7Cdy7LQbCqMM0Fh0pORBcyT0BWY++s6bT9WuS2+16NCcM/rHcLzs/U+hMyFofHrOIEailsERUyXHqcUNWkx7CuwGq/LqeNEWBE/K6moHkX1g5Y/kcKIFTeeUrfd2TI8JGqsgtmXCa1r0fCu4TJlEnt/4srJsUZljCR25yH7SWMNjuzYGxFKDkppLj9fxg0YpdRMEaRYn24+JpnxPoONq2NLM/ZspxwtanUx3A+DfEwrIRBaHKEOvKVjrs2Ei9dl+IIgPMcJ+JQeGG0Hiwce8NPGDLd8QqBV1ogQQ7MAiIIfzzBif35uIkjZE7jhugNL18zgjyhb32AEYA0KE/LK7SZUftyULZx4wuE50bmieRUnBq3dgahJ0PEByOITeGWi+1wWgUpENpgqwYIC8I7/Y4PBJwlwMcQBgKIt38vQjnuTjLjGnwLVPWwrsQSODfOcY4FuXHazw37I5Xqa8Y92A6KQvlzYv8wivaAM5xp2LdjyzGj1p+ioDdomXjpvV1GmWGfEZSeOL7XgGPL+znSqQuT2GfGEUNNU8wR+KeV+z3swS6C8iZNwz4l5lAGIg98L+BIDzJmu+OwRQLJXiAFNHLbwNj5WSCwPb4ERkAEqzOSE/t8jyRE+hgjVic2T0xinxMp0U0qvGCkE3EVNl4RlHeAc+u1TYJJV6siAhDxK4L46+7ZKMa1rcJRojD8LwRfwV8izzYz+AqEK+VEPIQ90DVqplM4Fkesu7Dph1MgYWQl7Luc2idwIvLI7booLF1xf9/xC5hExg1jfJwuAwJRxR1HTV+MEIjI83laIBE6iwHR4mIEWWSkOE5y2LnLBU+PvjkyoqsUXDxREsGRKmr9skqVkdyGKG6M2A8gyPGMPsGISERCcJ1CndTeGPk9pttjEnFNq4SlrgPfHEgsxYmwseUBszxm2F+v1w79u0agJMzYM4HpgQFBqK8DRdJOrHISsGAcxXTzYXt5PoYoMQWlGYFfg2yW0iwaM9aDCPLs5olkxPpFlHwoL5sT60vYiak4ETerEuugHI+g3820eB0n6KdZZshGSFkbanYStKDY6vcahEBxedPuDylomELrLmuKU/Wi22GxzhlgsJPjbOhPj7wEi8Zq5TjL5neiy5UhzqtWZyPuF7YzkJy1ZmDTIKc5blhHcfyTOfe0q+c5pH82qbhpBi+9H5N2j3WRXJvE/mMj+oWuQ1EEosiLjtQZdsFgpSisaGQ78cItJEyLg4wh+EDPjuehEVlWECj/KLzn4+I4B7OqKBwaGRE/LYMS9asTkyN8bg+XgoOjuO2ekrYQQ4Hap0eQ6RPDKMhBOndUQdKFtQYCfb326yOYDYQXWkNw7cV6WMYyhng7J2IM0whgRBA4k3+4FpwrOJqJlENiphxR64I4nZ8vxDMg1lpMnoBDHmSLxOHEzFIyxH4HtgxBdM/BwZFnzqypfb9BuGNOxDiyTMzsBy7jy3s91lqIa9G+nNEtr4gAj8Cz2btQus4Mu4QaZo5wZKwiwW18k/Va7+NEoM7eOBGPYc7eIopqGNvgOVHFNTAN8X1MUWds5E2cCPRVpL6+7c/FpLMVyiqu2MVwS5XaP2oFfHUbkBBwUl8iWJeVFXkAQyDPDWtJu3gRB2EjM6xPRrBicy/G/q0TPnd5AL7Xk8Gr4iwTzomNDHK7Iazxd4PISPk7UfiRmESsz7RABM5yrLC+wwSGE3EbskzU6yf1ft8NjsVYbWzlcgoO2NT6MSTx4lT8A1Y0TSIWcm69tSXa7QgotnNZPQGs9fseTsSXWwLciBsBOe5xQjXPMNxuCePBDQqaUbEMf8CzblBh6TKixEZTYRMbOamWcU+SGNa2djmOG6Yrw3YVnFaJIM5CrXG05m8Q2jpMm1r9XWf78lxOxMEqYxmclFsBMXNihYVcuvQpcuGSD+UWJX+cSyy+NJ9YfPdUYvHaXCLZl0sk6VQi+Vg+kbwtl0j+diqRPHHTA2YUM7WawlcFUFmYTRjDb4kVoDEnhhnia5wICLccCPPSezSzSxob98j01n2yR0zsSI3nu1PZPOvO5s1UNt+TGs+vTGVzF6XG5A97xuV7VsjZ+4gFByj8JDLQrhvDGCWNZqFzbHNjCVukz6qpjWXm6GdI3vE5yTrOlKzjasnm3i9ZR1qyuevgM8++1b2HnrNb0KvkNnq3HCDrQ8mK0x4B2wmNxlbl+kxqfYMTsR9JHkLxkBFLXm2uPm1B//IFnf3L/9w5sPzuzoGuNZ0DXX0LBrpo58Dy1fMHum5fMND1u87+Zd/uHOxqG147aZnv88injbCy1lS5lBdc8NSpxOKv5hPJW3MLk/tyiaT083/w3Aukvew2uWFVXyih8ghY5Tqo+HsUjmhNZUyDKufEPj7I7IL2j8n0tv2yZ3RKprJ5v//Z7vHctT275WfAGADlbxJxcSgZqGDEMEP8TSXlX2J5MV682ISMx3RmR0mOf7ak874nWcfDknVMStYh/fwfpD+Wgi6Tg9R/n4cooZQO/2eprfrTOwKOE+9mZLmoPKaW9SdKLHkHN+X5fffK0wauk50DXX7/d3YOdF3YuW65shlXvXAKknT55M9WxqzXeCkb9RmZSDwjt2hJZy6R3OlH4dd6dv/5l8ktd6UkN8LNKH0AWNjvV2F5F5V5yIWZhj3fK+Zk/bhcYx/yq/BrPb8lvfXA/ZzangYir3RyIlZi+CQgQ+25uEx66JWcCNTBvp9sPHSA/vwmyTr2+1H4tZ7dSxfJjbTHK+92m8bIezyDoB+chQAcu40iKFa1fmWQIXm9uVae2X+jX4Vf9fnCKkF/13FHyxUtdaIAZDvIZAr6OfT3WcyO4oacI580lVhyXC6RFLWUeZjf9p3/l+hXBKh4AtIER4FRO5ZZcE4ps/rdgwIdGJM9uIp/hlEAKwlkw26viqTmcxC/XGXlX5K/wvFaIna4+RDkOkN2FGbsefotXzP9Woq//Lc97Bw5QAZr8SVWGSVLGKv4Cata4OgcRBb8vHMbZ/KMgRuqKvIAqwDlZfV29i37bxV5UIlmk9h/8YOv+1lGxJbIfWLk2We/bCqRfDCMcvf67tSic6V1/UppEqvWoBDsN8PaxntH3l2JCfpecAQ4EeC4MpMn1C4s9QdY5p+h4L2+v3bHE5KzUKsB90K2teAoxOtNQuw3cCICO9puoGk5QTsjU/xuQyDHTpTbyR0z5acoTxPcsD8XL2TVp8bJw3BgVp8t78M+v6foNnlu38pyZR3V96nOwa4liVWrjlCdI5yIsL476yKLrjqZSB6VSyRHvCpwrOf2XHiV7E9trTQoBLtniIfBW1p1YYkj/QWPYyr+XBpQaGYUe7nfk1HQMzIpad8u3/IBKZAx4xHEhUeF8/dUDJf44vVzJ71Z5tlxDVH+bkNgjJ4vTbKzxL8pTuyj44Jlq9HhRGUc8ioT9Z67hw1EPeuvZkg8dnLmqherzJ8aXv+lvuDh0+43TfEiVBymFiW/kkskn8BS6n7LeeJ3F8nBRzd4aHzZ7HO25boUjliggqMLm4FA0RvfuoJldgV18POk5OutCPSM5SQZzPqRmccgnvqMxrTQFzg77CfN9jC9ruGK320E7GO/ln1kS96k9oktxIZYNsUwRl7Kqeiup9zr/Q5Ofj/pv7aagm7A/eWb5/df+4ZYguyBKE7E7noYe/qdWgNo8TGmEkvm5hLJnF+ljf08nBYYWL3Jz4DufvagHkg8SCDSI2uz8p2psdyheko66t97duUkGfBgBFDR3Q6hZB0v8F31BpER+pemKv+SIXCInvy4ZMf+G5JY6mJqIFA4fmZYV9STjWq/3865XNC/vAFKvu7pgaEfDS5rvFd8DWy9/sSJla6Gb4D7NHSelclFSz6TSyQPYSvzoOUd+P0lsq9nu1uxe7neyZjVMo4iXoWpWc/1jMvXpLL5oaiVu9fywQiotR0AyXTaKVVphgwfWStO/DC9PhbKv2QESNbxd7nqY8rv7zarP/qt1znRM+lH4cCy/6kDzZz5zzIKN+QgCgAAIABJREFU1p+y4coX+G17s593AjZ50WnenjFEb+Dj7fLss1+RW5gcDaqso3pv9yVdfo4Jro7MKaLZ0hLD+ldK+dRUNt/rVTk36jnwCWBsZFangURE7RhH3snnAFEvZ2CyiTwm8+zYuBkAUtJ5S2Io7i1LEmP2h73mbOimW+XP+v8ah5l/GQ3LHlDtmKATzhs1z0qgCY5MJI6YSiRTUSnxsOXuvOn+GQNX+UDmfO9avXr7v7ZsL41hw3qyuQsapdT91lM4HTBT4bHQS2Qx5IFXkkwiPuBO6tRPNspJ9v34Kf9ikKGcpHM/47Vt+rnwCBTDN9fOMgkR/Rb331mmeGfNxpv5+8/DI9HYEpyTGV70m/dn/G5x5hKLF4RV0lG+P3nWb+XgYxurATDJqX16Y9mma1uzWx6ZyuZzfhVzI58n68ZLMjOI5iSjMOsptT/EidgHBnOW/SGuyr9E11btD9BYYYPjsLVya6ww081U7l7qPqhiGGFOxaIqk9rS+OX/s3j6rb4/jTznnBflEsndUSpwjLLHL712Fgjg5cyY9YnGdhNdGyTh6cnmjUYq8yB1rRmZlJzYG/S20GGZ5YZ11Ca6ekKyeSVFG99PPvesw5Trq0YgUDjVQ+3Ty3N+rKE75M8G4rj0X7YC0d+1shE4YddhEvtsbCMAjjnXPekEiXowFHQjyijLH0AJGX41NiN0efUR6M7KrwZRyM14p8fO/aJ+i9rriUn+PepyuouvAcA69sr0MfHKgNYmosJ67c9yIrIlpXSV+ZiXGXgsnlkwuPyDKrKJUytZwhvx876qW+MymXxOLpHc0wjljVFHdun1hVUASC+ZTg89XUUmtwLN3dn8mmYo8yB1dmfzW1dJqb3KHcGTrON9iij/omFCO37dCn1GxTY4oaX7eslO+VMVZv/TCYeW3aEi3kBzxeiqM32ZZq2EezAW7qkY7TSXSJ6MoZgbVQaEC17/0ODZsEylKoNVp3s1nPn3n80PJdhP0Hp7xuQXVMcdi37JO65QygBgHVulTPw/rPbrcvwhAPEylvHuXoQ4/o1cHcidal7/Cn8tjcfToNuiyHTKiVgxS2/G2fO/mlFhd93xGCdiqf5vDgZrdzzBgyriZr23dngCYm63vcz0GduuyPPjJxQzAORWsvIOzb/mye/C/puHFTMA5KWZVSmFZeaykrOuh9m99xUBwz5j2syRid+9MJdI5qsp2rje33PRNd4bHH7pRNdVhiGcsW+WIg9aL4QJ5nTmGXjUjlWGUVzL3kwfjPN+f1XaIFJhXDFtdbrSZEdcIv75WkFY3HenlpnZ49KU2SveVjACphJLvhlXJV+LrqmzfiszvUOaubOZGzkmzBxVTvmXjAbaPxY5PnFXBja9vKqSjfOqwAF2etvzrlmydTszfSneuKwULBhYLsF3oVm4xbjeWwsGQC6R/GMtRRvn3zY+YGrGNsEAMNbvVtYA6N20t+1lZh/7lZIGABxZzBDfIcHbnt8YSuiKzKNKGgBgiNzDBrUMzNYTecgWOiefWHx3nJV8Ldq23faIZuxsxkaOSe/mvcoaAOlt+yPHB2PAjbKMSfY9RQ2ADrmeGG3Pvyhlo1rZ52XuVtYAuMFMa5mpoCdMQ/xkTi6xeGMtJRvn38S1KzVjKzC2WifGup/ecUBZA2Dt8MG2lpk+skVZ5Q/bE1vpPW3NP6w+7LecRP/NyhoAf8k8rGWmsp64FwyAXXFW8rVoG7n6Fs3YyoyNFJe1QweVNQDWiEORYuN3YG3084NkQGkDYAe9ra3512h5KdV3Zv8KZQ2AizMPaJmprCc2zMklkhO1lGycfxu7YoVmbGXGRorL2uEJdQ0AG8ICt+9JgPWEKW0ADNEb2pp/zZLd0wauV9YA+GPmPi0zlce8fdoAqAyMFpgauGgDQF0DQhsA6vKuWcof6tUGQEvKzR69BVBD0TWzw8W5br0FoO5goLcA1OVdM8cEvQXQknIDWwDqOgFa192lZ+pNMGC0E6C6g4F2AlSXd800AFR2Arzc1E6AVWTnHsWPAT6qDYAmGAD6GKDaSkTpY4CU6D7fhD6v8jHAFbxXy0wlmaHiVPAB0IGAKoGj71XtNDoQkNoGgNqBgHZUlcsqsxz9PMJYpgMBqd3nK/SNPKUjb5wztSj5jTh7+lejTYcCbp5AMj6i7CkAHQpYSJteoeRJAB0KuHl9/g5FQwH/uBAKWIeMr2AA3FwIBaxsMqCLdTKgCkxt2Gxnja2TATUT/zB1b6YPKWkAjNDLGybfYfBtxXeVTQbUr5MBVZDHKc6tt05nBJxKJFdXm2nH9b5OB9y8tKCQXlPFdMBrrIM6HTARS/uMLUqmA95GV96ucGpX5dNQJ/pvGYpLkh+vdFyaeej/t/fdcXIcVf7ijnC/A45kDjhyuiNj4MgZzIHhSAfmsHZtjDEGDJZkG2wDZzxy0Mo2BmzjCMa2Vk6SEw44yFiO0uxqtiv07M7Kkiwr7Xb1hlnlsDtTP7+ZHm3v7PRMh9fT3TP1x3y6p0PVq+97Ve911av3VDrg2UtApx5U/nBSWLj4J3FV9LXomlp4nnzy8cELpJTPmtEQ9adpCPTm5aGVDHtJOa4el4c3DaCYVyRZ55/jnPmvBm2bpEz9Q8xhbVnyBgdHXtjNezS3ijcmzxVOXLf0NUlkCug2nYjLany9B5oFY5p50yy9KVOpFxdSXdtrKds4XstfdVMJBGgMY8bzk8jgVqA5nS/2JEX5p/PFp1dK+exWwB2jDZId9eEaSja+SwO08wyMdqsyvCNAiPlWTkQ/pNU9NXdTYiICzst13+m9tfF4QyfifGzlz4m4f+PKjf9Us4WF1OLz4qjsa9G07uF+uxVEGTPeWLNR6mKoCPTk5TcSYwCYhdNDBSOBhU+yH5FEGAG8c6fkc1+SQIgTTzLrM7/EichXlNG1+hNJMgA+lkQGcGp0VfBGPD7gqPwBpJIz4JldE7UUbpyuTVx1o135V85HmWZ8PonMTjLNTDO/vUYcKMbdCOgZmZSMmE8OZEZelWS8MWnnmnHYerp6v2Sd8f3qZx0l2gS9ZlcpdzkmAKqsugjANDGn5mmciCm7ElpTmgWIf16Aebnuu+s2MKY3dWKeY8cb41wn4jFXM+WF1KJ5cVL21bRMnn2BHHxifUXpVx8nQWBjyteWI4tpxtc4EQfowFjstwSSwYmKrAxme81XthwzPDaIUvMTnIhdMLjk6e9jbQAcYD+TWbJVcs3YPKANvd5jU9XjPhCAL0VGxRIn5QOBdWKyxu9Ex76Tc9f9u4+mR/oKp2KhE+YBrj/iSvlDy+WyZf8Y5x0B225xldZx6apVW/5fpJxs8coZMz7HqdhbEcrMpl2xNQIyW/dWlH/lyHI9W1/W4ixybJ5OxMc4ETsrvBsgG+Qk/XFMjYBO+RR9rMI3qRPxpDLgHFmLckPXt72WEyNTkY9aR0YMubj/HiflG/31ge7EfQjqmjiqFtYBr60C501PgiHPOee1hTO7Rqu/vqP+v/3ypZJrLgNhaKIvmxl6naeGq4ddIcD6jI/YFQgIKKOm7DUOxM4IgFgFnJkHFUilMzEiSH//lpe6anALPWTxbkcFh8pxA1kli+yo2BkBgv5lFu84EawdedcMMWTM/CQnQlTkot4xTTfLmCYI+vsRctk/NgMvrDoymaFDOBGz+mU9/Bve00Qf5xP+/GYmU12HFVJd+6NW+pX6d194uezv3VxrMKh3bRsMeFhMUuXMmZPVxHs5EeO1hI/po7JndCo+RsBYQdL+sXryofnuIAkUBkrN9znxDvg5RG+OlQGwg50rdeIYwS3t+csmgTxrJsmcGMfDkl6tvu107X6Wk6cMXB/9F3+uu0LD4Clrbzikmbhh1IU/9W9kCMm/OBBtU6nF3y2kugoVJRzVcd95F8vcqqfqDeT17u3TNeMHgYBQL5cQgLjRnAjDaTCA66Bw02OFyI2AnrGCJLl8Pbmo3PM+RZZAebAMt7F6vIN7Jv1zLIyA3fTX5XX/2QFMKnwDp86H1FJfcGFct27d87hmXN1INpzu38m4XDCwtKKAozxuW5C75g3BEWl+CRy+1uvIupd7qLObU6lF3yikuvZGpfz3nv/Hek5/BwcDFwBdmcnI5zSfta1RIyyncCI2ucBZsuxYpDMBPeMFSQZdKf+S/DAiHs9mzRe0BqdmtwJCfupEjLjhHTwzTG+I1AjYxc6UWbLJbd++HxTY7FarK24Q0LSRf+NUrHYrG07P3c2z8uRoZwKemjdw/VvdtDmOz6BN/1Mjp+viFahtnEx1faaQ6hLNNgJ2XHqtn2l/54FDE4+ig4OKdDwLo3T01ZyIDU6dv9Z1WA7oFc33CYA1/wbT/rXlQxOPuvaUjSebalIFW+c4FcO1eFTv2lZ6hyyyo5tuCIyzi+tN+9fkHdPErStXqgBPNQWgzkWuiY9yIobqyYGXeyvYYFQ+AY/8fP2Sf63T1NjfsjtUe8F85rPmAGNGODjIc899VTG1+MFmGAEQ5nf4pvukToyaHX5mo106BU5Pr2zRtZH/jL1ExIRATRt+OUQA84M5OAZmNu9u2nJAZuseyWo4/HmgvX6gjJjwxC0ZVvS2bR7aP6O/rSN9ch9b0BQjoMB+ILfQe2bU75Hua6WUKkywS+HQqejkROzxiHFD/vTSLfL8/nubtQwwOW9gyTmplSsTH92TE7EuIC/Whh7jRM6Rz5pKLT66kOoywjIEdlxyjXzykcGGghYILCr2Mk0c7bKvtO1jmcz4ixptB3LDB0i/22uGNxsAQX68TPnXo1nXxH2tMKXc32e+hROxtV5b3dzT6TZp0G5ZYMeEZghMsAtkjjwZvM9rxiVt21ldNhxmSrhmLHbD+yDP3MFZyLMBS1ctyF5/qMtmx/4xrokr/OLNiHi6qfEx5AUXPL+wcPH8QqprK5YhsPPiq+XGezPut/lNf9H7HjgYNS5atkwmartIsyQ5kxn6Z66JR/0KZa33tLXb9/aMFQYRowZuzGzZ+3eYaahVX4Brf0uyEWD5a2wM0P5ZeA6Q9Qd20f+7UfKO7Uihg4v72EnZ9WTNrLqC0A1R1JrVR5JWD8S+4Jr4exB8vbxLyLCEgEG/GliONyMw2E3mDy45Yk6LJYHjfSMf4EQUveBrPbsxsu3uMpV67tTCxV8vprpuKaS6dng1Bvaef4k0l94ln3wkhzoIeAKRinvbaSuYm0Erm80+lwMuCEaWrYw9Ohn+DIQXXT0uP54eL1yRnigO+zAGRtP5wpL0hPwCTPlaGbMutdWDIktJXVcuB3Hx5q/hArspnRr/C7IjM0e8SLK5P5Cs4yHJOvb7MAZ0STvPkOyoUu4Orplnu6jfG081U+V8qOro1i4QVKPQLd8oGZb3sKz8Q3aF/MWArxDCmxYMdP9hwUD3+6ua1VJ/ORFXucXUem5TbHLgyFTq2fKsRR8tzwwsuqyY6rp3KrWop5Dq6i+kFpOpVNdjxdTi2yHh0FSq65h1D+lLPTbW2yDgTXmto3T4nS0lTT4bAzsldM2EnOuYeB/QychXapGUHpPvSE/I43vyhQtX54t39eSLT6TzRbY6X9TTE8XV6YniPT35wsXpcXnCqrx8X6113lLM8gBTaHXaujxJzmWWs+b6Ou3xw9MpphlH1uKdZEc9X9K5X5R87mmSd1wtWccKyToyknUMlo+dD0vecbPkc8+StPM7MntMzRDMjIgLkGmWnBon1aK5Ha+B8caJ2I2OsY8xAiIIdvPVJ88fXDJv/mD3pfNz3ffOz3Wn5+eWZhfkuun8XPfjCwaW3DF/oPv8eYPd3z+pv/st7cKz0nZMIla45NN6PSPenFhs1qXH/oUT4dtBySVIXga8HToV30wsoAiEg3LlRNyAjO3Br0cEEh2LANrrxS732yadiOtqGR2OhER0A7x//Tpr1sFmCpzFwm5SyYAj4so6dHjpx5Vni+0e/wOWN631fj9TyxUcUY+Qvj1seUpy+fDBwYixqM6ugCJg2BKhzOHLArnTBxXWInSYJAz42EIe1iDMiHEcNq1O5ZUGPCLCmFm6Js4yYe3UyCL3pSInxg+dsMa+Dvgm1fjExgKjPOsD66/IMhF0fN0Os1QY7Wv1MiA+g66ZJ+rUvJETsQKWJLkmzmi5mWpOjHtiJqQQYewu6ECtLmT29oUzDStOttfRjHMwAqxOE3SwmvE+o+afwUhqRhu81AH+K5hRxKy+WNQ18WMvdGA82+zlJwya41hGKWInNXJxG1c5NX8WR7wUTREiUNquZMsqFxuh1QTn3HhThNA0repWc8QCRcKJuANdlqhxcdOY4qIiiPXNibEGuZ1FTsyfuqg+lEfCdEANheCYFQq+NpyICWSZmGEM+yvbWKN2XMVMWOJCDtfEb/wJFaqjWi0hH9OJ+EJccAqDDkaMBdjYx2ErFigSmMnBbhsn5u/D4IPXMiFGg05ED3b7GBG/8EoL9vNhbEHlRGzPkuEPYtMal/JKS3jUPI0TUcCWCYTyCpQOfyguWCk6YoZAyeon5gCCoNVS4kGvTXFqJi63tBsW69Q81ufe03qY/tFN3c14pixXxt3YcsWo+G0z6HeqA0IWY8doKGEUo+1zWEGoqnifh4yITrgm9TrksdCpuKWqrfX6aFPv6cT8Q1KxVXQ3CQGujXw6BGWEKeg3wJdJk+AIvRorFCjq10IcPeYhW1wYwU8YEanQmVSjgtLXMTEexh7sGTF+XaO6SC8FCUNdBx/BM6Nvi7RhiJXDVjBOhF6nvZhjoPeyqBgGYw6xyaqoVkWAE9EdW0Eu73nVmhpyMSRGcyK+wYmYxMQ6zoFzykrTXInZ3lJZ1Pi/kFhUs1gwZiAFLnY7ojJmajay6qKfRFQu8NlCyHAi08ba4dGp+C9OxLiL9npX3D72+Neig2nmt+00q3OFgCMCmczQIV7SltYSuLCvAX0Q0c6xETG/wTXjME7EPmScYp+StTRtTsQjyO2WOjF/2QyWW8sZ6Dtmol7OcIOdl1TUHvi7LvTkKW4a5/MZTozjsY14D9i5Miggr4bP5qnX2hWBZ1KX/ghbEEMob1LXzHlJ45FOxMc4Ebsw8WBEPJ6UNLqwtTMMx7lnsqqdGqYstLpDoxvsSlvbiDAwZRemzpMWUGXjyo3/xIm4BhkHVwrdY5172mUXlRv5Vc+4RMAKCPKER2GrJcBTEEABoZxaZZeuMSouh8HZZdMifQxSIIMnNCoeVKweHBx5YaQN81h5ad88ERoqDkQUGREneCTF1eMgXyGEZpaQCMsVATF6CBz4OBF5XN6ZvUmJ+VHO82BkcNs/YyfVbizn0mbNjMVIPBUpWAgwZryLE3EguKAbD+uaOKpOWEVH5e62bvgCzvaaNWOcY+ERtBwLz1G3bXL1nCZ4f/+WlwalLYr3S/vnNdHnqp3u10KLTBM/wWwP7JuGsJ/IdMq4BjVygx3rMz7CidiJjMkTcZ/FyhLx8WdmR4eR220f/7bo1PhvJANrMMnZNN3IoXomZATwItMZc7kmPsqJGAqx82yN6z5XKy88att1Ip6Mu9HTSDwtD3Ns72kIn3t8o7rd3LfCGl+PL7PGX+Ic1tgNNowZnwvBqF8RV6Vlrffvx5cF6+tfE4/qungFkrFZzNLhz7rho3pGIeCIQNlzWzyFIPQGTPtCbGVOxWqE8uxWs/18HyfmMY4NiuAGY2Ov4UTgpgDVjM2tsBMC2BFSAp1C0AQ61jIY+o6YOG7T9NstmGZ8DWeWcMYU+O1xyv4ItHBqXBzimAXj15WlEMzlHQX28cznufEXvzxV7ykEZiDANfNwDOHXibgMCi6lW9SMqzHKrFNGqUPNaEgEf0rKDT8euGBs5D8iaE5oVcKXD8fHyTGFbqOGhJSUCQbzZXFSbo1wcHOfaeJbnAjw9fGprGq+1x2HGZLyDFUIW1ensdoHgcAAZysN7VoEHMeAbje8U88oBFwhgBTTvQDLAJUKrSk1BB+DmgOI5MR4OMqOUI4Rj+voBtsfWy4TlSUQ1kzJBoQB0K6IPKdBBuUPxioyHTLOMRoqfdLvEWbd0AOIacbVUSZ+AmdHRsTT2HJgK28b+FJUMMfKBVIxKCrlqqNCIDACZc9XBKcfTXCY6qoQxJj5SU6EsHUK++CNcb4enO8q9TXrCM5M4JiI3K7tsIugWW2Ioh5rrznucgkRB2Cq2k17Sl/+mnEJMt9Ajm+3y70bWpL2DKRNxcctmpwPVor0PfjtOfixssoe/8DaXhk4LohOxGNRGk1Jk1lFrwcEdCJ+jtIh6Mz0tE3YVrMTpik9NDXQo6WwtwR92nA318xPBSIsIS+Db0MIX177wbu6EQSciPNQZHx6ildCIJa4OrY1wsPr/VASijUx0mPJ6VMzFmPLQFV53TBGVLAtG53i71XP+Pn4mdT7xHsq5aqjQgAVAVi7ZEQQBEHdXR0CFAJrMCqWIJTt1HGKXDMWh72uWE6Bi574Zj/4YaAyM+aFEWK+lROxDVke9tXDkRFjEXJ9IIsPgGzHHG5U8kIxooj4OSqRNQqD7bQhxyyZrJXQjBHzexhyB/Jbo1nqkkIADwHYZoeU6vK2aqpKlnA5lSa2Q5HNKDDuCSspRkj7xac4MY+oxqod/oOjYwh7rnfX2h6Ftf46YyDXxKNx39cehhxBP4bgXDOwsM2I+LyOtrWzVps5N97NicD2P7GNO2IUtk1W120ZHYGXQGHGrB1lrRpP9b8JCHBNXOGzE9s7hHRal2V95peQAmHMqM9G81q9b+jtmFDBoKcT80+2Opzq9nIdsgR2YNKZtLJgYA4hL8VuyHpZwSKMaetSYKqs+YJKHe12LE9ro+/0KcDaPDaWjBlfRY/OOdPgodUznpU2YI0Zbpa3KnWqo0IgEALlHOEoAX02QQ7tWsRYU8D9yArVrny3c2J8vVbdfq5xTVyITGtR18SP/dDSau9kNfFeTgRuBEUidpUcUKk4GZlvIGOrkhaaOQyZsYIoLUPG9wAobAx6bTOOqOm47e2FoD5O6csZMz6MNJu6HAMPVYZCwDUCVh57u0L1e36eU6VgaDBi3mXvUMjnU7AmBwOBEw1urnNqdCHTBY5jp7ipu12esXIoTCDjvBu5POgD6aTEtG+G7Fh72+9HxZmKvUwzPh+EfuBR6GMLEac6jS0lXyFNcARcdkCq5iBYqHcVAr4Q4FQ8iCDAk/CF50RAs6x0v+tnjBi/RsBghvEU57zwTnxqxnUr/jxuIqWZU7Uz+OCVr+Agm9S8DGHyr7wrBj0F9G6YwfFDdzNmF52WNyv0woeHV/mq9TwjxvxKmeqoEGgqAqWORMXeWoLp8Vq6kXd+M9bpGDPe6AVATsyfemxnQwWTxOxwXjAL+qyVSnkHNu4I5bGkpbQNygsv78MXNyfGGgSc7X1ogveNfMALHVZUU+RMhgf39gNtDf2LrFgXGImUWKtFlfTCS/VsDBDgVCzE6NSMGMc1ak5TPHVdTi0yTRyNtH5nH9CucZoybIRNO92n1PxECJno7Hzwdk6NHIQybice+GlrJjN0CCciizFe2Mows9rwOxrR04yZRE6Mu93sMOJE/NVGvzdZm56xKtijCDZqv7qvEAgFAWuNbxBBoMcgbn4jIqPaq2unS6fifzgRkwhttnf+5eA0Za9HnTsjwDXjsBAy0dn54fZ8rT2imzPF6g4gYCV+whgv7PzZyrnxJieE4xRjxBo77LT7O9eMS5zaq64rBJqKgE6GP4MUB/xaN4Q3KVrXUnu0rgpdejlbV+CQnVXGw19bPUxsBT/MY4kXOEtQ/gZhItZBdkvMNrVDWVZYcexwz5tgar0avzhFGbUyqwZvNxXDkGekuq3qv0IgMgQ4ETdUKTU/g2qxVrAMp0ZZ8brD8OQu066JPvugkiXi45yIXQjtnMaGigfbLVKcEz/9XLdiRmAbZNP8mZ5yrb62yWlvt592tNs7/X3mW0II8rTWvhQTtzwjnIjfYYwdOjX+t93kRbU35giU0rkSMY4g4Gu9xE1vVsYua88urvMZFaud4iDEnN2xIk+n4psh5KSvVvjT/zVjs1eH0VgBFhNiLJ+eMYQxY5o3RFDOJ14St0yjVlsxMp/eHxP2KTIUAjMRYJr4CUpn9pj8I9trvjKEzHv2QQW+MHH3oGuiz43D0EyE1T8nBOCrKISc9HYZqJxvqbfe7ESful4bgVAMayIMlHHIYfaHUfFbL/46sMMJ4kMEpomKvTBzUhtJdVUhEDEClqCvCizoROyDOPBemlNKVESNixDqrgz0YR5nTFV6aad61hkBnZrfCdkIMLBDSDu3pn3uhLK05qC8A40PJX8T8xivnEH7MNLEGV7rVs8rBJqKAKSjRJqO9TXVZU397Q/U0cMYPKbLXK8cx8ITSSuzWhihXYWb7Wbhtay1S9aJ+AInIgpfDreG/tYsGf6gVy5gLo0qXyGv6KvnI0EgameXJjj/uB00qp/botaOwxVJi/d7QjAAdRXoJ2Teaea3Q57Bqe6P7v6Xszo23KJcCx1OxPUIslislcGyVn3qmkIgcgQgEQonYktgwQ+w3QXiY+tE9ASmYfrL3d1g4fy8q4AlkTMvwQRYoYJxHTVt/FShfsMXjpACbAXpu1dms9nn+mk51vZonYjr/NSv3lEIRIZAHAJewJQZJ+KaGBgBE4yNvD8yZrRBxbAbhOPsQmmkLDTwMm8DSCNrYhghtn2MAZO6Zp7oF4RmB0jzS6d6TyEQGgK6Zt7po+NVD8CBQ15afgHYkfuq6XT6vxtC14YGsip4TpaYh3IisLeTOfFTcipWq3S/4Qoep8ZJCGOHMw9tMzs16jHh6z1ICyGhV41yfdBj/DAIHepdhUBkCFhJLzAC5wROesG1kU9zIkycTjkj+Ue9Tr2fUvHFyBjQBhVbTqejTeYr8PwJFcMhXAFjxFgUAV+1AW3o9UFahpUkDZYwGyVJC0KnelchEDoCcUp7qWfEmzkRepMGlQOQwTCs0qe0AAAgAElEQVR0gNu4AtgqGkI0uXoG3Yx7OhGP+U0j3cZs89R0rokLm9RfgbfX1wr/7YngOXPmoKVJJ+ahXutWzysEYoUAxLhHUrrbwbEvaOMsB8Xbwh5UVLjOoJyq/37Uyt8mP/er7Vn1eRXkLmTxY1QsseE9wwhDuj7JiLEgCJ2VdzkRHRg06UScXylTHRUCiUbASt9aROgYyzGAaEZqUEbMuyAHOga9qoyZCJTiyBOxFUGeUJSJron7lBEwk0dY/ygd+XdOjVyIvB6DzJIY9EJkT07EEAKtm9TyEgZHVBmxQUAn5p8QOobkxPwyVqOQnBSdlYgmuAobi8WtcjkQR4FrxmYcWXLty+HM42lnsjtURkdcXnNifJ0TEdq2TpAhRozjsKjmmrgCQy6ZZnwNiyZVjkIgFgj09295KSdCBO0gjIinMdZdORULg9Li8v0xiHIWCyYknAgrjexTLnF3o7RRn2GauBVCUicc5sjJb8YMnU2G9oCDcNBGQ5RATgRGBMrbgtKi3lcIxBIBTsxjbB3P9+AL3sFBGsiIMR+DDg9lTIEzZBCa2/1d8P/gRKz3gLlv+QpYx3JlBPiXVpj61qm4JSAPvPJ+u58wv5VWAr85ERoCzbtViukKqurYcgiULHtN/B2ho0zC9i8/AHFqfp8TgeGP4HWQgedvyGSG/tkP3e38DmPGv3JiDiDIjZ1nUxB1LhwHM+NmL9ni2pm39rY3eZeOXRbgPA/xJOz0uD3Xifg5imxScbLbOtVzCoFEIlBy6kFI+gFbsMCg8AKC5aGLMU1XPXh4+R94n7GXNif9WU0bfjknIosywE6v1xc5KQdYAUXNiViKXD7IwzVqD7d76dOp+K8mRXKs11eF1yyk1rLUzsDyowmufEjcy4t6MsEI6MQ8J3CHgcGcmt93C4PlUBRVNMAZg45OxEjQSGNu253k5zKZoUM4OFJOK+4ZOPq8XtQ18WM7LmAE6NS80Wd5jjQxav7Zq5Fqp6tdziOO1DmTf5qx2cs0PCfiDgS5KXBNfLRd+K3a2eYIQLANpPXcMfhCbAQn04zP81Iub1Sv75kDh3clBbHG5zWivV3vE5J/MSdGBmFwtfOpyIg4oRamVrwKjMHcXp/k1LhYGQG1EJ8zJ0a5OmbyjIh12V7zlbWpnr7KNfNwDPlkVFw+Xao6Uwi0AQLWlF91x/P+XzOurgcXWNaciOBTdN4VvNu2+M42Vq/dSb5X3k9t9mIMrvYyGBG/qIcLZH2D+A32d3DOzd/Xq7cd75WdOvF5jMMvIWHmCXYuOfEGfHk4ERg7UgyVXMoJZXW9pRHgxLgZocM65srOauK9MVhXbGgIMCIed/PF0dLCYDUOtnhyTTyKIBczcdfM093gB0YAJ8bd+PWLC93U3w7PZIn4eJQhnN3yFmLxOyV9gkh9bstp8FxHO/BctVEhMAsBTRv5N07ERIMOMnMgr/0l3l+ds5vS4XfCWjtC2W7qD/4MBLfpG/nALJDa6EJpCxgRj2HzjBHjV15ghCUqRsyHsOmA2BNe6GjFZ5kmfsKJOICObe1xIXi/JObK6vwAnBvvRmkDFQ+2Io9VmxQCrhGAnNsYg4FOzF9WKrW2E23DKNdWxjpQ0JAK1nYNYYCZ4ZewD2IlVNrRTkeYUg1D6epEnOkHx/IUr7kSndfU+D8/9CT9ndJeeWpcjI7nTMV/ZWldHt/f54F169Y9D3gAOzsgEyRCO/bxzOjbks5XRb9CIBACVodKI3SoPRB21woYg7E2N63cbZ7BMBBwzbgagd7p8mcOYnD9ynbaElTClIi/YWPKqPhtEOEsLUcQ8Qg2XXZjNQh9SXm3vJUzBGNqut/s06l5bAWPkHb83FYO+GMcjyEPjIhUhV51VAi0NQKlL2sipgJ3rHKQocHA5UwPLKCMhyD5TDWDwIOfExHmtsIH6jkhVdOT1P8l5U/Fvcg8k4yICzAwCc8hESf7HEYbwyzDCpG7BZu/tvK2MmZ8uLoNYcT8sLaKjtnqrmfEO97TiXhSJY+q5pj639YIwHapoB0rhPfrRgdjzPwkJ8IIod7K4LGeMeNdrSoY1ta7v2Ljx6hxESZmZSPAWINMZ5ET86eYdMatLE6MuZyIPci4VfoGHFcNZEZe5dTuiKN+2umceY6UfdCp3eq6QiBxCIC3LY9RildOhKv44IyNvYYTdOVgHzB2Mk18K3EMbUAwBN9hmnkTtnIIK/hOKS6BJvqQ6S2CU1wDqBJ3uxRdUTMWI2Nl7xNw3l3tnFcLqAjyflTTWf1/aS061TWFQNsjoFPzOyEPGtWd0em/pwxhMJ0XTkz5gw6CRa4Zi1sltKwVfvd6fF4bfwkTIysssY5MN4QlPr5VOr+V9XMFMkb2fjrpNbFWEzN/2umsdb4ddj61Cq9VOxQC6AiEE4jloCKt1Smrr+3nxPyy14aVEh1R8zSO4csw0wfBRp9xD0xHe6UtTs9bTp/dISiIa8NU/hUMy4mJRD8y/QWdis5KHUk9QoIuTsQGZGwOyj9s62XM+JwffBD37R+kx2s7q0NQ+2mHekch0NIIDGhDr+dE7PLauZCen4JZiCAAsz7zS5BZDImeWoPNWr1v6O1BaIzq3ZKRRMSVIWCzrJkpeHVdvIJTI4fcjilYM4+KN0HrZcz4KiybIWNil3/qJUZ/dXtKsqeJK0Kkz05rjXOztxkGanW71X+FQOIQYMT4dQQdtahrxg8wwIJdA5ygfyXaB5XtTDO+hkFrs8qAAVgn4jJsvjJN3NpM5V/Bq+z7gf61O6VT438rdSThaJv5Ci3LJviKYKTRtmafQlh6ajjDOEWp+b4k8FPRqBCIHIFyONZQFahdmcI5ujOW5dR4G7bCs5UHiW1SMABHzrAGBJSUBBF/tNFejb/f/7dHGS8hmxl6HVI8eHv7DyTFuLNk/PYQ+FrBYwrW+zFl3PI/WR4izRXap4+aCgPdYIhQtxUCMxGwttgVm9JRqXnazNpx/jXr6wgC1uBQHE4pnIjzsPmoa+K+SnS2cKh2VyosWTEinkZu336dGv/tjoJoniLEfGvos1zM+GoYrSt9YIQQe6KmDGjGZghxHUY7VJkKgZZGgBNxTc1O5egk13Aqbtoqr5RBxVlhg9iM9VHGjDeG3Q4/5TNiLAqBhw/EKZCKpQyxQ0/7ckb1wyOv71hpcEP1cwk7TG4p1HMYSacq44p11Kn4pld81fMKAYXAnDlzcj1bX8aJMENQIGVDgBoXNwtoK4FIaB7SnIhRphmfb1Z73NTDNfNsdN5p4tE4zngwNvIfIWS425Olw591g3UznmnGjBZkYmzWThcrwFMGXUanjYC/NYMvqg6FQMsiAI55IXVQ2DbW1PVza4/0AyG1B4waz3ukwxIcSMKD3c5S2uQYT6eCkRdCBsrdXBv5dFh8clsuzLhA8B1sntrKiyTWRSYzdEhISxm74zor55bn6jmFQOQIcGIeYRskZk/hT1vbru9BTG9wBoqiceWEIuJ32G2ylwfR8KJcH+eaebqdHozzuCv/iixliXkoJyJwvPgqzHawPuMjlTqafQRFxomgVTS57m8u3tsR5VS5lUAMd3aOiuEg2xabzWNVn0IgdgjoRHyBE7HPxQDiejCKi/MY04wjORG7Mds2oyxN9IGXulumrtwo/2nVmPxYz4T8Qc94YXF6vHBleqJwY8944ebS+Xjhgp4J+aNVefnplaZ0dGpixFgwgw4fBtqs9yEEL594idu2RP1cSEbABCTWcWqbpEe/WtKO/5a04xRJ514iecfVknUuk6xjiWQdl0vaeYaknd+R9Mh3SjnH9cyX5YwrZvEEg6/lMmKR7wL6SgjOnOtV5D8niVXXFQJ1ENDJ8GdCSSRCze/Xqbapt5qQKW1brUxplUY+ulO+PJ2X89P54kPp8eLedL4oXf4OpPPFx9Pj8vT0mHxNpTxdM0+ELZW4ysLIQBz+Sh1JOcIXewiBccbAuKhgIFnHR0rKns1dK1mHdP/rNCXruEnSjm/K7BHPrZRXfWxCxsv745TxkhMRxpbGLCwzVGOr/isEFAIOCFA6/CFOxA5cRXJwh8BonDpkeQ0y5FzpVQGOevPy0NKXfb4Iityt0nd6rpCeKN6jrdsByV+Qlb9g4AjqICaxv6wT8TFsOdbJtvGd9IyFknUMuFf4dY2DUUk7zpaZIw8qqVKKZs24OqT+V5mtuzKKAE5OQmNF8KzQhn2kSZrBcsJIXVcIhI6A5S2PvYZa3aGvCr0hHiqAgRBS2IY94LIJ+cZ0vnhLOl8sIij+WQbBmqF9kmZHq7H2958aOQi56wHGWD5KqfkJTsRODN4+TVbIA+xnHr706yr+6nJ2ST73/3Jk9Rs4EWkMemuWQcVeRszvxYlZkFUwzBwGFg6rVDyAOHFd0RI7BKwQukM1Bw68NUdQSMUsER+PGwCQFY4TsT+M9mvrd4DCngpD8c8oc7wg+zbukpwenHHxYwCsrZfnPW58a0QP14zDgixnDZD1cgc7t1phh/J/P5s3uZ6s8cMzN+9srefH0AjHsO5zanSF0edqlLkiTvErwsJTlasQ8IyArm97LSdiY41O42Zg8fOMHmUYWSeAwDBB3U/OTJnZtnfW1/oMpR18GWBW+WuG90nGR/zwZV0rOk7pVPwXp2KvV/neQFbJSfaTUJS90xJCkR0th+hyP7xzfKe0i6PXfKWT3Ed1ndLhd3IiDnjlS4Dn74jT0kdUuKt6FQIHEbBSrA4G6FSOA0+DMk89SESMTmBbkk5ETwPaG7YZFHCvODBLOYet/Cvl94xMSuZtSWBTK2+dstaZXe9qeZo8KIv0e01V/najYJReLjkxGsqZCzm9EsLvxqiLlUgpBTYiofrfOGG3VGUGjJs0KHoiQQA8vBkRxMUg4tSZglyPbbAOK/CK71DIoPx7zMnIlP9BI2B0yp0RoBmb2yFwCux3d/PFuYXeJSXrjEz5VwyBPP19ECNgPyfGDyMZWFxUGmKQMRdjkvGXZgcicwGJekQh0DwE1qXH/oUTszci5V/ppLEO12n5BXiaomTMjPTLv6L8K8ee0clGywFb9Ix4c/MkL9qamCa+VYra6ODX8jR5SMI0fEUJR30cpZdV+oqXowlbeaNF2rn20MOMO/DWPtaB468zheqOQqCFESh73hoP2ztEVOdRRiFzw2IIBeslJ8KaCNb8K8re6dhr7JecmrUUiKH3Db3dDQ6t9IxOze/UMgLWkqwssGNjo/wrxscWcmct3jld07wEoYqCr01JNObCCOCa+E0U7Vd1KgQiQ6CUjpMY90Sl8GfVm4CUnfCFzInQZ9FeNcj0bdgZ+bS/kxHQ9/SuaoUhstrwOyITxIgrhu1wnIhChadZslXuZafETvmDEVBgx8gnCavmX63/14NxHzG0datvaqrxqv5Z4bX9yIj4RV2C1U2FQKsgADH4ORHL7B0gFueauDDuGMM+Yp2KW5zwgj34PWOF2BoAYBjQgfGS0oCkOYwZ74o75mHTp1Pz2IoRIOhfYqn8K7MAe9jp9fwBpjg1Twsbr6Dllz8+RL9TH4roevGZnT8/Cto29b5CINYIgOdrCBnFpjg1cggdd9IeZjWuQJY8lzXxm4rSsLcbAvE4fX3H5XqvcQAMgLGsJt4bV4ybTRcn5k/XkmwxTuv+FaVffdxKay4FxC4VtRMPGTF+Ze8zAc6xjYgCJ8ZcJ7rVdYVAohEAxcWouDxAh6s13VhkxDjOmh7fg1B2Oinbczgxvm4PMwtf1nFR8o3oWLNtMpbbL6PsYHvYqX3VyjaO/w+wn0qdbLP3RZaU3RucG28KEpBpenwxe2Emod5s3PSzngJiHYB+HaUcqroVAqEgwDUDYsXbB47A5/a1M66JMzDK1zXx41AACKFQSkf+nRNzANqdhK9/m2FA1BaoaYGQ/Z1vkaxjKo4KvxZNW+kdpb6ra+adsJNnuiXxPmPEvAthjChArhJoqeXLdDdCmfaxcD/XzMPjjaSiTiHgAQHwdEXuJBIUvp2EcmcsK8OAdW1PUiQ6GIBZ/9gKm3JNxEwApB6286+dzyXrvKCWoo3rtT3sVAkGfVJmy0C2rF0XdkXr61wn5h/sslrezYQeTGg318xP2etR5wqBRCIQRn54RsQFtcCwUghjZKS7vlb5cb2WHissTJoB0GPsTYPTmPoZp0/RY7fHVdk70qUf+Z649odqusrxRsS2gB8GYDBsrTXjUS4fPZ7JBGMj769ui/qvEEgMAtY2JwyFbLPW60fQ0om4DqGjwxfOYUkBOp0v0sQZAKNTNp7iLg2h8B95ucqJpg1kdaw9/x0NANaZSkr/4NS42Al/L9eZZn7bqc0Q0ZQToXkpr9GzsFMGchU41amuKwRii4AV7WyqkZB7vN/daNoRInxBx/FYbi1ltC4Jmbt6dsiXpfPFQtIMAKCXZcdq4d5W1wzanVADoOPR2A4+NsJ438gHOBGBxyFdE/fZiq15WsppgrMjyd4HDMZG/qNmheqiQiCOCDDN+JqbeOcelbTrLFpW+Fx7J/J1zoiI/VdOOi+/nkTlDzRDimKPMtByz++kC5NqAOyX2SNil+DHPh5a247TCDK2B3YQ2Mt2Omds7DUhZDXdNKANvd6pTnVdIRAbBJhmfN5P2tMGnfT+devWPc9tI62O/0SDMt0ok33gae+23iieS4/L05NqAPRt2u2GBy39DGyrc55m74j3PX7k26KQebd16pp5IsIYIHVi/tJtnfAcIeZbUVN6w3IUNXIww+CFDvWsQqCpCLA+4yOciJ0Ync5WxiqIgOe1IRBlDmcWwng4zlvW0vnCX5JqAMDWRRuf2+48S7bEIuOfbwOEz43tnvVsr/lKTkQeQb4GvXx8VMYpzo13cyJGEeq39wvW37/lpZU61FEhEBsE9D7xHojwhinwpTTBfOIlfhupE3E+Ej0dfmkI4z3YpsiJeQQn4so1w/t3JNUA6BWlqID2Aa6tznN0bby/8Fn9GYhtdDl41l8Jsgi+N2HIut8yOTFuRuj7xSwd/qxfGiCyKJIRYu8X6cHBkRf6pUm9pxBAR6AckEYYCB3OLuiDui5eEYTYTGbonzkRTyHQZfAAhkiQNsC7sP7INHF0ebCd2Z41w/EP/+tkoPSYk3Z+t935WsITbQAM0eXVPNtQMQgymaFDgsq93/cpFV9E6POwE+hqvzRU3tOJ+BgnYhcKPdbOFEbMh5LgoFzBQB1bGAFI+8mJ2IQp4JyI9VjBeCCqFgZtEMa4WWy0K3xGxNP16Ic0u04KNu7Xe0ba2wB4ktBEGwDD9KZqA6D6f8kgAONV17e9thn9pxyYR6yv12dc3hvTtOGXY9CsE/EFTsQ+l/VWY+j035NfFEY7VBkKgRkIUDr6ak4EdHInIfVzfQt2bHFOxO0INBa4Jj46AwCkP+UY5cbxjIolnIgtXmhNWAjgGcZKr9neSwCDZCDRBsBWervX/r2hLOPG8WF5tevEPMdL/3F8lprfR+repWI4Ed/gREw61udjDGWauHXlSvlsTDpVWQoBVwjAFB8n6Gk1Tb1v6O2uCPDwEHx9oDgnaoJnMvI5Hqqe9SikQ4bgHtZWxWVBYxZktu6ZoVTj/tVvpw9mLzAHxKSV1U83JtoA2EzvC8q/oXJqcON4t9vsZnUo2wVrKTLwl7ZOxGNhOP7qmjiqVhbPgHJ7baPYKDaI1KlCIDgCmcz4izgxMgEFt3rwCDX0pa6JUzDohXK8IAgKH4KRMGLMLw92uI6SfU/vSqwBsGbLnmoZaLv/U+y4xBoB68kabH4dNAi8RsADhc018XeEPj4JDs1e+riXZxkRJyDQOBN3zbjECw3qWYWAbwRKjnWaeBRZiHdRan7CN1EuXoSpMqRQnbsJGX6DU5WlemYqfIytSDM7vG26kKzbnlgDoO+pnY7tQpav2Nazh52eWAOgnzwdLq5UDIPRXDKe+0Y+UO+rnBPzGAyZYcRY5NS3sa6HkR+Fa+bZWPSpchQCNREoZdyj4l6MjmYrYw8k8alZIfLFLBn+INIU3O0V0ioKH5LaWOlGt9vaFu4ASYSk2bHEGgB0MB86Ps3khZ+6RunliTQA9rEFUfBOlPoYJJEqGwT/AP0Q9sZzIoQf/O3vgMMtY8bzK307zCOar4LtY4Br5ulh0qzKbmMEYO0b8n/bOwzC+X5OzC83E1auiSsQ6IbB7ypOjIdDiHroeWDtGZ1KnBHQM16QnJqe24rEu9jUu4muSKQBMEoviwOGJjjCcSIewJGL5o5FjBoX4dA97YQNSwzNHE9VXW2AAKxj69S8EVlYp+pl1woLVtjPzwl6zIJIB8PMluQ5AvYa+7eX/UjAl6R9f/30KVJkRxV9R+NrEKwnrHKfJg9FKvPIYxG0ZXlYY45TuWW/BeNq5LYUYNulU53qukLAEwIgpDox/4QspEVYs/NECOLDnIgO5PZEOhiSXD6BMwByLiJLE12UZB3Lw1LUYZQ7RX8odTIUqcwj998dsKU5CiEqOQnjRC2082MSsrFG0R5VZ4shwIi4ALmzSU7FyVHDxKl4EL1d9vW4Jp/3mpNJMgLGMkPyn6OWgbjUL3nH4WEo6rDKHKFX2ZVN4s/ByTBKWYDlVct/CBPL/ToZ+UqU7WqFuq0Q9+fB1lBIyMSJgCRzV3LNOKwV2le3DZyKs7CVpNfMWnUJ9HETMmqBdcyJuA27bVGWB6l17Xvs43zeM144xwfrWvqVAvv+QFgKG7PcIjtaQg6DKGUdue4CjHPgiAxRBKMSMgjtCyF+kdu2m2vmp6JqU5LrBWdQKzBb0ZEnmng0rIBWvrGTqd8eMrWw61uF1OLziqnFtxdSXdlCqmtjIdU1Xkh1mYVU14ap1KKeQqqru7Cw65fyrEWflKnUrLze1r511I6uE/Nc3w3z+SLkE4BkJWWHm1LsAmeGNvmr3VGwfNDBqCl7R+I/C9AzVpCMjzwc5WDrU5RCew0C2Gyi945jKuqwyoqJ8x/quGTrh5MlfxTNWMyY8VWIdxIa02sUDFusS1+aPvq/rQ3V2GyH3U/V1Z3Uv+ylC3JL/mf+YPfi+bnu2+bnuvX5ue6n5ue6x+fnukfm57o3zM91987LdS+dn+v+1Ym5JZ8+cd3FrlOyV9eXpP+QbIlroq8OpnaMBaXm+yJtn0z97qWFhYt/OpXqShdSXYVCqkt6/O0upLpumkot+rJctgwc/o7lRGAryj82A6SBzMir2kHh1xJOsnYi9rMAMFNh0X6/SmgyZ05/n/kWTgRk1ZM76Dmx3hEwxY4rDJCnKvxrh+MUGATljwfziGYkBCsFWXOvfNzyIA9KagG55sXzBpf8eH6u+4n5ue7C/Fy39PjbMy/Xvfyk3JKvplaubNkQxNbOErfYSojmGmbwKEe9Kc8559WF1OLfF87s2uVR4TsaCAfO/q3YcsejRb1v2DUAtZSR/ZpOxHVhhau0p8YNITQxGgZ2PBDPC1abSylZITxzOl+8I67T/7NC/1Jxr59c644dImE3rERaGyvysJZkZYEdE2cj4Hv2RFVImTbj3sfs9E3Z+xvEHwhD5CAJESfmQEUugh7TdLO8Sn9k94Jc926PCr+OgbB044LB7p+02qwA10Y+7RNv4TV6pW/ZkVde+ZzCwsXzC6munViKv7qcvRdcKp+6v88u/H7Pb8NMWKEGoFL+Bccc7I9NyJek88WnY2cEwNS/PlpLhm4Lml/Bd0eK8EUrP8WsVNVbyF1xNQBuqgWXMsCn+yNmCmQr0dos+fCinBgx5I36Gvnz3I11FLnnWYCZZQ10r583sKSpsVxqySHWNWvdv9Y45eaayGrD78CipWY5MrXoHYVUl16tsMP6P3rNrTLb53vLT+CUlXaF3yg1rpfOkZBnfU1Brt4uP5zOF3fHxggYL0pSJ+qfTsUtmEZizY4To4uMjb0GUl47yeAY+2O8jADaQWX2iBe4gbCdl+AsfqKlQNYz4s2V5SEnWXG6/jh9Sp418NeZytr7lL+H95de83O2pClRFN3Iod9nEHTMNkLMt/qtv+57U6nF38Wc7ndrNOz+3RVy8In1biygg88wIh73E1YTFD5kyvOTGtepMyToOpoTUs+4/Eo6X5yMgxFgW/c/KB+zeWLcDHui63aAFrhpOaXWnd7VybCcoOfHxQh4SmY6X+UX+nZxwp0tzwej8wVKgWxlODTqlD+rT93JeLhf/c6GRP9J/d1v8SsrcXiPE7HfC9Y1n9WMzaDHUNsDTn4+Hfwc1/vdGgDw3P6uP8gnHx6YJWy1ANCJ6AFPykYAgF8AZmrcWrTE/NqBitcx7CvF9ozvyctvpMeLeyMzAsaL0p3yPzhYtnRqU9iC6tZPRSfb4mAEDEryXcfEV436d637sL4NHvZcMxaXI0AK8GNxNa60yHMHMx4yZryxFkbV17KaeC8nYtxN+2/lmlyQW+rhyz3gEsBsY8BYMND9/uo2JOU/JwIneZtmbHbL34bYFFKL5nlR1mE9e+Dc38m1jzbYA6wJ7uQcE3ZqXDcdJOJndsPMSGnw04zDmuEF35uXn+rJF81mGwEQ6x92JXjGWzOuDsthtGFHC/EBWB/mROhe8ICZgFF6ZUQzAZ2PycyRh4QISano8pYr4zDoE6W+QcQBLxi1wLMHDYJ6TmRcEx/lROys195lvC9KxT9d92B3/qTc0neHLTthlM+JWFUPY4/3NsByXyA6S9P+/rb2oXz5VxsT+867WOZW194KpBPxZLbXfGWlwZVMeVZMgWVo1lVyvhh2cSJWMCJS8IUflcf7qlH56nS++EizjIBecUCybE2HP7cGwVX1Ur9W5CspR0LyL7a+dt22f8Zzm8j9ssB+0CxDoChp52K58jORbPPKZs0XQF8p9RkiVqBMySZnvIAoqY4pkJlmfN4p+didTJcLBiL98p82AMqzAtvmZa97XVL6aIVOyOrqUcnP6KvV74JOBEfZSvmejvKsxe8spLpgj34oytxvuTsv+rPUtVnbBO+gPD8AACAASURBVDfCnmbGzE9yTZwBio8TsbsakDb6n3eaCfEkBEgPg0Ltycuj0/niSGiGwHhB9m3cKSEoEQKff4fU9EiLCar8KzgOkHUyT38frhEAzn5658ciBayqck7ENyoYtOWRimGmmTdBlr/ycmkJj0k7Fo/TjfIXAyF6+s+e5q9W9k7/e1PZZbOCzFWxOFZ/S3EYiBiz4xv4nBo5+4exqwbLiy9+nhXFL1bKv2I0GDf+rXqQf8rJOg0MYJIs+Jm0NiX4kSuBsh7K7JCHpCcKi9L54nY0Q2C8uHfN1j2bGB+plomg/8/z0ra4PbsuPfYvnIg0pvxvoKvkPjpvLXKkv0HJ5x4T1Ve/E99giQy+oDDxa4GyTAg8U2kHJcPyrIE7nBRw9NcHus934m9cr1MqvsiJgJgPQccv+/uDnoyAwsKuMyvKNo7HqYXnyScfydkbqM5nC0yB9RkfiaOgk7x88epx+ZP0RHFVOl8s+jQGyOq8PDm9S74CHBjDSLAEyajiiF8jmiCsKyfiEeRBRDJi/ArqlmTuoZLN/YNkHYZPY2CPZB03SdL5FSlT/9CoPVHc51QsxMav1cpbytPRK/n6MwRTC7LXHxqF/ASpE2ZcQoiGy3I9W1/WkC55zjmvL6S69sRR8dtp2nHptUrpz1b6MzHRRF/ct7eBAk+Py++uzhcuSeeLK9L54uaqGYKd6XxxWzpfXJkeL1zRk5ff6x2Tr60W5LLSMx5GH2Q1cUZ1XXH+D9tfOQkFh99UtxuUt2Sd75e04xTJOq6XrCMjWceIZHP3WYZBQbIOyDMwIHnHbZJ2nC1Zx+flqiMiS3xT3YZa/63tb/vQZalRf03QfYjwd0ruhrgbAHL+QPdjtXgc92u6Zs4LQf5oQyOgkFp0mV3Rxvl8w4NspsJLUAeqwdwZHrlYDiFRpxttZkcL+8u3mW3xU5eaCfGD2ux3kGaTJnnfyAfgZ3NExl3fjXC8+1P20fgrf2t2YMHAdYlMn8upcVINPRFU52mOeSXkuee+opDq2htnpW+nbftl3UHBiPL9gwq/VuCG0i4GIiiCAOwIvB1k9hgZ2ythrH2XeEDN02Lb6Dlz5mSz2edyYtyNIC/VfaIlHCLd8k6nohMJw1k+JDAbZ489wokYRaqrmmeh/l9DtiXj6396eeDvbvkft+d0TZyCLiNUrIZxclZbCwu7TrEr2NifL1wsc6s2hCrsiOB7jsrFmPFhTlCClSyfxewWvlD2pjV7EXkHMlbk1PxZHGED5a9r5p3I7ZU6Mf8Qx/aGRZPlhQ2GedAxZRNsKXRDZxKjj97E1yTm699KQFQ8cd21b3bDjzg+oxNxJoJMVsv0A7OWhwupLhp7pV+1LXFo2YrqhsXlP0pcbp2Yf8Jgvk6N/46jcIdFE9YWuCrsi+CgExbNfsotBbgixs1VdAbuAyB3rRQPwQ22XBNXYODINONrbuqr9UyVQbAJgx7sMs7ub2acf5xogVfqj8J4DNvDk/mjYi82H2c4OcvUef+WNOUP9O645JrAgx0CsLNS49bq3H6uwX5+ToQISiMkmvCTH8EPzXF5x08EPBc4F58JmPKjOLSxrPzFDS5o9tZHWjQiYj2eZcnwB5Fm226rV4/Xe2AQME0czYm4Mg4pkHvpFrlgemo9MTMBYLSg95PgM0VR01Q8uFNsKrX46CQaAFNnnSeza7Y2G8gpTsxeRsVvIbY4fG167dhenrcGgOBtpEaXl3pb4dlSQhhq5JA7f0HXxFFR4mMp/+uR2wUydk0rhkOuxytEf5udkGq5Xl1B75VnCMxjOBHXRmEQ3MF4YpS+Nf1fohciFa4hTdcTwcfs8I2MFSWZLKQW/TGJBgDQ3ITdABAjfBWnRhfXzMPdJBsK2tHt78NULCfmSoTB/kC9mN/2OlvpHMJhhhDUZYppxnejwAkUtKUAsAeYpbPWBaNoYJPrRHO0ouLkJpM+BwwOMEZhySYEGZ8lX0ny/rcbAHB+H3OXUA5hnJ2FW5zLhIRPc4qpxQ8m1QDYcsdj2IDv45p4lGvm2ToRX4jD1DnPjL4NJTa5Jh5tt7VdGJRhJwQnAtYBMWVlkmniW80c9IF3WH4hM7Foj5TI1bzKZoZe1yjRzUycassPI4LATEJ1+c3+D8Yu04wjGRWXu83+6KZ9lWd+239fImcAwAC4ma/B7PstUxYjxq/nFFJdG5NqAIjr7wnKjD2MmA+Bt6VOhj+DnRoXaxAAg6TSEYMcdWoei0VTksoZ0IZeD74QQbCr8S6kVf56M3AoK39xWQ0aAsk/08StmYx8TjPaELc6OBG3I+AZ26ibkAaaaea3OTUu5prgQf0cfjNwW2INgKuyjwTqJwhyEtP6zZVgAIwn1QAYvfY2r8BCprz7wfKh1PwEbKOK28BUi55SoBci1iMI4ig4yNWqo9WvlddQxRYEDO0yt/8Zn5Avh40do8ZFyHRL2D6YFPnHxhe89THwhK9tbNrCKg8iwZWTHJm/50RoXuPO/3JgWWINgD9mH7L3WXU+PRv6FBgAB5JqAIz/+eZGzNzOiXEPRNcDr8c4TNX57eBWsohG7XVx3/iLXxqS/h4h5ls5EdswBv+DZVCxV6fiv8LCBrbsHKxruuO64HPtKWurrL9FlSY6LJzcllsOmSwwttkZYTsBu22Tn+cg9gFsEQb50ono4UTMyPZXLXM/T0L4X4ddCr/PPhC0v7Tq+7vBANiXXANgeTVjxjkRf+VUnKxrI//Zao5NkKKzumP6+F/kmvkpP4NGK7xj+VQYPnCrljX7/z1ZOvxZbHwYMRYh0wk0r4CMd9i0JqU8RIOqIyltdkMnODizPvNLlsw9wYkAB+iDMh7T1L+uZiUuysY2ZsxBfO1YN/F8Yk7hzK7RpBoAo9fcuhfWMSGBAng0tvo2poHMyKs4ERMIAtLfrtO/MBgyZryLE2Ei4GjvwLsYMz/pZrB18wwjIoVMn4QdJZA3wU39rfiM3ife0+hL1yXm5S1UrQiS1aZSfg3NOIxTcRZkmPzlwLJitXd9Uv5fppYA7OOU/XwtzACsTaoBUEh1ndXCfbBm0yAsrctBys7oWec6MX9Zs4I2uQgGIycCO0nLDq6JjwaFENLvYvDYXoZOxGNuw9QGpT+O71tbKOHLdlZf8HhtH2QNjGMbw6Rpfq5bT4rCr6bz6uzjQXneku8zYt41p5jqujupBsBUanFnmEIfx7LLgWBQ4t3vAce4OLaxWTSVsrYRkfeoABoNBhMQXc5vG3Qifo5Mj+RUrG52DAu/7Q/rPU6M4zFwhZmZsGiMc7nzc0tvrVasSfm/nGuN+myb3jd/OqeQWnxBUg2AzXenr27HrxrGRt7v1YvXYfD7W5wHnWbQZiVe2u6Aj9+BYRx45JV+K32s3zod3jPWgMOXV1pa6XnYEoc027O2HZ0n+/vMt1yqPzSYFIVfTecKNujQNwLPBiW53CnYHj1namHXN5NoAEye81upa8PAgCFdM37Qag5/jQZgyNiGo7TMIxrV1er3s0R8HCMoTBU/RmHN2S12TBM/KWUeDD5FbR+UNMgp4ZaGVn2OUbGkijd2jNyfa0Yi88v75Svkj+dE/A4Ckd3Dsq4c7qqVb9T/Txm4XhJa0hPu+YzbB2NZL/SJklzIVOrFhVTXVNKMgO2XL60GljLN+LxfYU/ae5DXmROxFWFg21ozR3TSAAlIL9dGPs2J2I2Ap10uTTchmBkxjkNX/prg7RrzwS4KsDsDCdul9nJb+RyCQ4FjNSditNIf+siQPCl3feKMgPP6AweLs/fnVjnfp2fEdJrkYmrxQ0kzALbc8agTM1aAl3crd9BK2zgxj6h00CDHdsv/XsGv+ghe/JwICBblJFt+rousNvyO6roq/xkxvxc0SlsNegezveYrK3W06xF2unBiDtTAxysfJ2AHTjvgyMHzn4hsLcwuyN6bOAPgKv3hB7hmLE7mT1zIidhTixdBrsGM+QxZnkp1HZMkA2DqrPNlf+/mep0YglpcCWt/Mxragn/AkzOIMFjvFmAtvAXh8dwkyAHB8XNwGxB/oJoYy4CrG4DFK28hMQzEha+uqx3/c038xit+tZ7XNfHjVscPjFROxN9qtb9y7Q7OkmYAHDhl7Q2JjHxqZapcVsEe66gTceksWZYXXPD8JMUDGLv6lnrK334vD1EAWznwCThy4Hy1Gpl286OY1RGsC1bUxX1Ync4qZ4t914VOxf8g7Uk/KO+Q76Dk2OPUsDa6Do5rOIac2dvK8UXAWISPJTdOxRodlgkLCXxjEkW+vNNLdCOPP5KTOom/Cgu7zkjCLMBUarFc+9iTBwc9lyBtYpo4ulWz4aHtG6fmz5LYYcKguRw3fWY0NJeyVk82NzFmvDGssgkZfkMYWCSxzFII8OBLOZOUmu9LYvsb0VwK9EPN0zgRnnbALOXppMwCFE/KLX13Ixzidh90FCfiKoSxpnocWl43FL7lDCjibgR4+PqvBkBCqt8ge7TjJiwVesprnaIfQWjaZq2zgl29YxhT9FwzNqOkd7YrN83YDIZFvba00z2mGd9F6AswXlzYarjBbAZ8DHHiLzEWOAMmZBYgcV//oPytdM6zdZe9v3s8d531c2rhou/F2QCYPOdCOZDeGBScIidiWat9LUF2QwxvZ8g30GqDXpD2hGIEeOzADZRZTf+CIG1O8rvW7pjgCZ80Y3OrxRiBhGiciFUN5Knh+JoAX4AdJ6297tVJk+MwlD8n4g7XKb/lHPmsYqrr3rgaAZv/ihrScQ94hrbSFjhOjL8E7dzwvk5GvpK0zhMmvSF56jccaF3wsu4OgzAxiWvZ4OTkAjc32H8jrm30Slc2M/Q6KxYCfPy4aXvDZy7M3hfnpYAfecUo6uchgR0Wb6bLMe72nPNFLlr08kKqa2vcjIDxP93UUCinG+5eyHUiRiACWys4wFk5vzGS3GyEtKlRd4o41c+p+f0QtusFkWmzXba7upUDyADqxpnNxTjREhEyS4F8YAscEdgOrXIN2Sp/PXBLDI2ApcvcyktcngMDLQQePeDb+V2mzvtQIdW1My5GwM6L/iyzmW1BBksX78J+YfPLcREKv3To1DzWxQDXGA/NPNsvDa36HuyfxVhmQeBP3k+o4VblC7Sr5DmtiT4EbHcn3Z8Cpnyt3AcCAQ/HsWIlXSdjliZ4zQnZZS9ImpzrRJyPyicqHly1asv/C4TD5MLFXyykuvZFbQTsufDyRnv+HQXUJ6iJDiRUciQh5kM+227Hcr/eN/T2QELUgi9bEdLsODX7fAK+dFsQ2kBNYsRYgCDzkhHxi0CERPyyFchHx8DCTRn3s5yEcLtRh/ydl+te+/P1SxIZ94VrgrvB2t0zxsNoKb8nF5772UKqa3tURsC+xRdtyvU8PeGu4e6n/V2Ul+hAQhB+FsnT/JFW3ToZZJzGUjYu5LDauNhO6fCHgtDeiu9ClD5OBMY4obt2mIoZkG4C+fiQt2r5q/n/PpZ7+uTc0h1RGQHzct38Z4M3Jjb4FU4cl5L+W4We9VOmzj20kFq0PgIj4CYIUATJTEphHInYH5YA1yk3sYGEGDEW1WlXzY5c63lwgIvZWBcLcnRNnFILrxCv7eKa+alYND5mROhU3IKAexGSQsWsaQ3J8RLIBwGj6nFjFPynYH/5vIEl74Kv8OYbAUtvPXXw6hc2BCrGD6CE+6VidWgO7XLx4hcVUl03NMUIOLNrVyHVNSv0JqUj/w7b90IQ4mqhrvU/cYGEYA2IE7EBAa9RlVSm9ugBueER8K0lb9XXdutk+DO1qWjvq6zP/BISD65KEpJ+A/kgYbWfUeOi6jTToIjn57qva5IRsHtebumJc6R8VpL4VotWTo1cML4YawjJv7hW2ajXLL+AtWEZAsVU1y3ynHNeW49oxozPMSJIMMB8LxekdSI+Vo++ON3DGhx1Yv4pTu2KEy06Mc8JWRb3gMzHqc1xoaUdjdxypLhSErCNIctdtRFa+l/KPcKNN9WTgQWDSz43P7ckF5YhsGBgyR0Lcte0TNRLMKYC8JLC7q96/EC9J1OpZ08tXHRUIdXVj2QIFIqprtvkWV0fcEuoLZrVUADgagq4i/ISFUiIE7HcRZsaYVFUX6DO0smp0YWAcS0e7G+FnSnOyAW7g4U7RMYLRklz3sYK5ONPVs1eCDbmtqVHyGX/OC+3dC6szyMZAoV5ue475/cvabmkZYyN/IevvCBRp/yWZy36aCHVdWkh1bXRozEwNZXqShfOXHSqPOcc3xGbIFKX9QWGnjLRRSfZzTXz7LhHC6N09NVe4307tD2xDlJuBy2/z0FubURHnoOGACPicc+BPPw2ImHvWY6uBxxk9SCGje+bK+Pu6AqJjSCca+O2+J7ZrIfXRgitHASjk9Ze/6H5ue5L5ue6N3g0Bqbm57p7F+SW/PJk/ca6M8MJE99Z5HIizvPI3/5YZbuVqa43TaUWf7ewsOvMQqpraTHVdUcx1bWi/Fu8vJDqurKwsOuUyVTXl8CnYBYCAS5YSg4yWhU8glhP8F3dS0IgIXDUQcLl1ABsaslXdX3bazkRTyHhW0vmbkuqZ3pYDLemwVciYB7rra5hBvJxgd0u8HHxHUzGgfkwdT9/YOn/zs8t/c38ge5umM6fl1u6ovzrXj4/t+Sq+bmlp8wbWPLlBeSa8Ne1Hehs9mUrA+ANLvgCOSr6sr3mK5tNY+zr430jH+BEPOIKRKSQmNN1xTeQkAqSEo7oMjb2Gk7E+mkZCOULTIKXe91MXuE0L7alWgGZahlL3q5RcVYcG9msQD4OcluAsMFKwTRfMsCwteKMjDrwZr9OzD+g7fNvfhObUyNjxlebMTA7MCmWgYRUmFRc2dN18Yrg3rueDIZlygiYMwcx3PX6wNHScEWqVFqzA/lUjWEr9D7xnhCapYr0gADs5dep+R1Q9jo1b+RE/BEiO8KWTw/FtPejYEVbU9/5KiH39pXgb6YgloGEyoLkSenUxEqn4pvtLF2w9sYJSvrlmvjWkddrwQG2nbHnRFxTBx/XeMYt4VWUgXzKhqx5RDvLlWp7iyKgAglNM9ZKlboVYQAdqt4DPF1La59p2vDLORFNC7U6i1eacXW7GgGMmZ/EyMUAX1VxkVIriiH4L03N4rW/jw/XRhAn4mAgn7jgoehQCISCgAokVIYVPHpRBhpNXBgKo2JcKATb4MTIoOAXYHCHuAxBvLJjDLEjabAbAmnWZTs4DTtW1KQbcQzk06Smq2oUAtEhoAIJzZnDiXE3ghKbotR8X3ScbG7NMOPxzJ78XgTcvHyhOT4L64PNRSDa2hgxfo2DvfnTKFti7WA4ghMR20A+UeKj6lYIhI5AuwcSsvatI8ROMHthh0HoDIu4AmvpJI2jgIL7YNjo+F3E0DSl+gFt6PU4cRaMNVHKK2PGhzkRT9j452jg4T9j9sISSlMYpipRCCQBAcaM53NqnsaJ2Inf4RoO9HsgyVFoCRwaMIBr4gyMNjNN/KRBVYm+XZKRyLaWNpQhSF97QaIBdkF8KfxsgCUTS86nGBt5v4vq0B/JZoZeB1vrMPwXfPTZLRDpsN2WjNCZqApsXQTaMZBQeU0VYhc0VjINntneqttTSuu0xMQIOBPul54mftOqvRO2QzWQP1fYRrFkUvIZ0YzFnIh9GG3wWEYpkE8ctzq2qqyqdiUcgSwZ/qBOxGMeO5qrAchFmZRpxuebCSHE90f6Krm+mXQ3o65SohlN/N0F37zy/zwI8Ytermae3gxcmlmHtfSyDQGrrc2caYMtyLpmnghe9gi0e5WvKa6JK2IVJraZQqPqUggERaCdAgnpRFyHMkhpxmFBcY/L++XZERRHyZmDt7VzIjSfghYzAjg1LsaQTaaZ326WbKlAPs1CWtWjEAgRgXYJJASR1SCfAcJAuw47bniI7HUsGpS/rpl3IuAxQ/lXT0GHtauAEfELx8Yl6IYV1jvw3nhdE/c1o9nlQD7GPdhy46q8Uj55FcinGXxWdbQZAu0QSIgT44euBpoG/gKQPCTJ4lGOwS7uwMCiqoyrajlhhRRXoMiIOCHJfIBdOpwIjF0Xe3iD3PVBcVKBfIIiqN5XCCQAgVYOJATKCWldej/PjL4tAeycRSJsD7Pibs/4cq9S5N7vNYjcl8kMHRJCZMEip+JHsxqZkAvW+rl3rKsMVJ2YvwyrySUfkfIOou2BZaSKbhfl7WfUuKhdo3GGxVNVrkKgIQKtGkiIMeNdnAiE/OrGw7W+dhsCG+EDpWyJRCx1MfB6VUquYvdbuQWyyPUXGTGOixBWX1VDFjpOBEb+jsF169Y9zxcRdV4C2ebEVIF86mCkbikEWhqBVg0kxIk4D0kJdSRFAMoDurgKqd02A8G42UvQmVJ2QYKyLdNGQym+fGJ4ATLDiXEzAi+KWTr8WWwZVIF8sBFV5SkEEoxAqwUSKu97F08hDMAG5xMviTtrS0sfVFyO0F670oXz5X5S9zI29poQ0lhPQf6HuPMC6NOp+C8UXmjG1ZjtVYF8MNFUZSkEWgyBVgokxDXzcIxBmFFxeZzZDMpfJ+JSjLZWlXEbOBP6bbuub3stJyhGmN0oOcCJ8XW/NDXjvdKaOhHrq7C0t8Ht+RhkbMSgWQXywUBRlaEQaBMEdG3kP3l0YWP7n0lW82UMqDkRtyEMxAWdiI9h0BNGGToR5yO0caZSouJejHVn+OIMIVnMfohvEQaWGGXqxDwHhR/U/H5QemD2hhPjeE6EQKHJm5NfAcIGgy9E0Hao9xUCCoEIEEh6ICHrKzR4fgRN8CBfw2GxjlOjK4SB/X7MOAj9feZbOBEYUfDsRsp+nYx8JSxc/ZZr7bAJHC4XonjCzI5fOuA9FcgnCHrqXYWAQqCEQNIDCemaOAVDSUI5cRIJtC/NmV91K8KIuW4pxiEMPtjK2AM7WeLCk5ITJk7I5Um9T7zHb7siDeRDxCDsLPBLu3pPIaAQiCkCcQgk5GdaujwNKjSb4rB/SXo5303I8BviwB4IVITQnhlth6/ObNZ8QVjtY2zkP57Z0z+MTPduyAMRFs1eyuXEPAajbYwYi7zUW3kW4jDAnnpOSjsmZvAWg64GZYwyYsz34zBaoV8dFQIKgQQgUBrIiVjWYEAIawDa5CclKCRH4kQUEGi+PWoWYc1oVGHxRJjKv4IZfNmGkFhmF9fMT1XqiOJYMo4R1tkZEU/DjhwvbVCBfLygpZ5VCCgEUBCAjH+cCFqlSMJS/NXlpr065oE3PwatTDO+hgKgj0I4NU7CaMOMMqhYPTg48kIf5Ph6JUvMQzkRYzNomLkMUc1rN/+3Uzr8IV8EIbzEqPlnjPbo1Phvt+SUlhxUIB+3cKnnFAIKAWwEDgYSwp/adTPoFzkRy9xOy5eT1qA4o21qxtdyNa90zZyHoWSqytCiiHPA2Mj7ORHjVbS44Xm9ZyZg90o1bmH/p9T8BFIq6uVuaVWBfNwipZ5TCCgEQkcApi2tdek9yIN6vQG/cm8314zFbvKkcyI6MOiDrXehg2qrAELhIimZCmZwpJBB0VZNU0+5Jj7KidiBwQ9bGXnIvteshlj+JRizYDsgeFIjuqMO5ANbCsHob0Snuq8QUAi0IQJWBLgrkdbb7crKzfkQDFCNwtZyIlbYFIabcms9MwlT2c1gMafm99HxLG1rHDqkGfTXqyNLxMc5EcG3ac5cQjAhH0S9erHu8XISnVry4ekaONDVo+lgIB8q9iLIrifaOBG7wLgPY3dIvTarewoBhUBCEYhzICFCzLdyhIFUJ6In7K8hRszvoSt/IgbjFJyFMfOToGSQFZuA7XBhdh8ryBEG3czJe748w6AC+YTJR1W2QkAhEBICcQ0khLeNzjg+JOjmWJnaJjEVo07Ek5o28m9h0ey3XJ2IL2AYZVVYGWGmdNY1886q+rx+WcPzBdZnfKQWbpEG8qHiwawm3luLLnVNIaAQUAi4RiCOgYQgngCnRg5hAB+HFLiuwXD5INPEtzgRqMr/Gf+HdZDrwSUJTX+MUvFFTkTgKHpVPN3CufEm7MboVPxPVT1+lL/kmnFJNW1639DbOTHuQSl/5tKIGxpVIJ9qhqj/CgGFQHAE4hZIiGsjn8ZwrIN458HRmS7hGee8b3AiDiArgE1ud0tMU9L8MyuBE7YRsIkx441YrYEtk5yILYH5Q8UwrO1X6FKBfCpIqKNCQCHQsgjEKZAQJ2Jp4IGcCAkxEdJj8l96JuR/rh6XHelxecLqCXka/HrG5c968vLo9Jj8yKrt8qX1GMv6zC8l5Su4XjuC3LO+rlFnPyDAzoA29HonuqSc8yyZPep1Uu/8gmSdx0k+9yTJ554mecepks89XvLOb0h+5Ntk5vjncCJ+hyEzOjX+F+hRgXycuKKuKwQUAi2LQBwCCem6eEWQ/egkl5eZTbvkGnNyXzpfLKbzRdnwN14cXD1RuLxnXH5lpZTPrjA4ievgFdqxj0wzv429BFLt/yD53JeUlDvrWC5Zx4hkHbLxr3PfTvabokFvkIO0382UutMz96tAPthSo8pTCCgEEoVAHAIJQQwBT190zJR9T+2SvSOTjZV9I4Ngojicnih0aYNjoPCwYyiE7gkfprBByOcQdkCs3a0tPFzyjpslm7uvscKvZxR0yt3s/+Qmer/kxHBS9LWu77Pa9oQnufO+nl+rbvlMqu1e2HkRJu9U2QoBhYBCwDUCsK6qE/PcEJSgwyAopq+73BLIqCn7Nu6SPWOF4Iq/2jAYL8i+TbskY+Y0XcEG/EQr/4rg6JrxAww/DVC0awmXO9jZLr7y6yn92vf20ZPl0/Qhd7xzKW/YxkEpz4BmHBk0zXCFN+qoEFAIKARQEYg4kJDjAA5T/b0mwhd/teKv+t8zOiXJ2glHOlwqhTyE2kVlTISFBTUCdDIkTfoXWWRHh6L87bMI29kimSNPBuUf9vsqkE+E8quqVggoBDwiEHEgoekBmArZt3En/hd/leKvvzvWHwAACTlJREFU9hvIbN4tYcbBpcK3PxdJPHyP7PX8uK6ZJ/rAQg6SAbmHnR664rcbAZPsR/Ip8qidJ1GdF2CHSpyCPnlmvHpBIaAQaF8EogwkBAp4zda9TVf+FWNgzfB+yb0tCUSaES9sKWXEWODFCFhHMxKUsV05N+u8yI6SW+ntUSl+yVUgn7DFUZWvEFAINAOBSAIJUVP2Du+LTPlXjIBecUAyNuJGkezimvmpZvAjyjp0TZzixgjYQFfJAjs2EuVvNzKG6Q1ueIf5jArkE6WAqroVAgqBcBBoWiAhKmRmW3Rf/hXlXzn2Gvslr78csFsnw58JB/X4ldoojPOThMopdlzkyr9iCGyjt2AqeKeyRiGhkFNOgfhxUVGkEFAIKAR8IBB2IKG+Tbsj//KvKP/KEZYiHL589zBmfM4HjIl+hWvm2bXwGCAb5AF2QmyUPxgBsBzwFH3ciX9Br+9n1Lgokxl/UaIZqohXCCgEFAJeEAgjkBAZnIid8q8YAdr6HdXKYv8ze7q/7AWzVnqWEWPRTCPAkDvZWbFS/pVZAPBFGCDrqvkX6D8j5l1h5DloJRlRbVEIKARaGAHMQEKw1g7b8CoKN3bH8YJk+mhFaewHB8kWZq2rpnEizqsYAdvorbFU/hUjYDs7r8K7gEdjjQrk40o81EMKAYVAOyCAEUgItt7FTulXbRdcM7QPlMcBphlfawe+NmojBLXRibgUpv6n2A9jbQCAIbCRrAyi/DcxFcinkUio+woBhUC7IuA3kBDNjsZe+VeMk8yGnQvblb+12g1GwARbzCtf2nE+7mMnew0bDAaDCuRTi/HqmkJAIaAQqIVAKZCQJh6tTA83Oq7ZsicxBkA6X3ygVpvb9ZrMHf0yyTp2xVnx22l7mv7d7SyACuTTrkKt2q0QUAgER8BNICHGR2R6PIT4/lXT95UveJTjmHxHcHRaowTJOn9lV7BxP9/FftPYAFCBfFpDOFUrFAIKgWgRWLdu3fMYEb/gREzUmgno27AjSV//JVrXiP03cM04TP2Mwwrs2M1xV/oz6euUgyTnZAT0c808PNoeo2pXCCgEFAIthoBTIKE1xv7EGQA9I5NOCqStrj9JSewd/2Yq/3I2wSF6czWfxlQgnxYbcFRzFAIKgfghYA8kBPH+0+PFxBkAsIxg2xJYrUza5j8o0loKNu7XdtBzKjw6AIF8CMm/OH49RVGkEFAIKARaFAEIJESenNiAsiYf5nq/Q9nauu0VJdK2x+10USINAMhTwPuG79Yz4s0t2r1UsxQCCgGFQLwRSOflKUk1APqe3tW2ir/iy7Gfzk+kAVCaoeBz3xTv3qGoUwgoBBQCLYxAerxwRVINgDVDjvkB2sIw0Mm2Upz9uE/3O9LHO5SzXwuPLappCgGFQMwRSOeLdyTVAOg1DrSFoq987Vcfc2Rtcr/+WYeUtPP7Me8eijyFgEJAIdC6CKzOFx9MqgHQY7b3ToC1lCfbAGBz57Vuz1ItUwgoBBQCMUcgnS8+llQDoLfNtwImdQvgwSUB3nFqzLuHIk8hoBBQCLQuAunx4v1JNQB6zPZeAhik/QmfAeg4oXV7lmqZQkAhoBCIOQLpfHF5Ug2AXmN/W/sADJD1yTYA6NyjYt49FHkKAYWAQqB1EejJFy5MqgGwZuuetjYAODFkgR2TYCOg85Ot27NUyxQCCgGFQMwRSE/I45NqAPRt3NnmBoCQe+kvEmwAHPWvMe8eijyFgEJAIdC6CPRulx9MqgFA1k60vQEwTi9KqgGwrXV7lWqZQkAhoBBIAALLpPzHdL6YT5wRMF6UjJltbwBsoXcn1QBYkoDuoUhUCCgEFAKtjUA6X7wlaQbAGrF/khMx3u6/nLZ2QrLO5BkBtKOztXuVap1CQCGgEEgAAqvz8n+SZgCkx+VPEwBtU0iUrOPBg3vrIcJe/H+75OCxL2wKOKoShYBCQCGgEHBGICvlc3vyRTMxRsB4cW/PDvky5xa11x1JOzoToPRthsnc69qLQ6q1CgGFgEIgxgisHpe/TowBkC/8McZQNp00mTn+OZJ1bEyIEVCUvOPdTQdJVagQUAgoBBQCtRHIjMsXJcEZsCdf3PdEXr6+diva96pkHSckwgDgHbe1L5dUyxUCCgGFQEwR6BmXP4v7LEDPROGcmMIXKVly5WeeLWkHjbcRMHefpEf/e6RAqcoVAgoBhYBCYDYC1pbANTE2AjZkhuQ/z6ZcXQEEJD3yE5J1FGJrBNDOMxSnFAIKAYWAQiCmCKzaLt+Szhe3x9AIONAzJj8aU9hiQ5bkc8+KqQHwKMxSxAYoRYhCQCGgEFAIzEagZ0Iekc4XC3EyAmB5Yjal6ko1AnLZEf8o6dwHYmUE8I4hSY9+dTWt6r9CQCGgEFAIxBCB9Lg8IS4GwOrxwnkxhCi2JMEee8k6MrEwAnjHdkm/+77YgqUIUwgoBBQCCoHZCKTH5S/T+WIxSkOgJ1+4WEr5rNnUqSv1EJDsqH+VrKMvYiNgXOqdH6tHp7qnEFAIKAQUAjFFoGdC/iCdLx6IwAgogAESU1gSQZZMd/yLZB0rIjICNkl65DsTAZQiUiGgEFAIKARqI9AzIf8znS9uaKIRMLJ6XB5emxp11QsCJZ8A1pmSrGOqiYbACqkf+QovdKpnFQIKAYWAQiCmCJC8fHHPROGysJ0DV08Uru815StjCkNiybK2CPKQjYBRyTqPk3KOWrJJrKQowhUCCgGFgAMC6Qn5gdX54l3YvgE9+eLDq/Ly0w7VqssICJSCBZUjBm5CNgR2ST73Qpk58hAEMlURCgGFgEJAIRBnBHrz8tD0ROHSdL44FmBpYEc6X7hm9bj8eJzb2mq0yewRz5V07lGSzf17oMBBvKNf0o7TleJvNQlR7VEIKAQUAi4QgEyCvRPy86snCuem88WV6XxR1DEIRtP54uPpfOG36XH5ZRXVzwXAIT8ite/+m2SdR0s29zorlPBeh9mBKck610vWcYdkHQtUQp+QGaOKVwgoBBQCSURgpSlfsGZCvik9Lt8DMwVwDj4ESWxLu9EsZeofZKbzVbK/8y2Sz/2A1I96u9S/+1q57vDntRsWqr0KAYWAQkAhoBBQCCgEFAIKAYWAQkAhoBBQCCgEFAIKAYWAQkAhoBBQCCgEFAIKgYgR+P9seg2UaqTv6QAAAABJRU5ErkJggg==;" vertex="1" parent="1">
          <mxGeometry x="795.4" y="498" width="76" height="76" as="geometry" />
        </mxCell>
        <mxCell id="C_PrHtnuCAZ5bNsTurKs-66" value="&lt;span style=&quot;font-size: 15px;&quot;&gt;Ad-Hoc SQL Queries&lt;/span&gt;" style="text;strokeColor=none;align=center;fillColor=none;html=1;verticalAlign=middle;whiteSpace=wrap;rounded=0;" vertex="1" parent="1">
          <mxGeometry x="804" y="435" width="60" height="30" as="geometry" />
        </mxCell>
        <mxCell id="C_PrHtnuCAZ5bNsTurKs-67" value="&lt;font style=&quot;font-size: 15px;&quot;&gt;BI and Reporting&lt;/font&gt;" style="text;strokeColor=none;align=center;fillColor=none;html=1;verticalAlign=middle;whiteSpace=wrap;rounded=0;" vertex="1" parent="1">
          <mxGeometry x="805" y="285" width="60" height="30" as="geometry" />
        </mxCell>
        <mxCell id="C_PrHtnuCAZ5bNsTurKs-68" value="&lt;span style=&quot;font-size: 15px;&quot;&gt;Machine Learning&lt;/span&gt;" style="text;strokeColor=none;align=center;fillColor=none;html=1;verticalAlign=middle;whiteSpace=wrap;rounded=0;" vertex="1" parent="1">
          <mxGeometry x="805" y="590" width="60" height="30" as="geometry" />
        </mxCell>
      </root>
    </mxGraphModel>
  </diagram>
</mxfile>
